<?xml version="1.0" encoding="UTF-8"?><svg xmlns="http://www.w3.org/2000/svg" xmlns:xlink="http://www.w3.org/1999/xlink" stroke-dasharray="none" shape-rendering="auto" font-family="'Dialog'" width="1469" text-rendering="auto" fill-opacity="1" contentScriptType="text/ecmascript" color-interpolation="auto" color-rendering="auto" preserveAspectRatio="xMidYMid meet" font-size="12" fill="black" stroke="black" image-rendering="auto" stroke-miterlimit="10" zoomAndPan="magnify" version="1.0" stroke-linecap="square" stroke-linejoin="miter" contentStyleType="text/css" font-style="normal" height="602" stroke-width="1" stroke-dashoffset="0" font-weight="normal" stroke-opacity="1">
    <!--Generated by the Batik Graphics2D SVG Generator-->
    <defs id="genericDefs"/>
    <g>
        <defs id="defs1">
            <clipPath clipPathUnits="userSpaceOnUse" id="clipPath1">
                <path d="M27 44 L1442 44 L1442 577 L27 577 L27 44 Z"/>
            </clipPath>
            <clipPath clipPathUnits="userSpaceOnUse" id="clipPath2">
                <path d="M-1 -1 L1470 -1 L1470 603 L-1 603 L-1 -1 Z"/>
            </clipPath>
            <clipPath clipPathUnits="userSpaceOnUse" id="clipPath3">
                <path d="M1271 49 L1438 49 L1438 78 L1271 78 L1271 49 Z"/>
            </clipPath>
        </defs>
        <g font-size="15" fill="white" text-rendering="optimizeLegibility" font-family="'Microsoft YaHei UI'" stroke-linejoin="round" stroke="white" stroke-width="0" stroke-miterlimit="0">
            <rect x="28" y="45" clip-path="url(#clipPath1)" width="1413" height="531" stroke="none"/>
        </g>
        <g stroke-linecap="butt" font-size="15" fill="rgb(204,204,204)" text-rendering="optimizeLegibility" font-family="'Microsoft YaHei UI'" stroke-dasharray="3,3" stroke="rgb(204,204,204)">
            <line clip-path="url(#clipPath1)" fill="none" x1="28" x2="1441" y1="576" y2="576"/>
            <line clip-path="url(#clipPath1)" fill="none" x1="28" x2="1441" y1="502" y2="502"/>
            <line clip-path="url(#clipPath1)" fill="none" x1="28" x2="1441" y1="428" y2="428"/>
            <line clip-path="url(#clipPath1)" fill="none" x1="28" x2="1441" y1="354" y2="354"/>
            <line clip-path="url(#clipPath1)" fill="none" x1="28" x2="1441" y1="281" y2="281"/>
            <line clip-path="url(#clipPath1)" fill="none" x1="28" x2="1441" y1="207" y2="207"/>
            <line clip-path="url(#clipPath1)" fill="none" x1="28" x2="1441" y1="133" y2="133"/>
            <line clip-path="url(#clipPath1)" fill="none" x1="28" x2="1441" y1="59" y2="59"/>
            <line clip-path="url(#clipPath1)" fill="none" x1="145" x2="211" y1="576" y2="576" stroke-dasharray="none" stroke="black"/>
            <rect x="211" y="517" clip-path="url(#clipPath1)" fill="rgb(31,119,180)" width="65" stroke-dasharray="none" height="59" stroke="none"/>
            <rect x="211" y="517" clip-path="url(#clipPath1)" fill="none" width="65" stroke-dasharray="none" height="59" stroke="black"/>
            <rect x="276" y="472" clip-path="url(#clipPath1)" fill="rgb(31,119,180)" width="65" stroke-dasharray="none" height="104" stroke="none"/>
            <rect x="276" y="472" clip-path="url(#clipPath1)" fill="none" width="65" stroke-dasharray="none" height="104" stroke="black"/>
            <rect x="341" y="458" clip-path="url(#clipPath1)" fill="rgb(31,119,180)" width="66" stroke-dasharray="none" height="118" stroke="none"/>
            <rect x="341" y="458" clip-path="url(#clipPath1)" fill="none" width="66" stroke-dasharray="none" height="118" stroke="black"/>
            <rect x="407" y="325" clip-path="url(#clipPath1)" fill="rgb(31,119,180)" width="65" stroke-dasharray="none" height="251" stroke="none"/>
            <rect x="407" y="325" clip-path="url(#clipPath1)" fill="none" width="65" stroke-dasharray="none" height="251" stroke="black"/>
            <rect x="472" y="325" clip-path="url(#clipPath1)" fill="rgb(31,119,180)" width="66" stroke-dasharray="none" height="251" stroke="none"/>
            <rect x="472" y="325" clip-path="url(#clipPath1)" fill="none" width="66" stroke-dasharray="none" height="251" stroke="black"/>
            <rect x="538" y="251" clip-path="url(#clipPath1)" fill="rgb(31,119,180)" width="65" stroke-dasharray="none" height="325" stroke="none"/>
            <rect x="538" y="251" clip-path="url(#clipPath1)" fill="none" width="65" stroke-dasharray="none" height="325" stroke="black"/>
            <rect x="603" y="236" clip-path="url(#clipPath1)" fill="rgb(31,119,180)" width="66" stroke-dasharray="none" height="340" stroke="none"/>
            <rect x="603" y="236" clip-path="url(#clipPath1)" fill="none" width="66" stroke-dasharray="none" height="340" stroke="black"/>
            <rect x="669" y="295" clip-path="url(#clipPath1)" fill="rgb(31,119,180)" width="65" stroke-dasharray="none" height="281" stroke="none"/>
            <rect x="669" y="295" clip-path="url(#clipPath1)" fill="none" width="65" stroke-dasharray="none" height="281" stroke="black"/>
            <rect x="734" y="266" clip-path="url(#clipPath1)" fill="rgb(31,119,180)" width="65" stroke-dasharray="none" height="310" stroke="none"/>
            <rect x="734" y="266" clip-path="url(#clipPath1)" fill="none" width="65" stroke-dasharray="none" height="310" stroke="black"/>
            <rect x="799" y="177" clip-path="url(#clipPath1)" fill="rgb(31,119,180)" width="66" stroke-dasharray="none" height="399" stroke="none"/>
            <rect x="799" y="177" clip-path="url(#clipPath1)" fill="none" width="66" stroke-dasharray="none" height="399" stroke="black"/>
            <rect x="865" y="266" clip-path="url(#clipPath1)" fill="rgb(31,119,180)" width="65" stroke-dasharray="none" height="310" stroke="none"/>
            <rect x="865" y="266" clip-path="url(#clipPath1)" fill="none" width="65" stroke-dasharray="none" height="310" stroke="black"/>
            <rect x="930" y="281" clip-path="url(#clipPath1)" fill="rgb(31,119,180)" width="66" stroke-dasharray="none" height="295" stroke="none"/>
            <rect x="930" y="281" clip-path="url(#clipPath1)" fill="none" width="66" stroke-dasharray="none" height="295" stroke="black"/>
            <rect x="996" y="502" clip-path="url(#clipPath1)" fill="rgb(31,119,180)" width="65" stroke-dasharray="none" height="74" stroke="none"/>
            <rect x="996" y="502" clip-path="url(#clipPath1)" fill="none" width="65" stroke-dasharray="none" height="74" stroke="black"/>
            <rect x="1061" y="531" clip-path="url(#clipPath1)" fill="rgb(31,119,180)" width="66" stroke-dasharray="none" height="45" stroke="none"/>
            <rect x="1061" y="531" clip-path="url(#clipPath1)" fill="none" width="66" stroke-dasharray="none" height="45" stroke="black"/>
            <line clip-path="url(#clipPath1)" fill="none" x1="1127" x2="1192" y1="576" y2="576" stroke-dasharray="none" stroke="black"/>
            <line clip-path="url(#clipPath1)" fill="none" x1="1192" x2="1257" y1="576" y2="576" stroke-dasharray="none" stroke="black"/>
            <line clip-path="url(#clipPath1)" fill="none" x1="1257" x2="1323" y1="576" y2="576" stroke-dasharray="none" stroke="black"/>
            <rect x="28" y="45" clip-path="url(#clipPath2)" fill="none" width="1413" stroke-dasharray="none" height="531" stroke="black"/>
        </g>
        <g text-rendering="optimizeLegibility" font-size="16" font-family="'Arial'" stroke-linecap="butt">
            <text xml:space="preserve" x="648" y="15" clip-path="url(#clipPath2)" stroke="none">hop count in FD_PMAC</text>
            <rect x="1272" y="50" clip-path="url(#clipPath3)" fill="white" width="164" opacity="0.7529" height="26" stroke="none"/>
            <polygon fill="rgb(31,119,180)" clip-path="url(#clipPath3)" points=" 1281 59 1281 67 1289 67 1289 59" stroke="none"/>
            <text x="1294" font-size="13" y="67" clip-path="url(#clipPath3)" stroke="none" xml:space="preserve">hop count in FD_PMAC</text>
            <line clip-path="url(#clipPath2)" fill="none" x1="28" x2="1441" y1="43" y2="43"/>
            <line clip-path="url(#clipPath2)" fill="none" x1="28" x2="1441" y1="578" y2="578"/>
            <line clip-path="url(#clipPath2)" fill="none" x1="28" x2="28" y1="41" y2="43"/>
            <line clip-path="url(#clipPath2)" fill="none" x1="28" x2="28" y1="580" y2="578"/>
            <line clip-path="url(#clipPath2)" fill="none" x1="41" x2="41" y1="41" y2="43"/>
            <line clip-path="url(#clipPath2)" fill="none" x1="41" x2="41" y1="580" y2="578"/>
            <line clip-path="url(#clipPath2)" fill="none" x1="54" x2="54" y1="41" y2="43"/>
            <line clip-path="url(#clipPath2)" fill="none" x1="54" x2="54" y1="580" y2="578"/>
            <line clip-path="url(#clipPath2)" fill="none" x1="67" x2="67" y1="41" y2="43"/>
            <line clip-path="url(#clipPath2)" fill="none" x1="67" x2="67" y1="580" y2="578"/>
            <line clip-path="url(#clipPath2)" fill="none" x1="80" x2="80" y1="39" y2="43"/>
            <line clip-path="url(#clipPath2)" fill="none" x1="80" x2="80" y1="582" y2="578"/>
            <text x="75" font-size="13" y="35" clip-path="url(#clipPath2)" stroke="none" xml:space="preserve">-1</text>
            <text x="75" font-size="13" y="595" clip-path="url(#clipPath2)" stroke="none" xml:space="preserve">-1</text>
            <line clip-path="url(#clipPath2)" fill="none" x1="93" x2="93" y1="41" y2="43"/>
            <line clip-path="url(#clipPath2)" fill="none" x1="93" x2="93" y1="580" y2="578"/>
            <line clip-path="url(#clipPath2)" fill="none" x1="106" x2="106" y1="41" y2="43"/>
            <line clip-path="url(#clipPath2)" fill="none" x1="106" x2="106" y1="580" y2="578"/>
            <line clip-path="url(#clipPath2)" fill="none" x1="119" x2="119" y1="41" y2="43"/>
            <line clip-path="url(#clipPath2)" fill="none" x1="119" x2="119" y1="580" y2="578"/>
            <line clip-path="url(#clipPath2)" fill="none" x1="132" x2="132" y1="41" y2="43"/>
            <line clip-path="url(#clipPath2)" fill="none" x1="132" x2="132" y1="580" y2="578"/>
            <line clip-path="url(#clipPath2)" fill="none" x1="145" x2="145" y1="39" y2="43"/>
            <line clip-path="url(#clipPath2)" fill="none" x1="145" x2="145" y1="582" y2="578"/>
            <text x="142" font-size="13" y="35" clip-path="url(#clipPath2)" stroke="none" xml:space="preserve">0</text>
            <text x="142" font-size="13" y="595" clip-path="url(#clipPath2)" stroke="none" xml:space="preserve">0</text>
            <line clip-path="url(#clipPath2)" fill="none" x1="158" x2="158" y1="41" y2="43"/>
            <line clip-path="url(#clipPath2)" fill="none" x1="158" x2="158" y1="580" y2="578"/>
            <line clip-path="url(#clipPath2)" fill="none" x1="171" x2="171" y1="41" y2="43"/>
            <line clip-path="url(#clipPath2)" fill="none" x1="171" x2="171" y1="580" y2="578"/>
            <line clip-path="url(#clipPath2)" fill="none" x1="184" x2="184" y1="41" y2="43"/>
            <line clip-path="url(#clipPath2)" fill="none" x1="184" x2="184" y1="580" y2="578"/>
            <line clip-path="url(#clipPath2)" fill="none" x1="198" x2="198" y1="41" y2="43"/>
            <line clip-path="url(#clipPath2)" fill="none" x1="198" x2="198" y1="580" y2="578"/>
            <line clip-path="url(#clipPath2)" fill="none" x1="211" x2="211" y1="39" y2="43"/>
            <line clip-path="url(#clipPath2)" fill="none" x1="211" x2="211" y1="582" y2="578"/>
            <text x="208" font-size="13" y="35" clip-path="url(#clipPath2)" stroke="none" xml:space="preserve">1</text>
            <text x="208" font-size="13" y="595" clip-path="url(#clipPath2)" stroke="none" xml:space="preserve">1</text>
            <line clip-path="url(#clipPath2)" fill="none" x1="224" x2="224" y1="41" y2="43"/>
            <line clip-path="url(#clipPath2)" fill="none" x1="224" x2="224" y1="580" y2="578"/>
            <line clip-path="url(#clipPath2)" fill="none" x1="237" x2="237" y1="41" y2="43"/>
            <line clip-path="url(#clipPath2)" fill="none" x1="237" x2="237" y1="580" y2="578"/>
            <line clip-path="url(#clipPath2)" fill="none" x1="250" x2="250" y1="41" y2="43"/>
            <line clip-path="url(#clipPath2)" fill="none" x1="250" x2="250" y1="580" y2="578"/>
            <line clip-path="url(#clipPath2)" fill="none" x1="263" x2="263" y1="41" y2="43"/>
            <line clip-path="url(#clipPath2)" fill="none" x1="263" x2="263" y1="580" y2="578"/>
            <line clip-path="url(#clipPath2)" fill="none" x1="276" x2="276" y1="39" y2="43"/>
            <line clip-path="url(#clipPath2)" fill="none" x1="276" x2="276" y1="582" y2="578"/>
            <text x="273" font-size="13" y="35" clip-path="url(#clipPath2)" stroke="none" xml:space="preserve">2</text>
            <text x="273" font-size="13" y="595" clip-path="url(#clipPath2)" stroke="none" xml:space="preserve">2</text>
            <line clip-path="url(#clipPath2)" fill="none" x1="289" x2="289" y1="41" y2="43"/>
            <line clip-path="url(#clipPath2)" fill="none" x1="289" x2="289" y1="580" y2="578"/>
            <line clip-path="url(#clipPath2)" fill="none" x1="302" x2="302" y1="41" y2="43"/>
            <line clip-path="url(#clipPath2)" fill="none" x1="302" x2="302" y1="580" y2="578"/>
            <line clip-path="url(#clipPath2)" fill="none" x1="315" x2="315" y1="41" y2="43"/>
            <line clip-path="url(#clipPath2)" fill="none" x1="315" x2="315" y1="580" y2="578"/>
            <line clip-path="url(#clipPath2)" fill="none" x1="328" x2="328" y1="41" y2="43"/>
            <line clip-path="url(#clipPath2)" fill="none" x1="328" x2="328" y1="580" y2="578"/>
            <line clip-path="url(#clipPath2)" fill="none" x1="341" x2="341" y1="39" y2="43"/>
            <line clip-path="url(#clipPath2)" fill="none" x1="341" x2="341" y1="582" y2="578"/>
            <text x="338" font-size="13" y="35" clip-path="url(#clipPath2)" stroke="none" xml:space="preserve">3</text>
            <text x="338" font-size="13" y="595" clip-path="url(#clipPath2)" stroke="none" xml:space="preserve">3</text>
            <line clip-path="url(#clipPath2)" fill="none" x1="355" x2="355" y1="41" y2="43"/>
            <line clip-path="url(#clipPath2)" fill="none" x1="355" x2="355" y1="580" y2="578"/>
            <line clip-path="url(#clipPath2)" fill="none" x1="368" x2="368" y1="41" y2="43"/>
            <line clip-path="url(#clipPath2)" fill="none" x1="368" x2="368" y1="580" y2="578"/>
            <line clip-path="url(#clipPath2)" fill="none" x1="381" x2="381" y1="41" y2="43"/>
            <line clip-path="url(#clipPath2)" fill="none" x1="381" x2="381" y1="580" y2="578"/>
            <line clip-path="url(#clipPath2)" fill="none" x1="394" x2="394" y1="41" y2="43"/>
            <line clip-path="url(#clipPath2)" fill="none" x1="394" x2="394" y1="580" y2="578"/>
            <line clip-path="url(#clipPath2)" fill="none" x1="407" x2="407" y1="39" y2="43"/>
            <line clip-path="url(#clipPath2)" fill="none" x1="407" x2="407" y1="582" y2="578"/>
            <text x="404" font-size="13" y="35" clip-path="url(#clipPath2)" stroke="none" xml:space="preserve">4</text>
            <text x="404" font-size="13" y="595" clip-path="url(#clipPath2)" stroke="none" xml:space="preserve">4</text>
            <line clip-path="url(#clipPath2)" fill="none" x1="420" x2="420" y1="41" y2="43"/>
            <line clip-path="url(#clipPath2)" fill="none" x1="420" x2="420" y1="580" y2="578"/>
            <line clip-path="url(#clipPath2)" fill="none" x1="433" x2="433" y1="41" y2="43"/>
            <line clip-path="url(#clipPath2)" fill="none" x1="433" x2="433" y1="580" y2="578"/>
            <line clip-path="url(#clipPath2)" fill="none" x1="446" x2="446" y1="41" y2="43"/>
            <line clip-path="url(#clipPath2)" fill="none" x1="446" x2="446" y1="580" y2="578"/>
            <line clip-path="url(#clipPath2)" fill="none" x1="459" x2="459" y1="41" y2="43"/>
            <line clip-path="url(#clipPath2)" fill="none" x1="459" x2="459" y1="580" y2="578"/>
            <line clip-path="url(#clipPath2)" fill="none" x1="472" x2="472" y1="39" y2="43"/>
            <line clip-path="url(#clipPath2)" fill="none" x1="472" x2="472" y1="582" y2="578"/>
            <text x="469" font-size="13" y="35" clip-path="url(#clipPath2)" stroke="none" xml:space="preserve">5</text>
            <text x="469" font-size="13" y="595" clip-path="url(#clipPath2)" stroke="none" xml:space="preserve">5</text>
            <line clip-path="url(#clipPath2)" fill="none" x1="485" x2="485" y1="41" y2="43"/>
            <line clip-path="url(#clipPath2)" fill="none" x1="485" x2="485" y1="580" y2="578"/>
            <line clip-path="url(#clipPath2)" fill="none" x1="498" x2="498" y1="41" y2="43"/>
            <line clip-path="url(#clipPath2)" fill="none" x1="498" x2="498" y1="580" y2="578"/>
            <line clip-path="url(#clipPath2)" fill="none" x1="512" x2="512" y1="41" y2="43"/>
            <line clip-path="url(#clipPath2)" fill="none" x1="512" x2="512" y1="580" y2="578"/>
            <line clip-path="url(#clipPath2)" fill="none" x1="525" x2="525" y1="41" y2="43"/>
            <line clip-path="url(#clipPath2)" fill="none" x1="525" x2="525" y1="580" y2="578"/>
            <line clip-path="url(#clipPath2)" fill="none" x1="538" x2="538" y1="39" y2="43"/>
            <line clip-path="url(#clipPath2)" fill="none" x1="538" x2="538" y1="582" y2="578"/>
            <text x="535" font-size="13" y="35" clip-path="url(#clipPath2)" stroke="none" xml:space="preserve">6</text>
            <text x="535" font-size="13" y="595" clip-path="url(#clipPath2)" stroke="none" xml:space="preserve">6</text>
            <line clip-path="url(#clipPath2)" fill="none" x1="551" x2="551" y1="41" y2="43"/>
            <line clip-path="url(#clipPath2)" fill="none" x1="551" x2="551" y1="580" y2="578"/>
            <line clip-path="url(#clipPath2)" fill="none" x1="564" x2="564" y1="41" y2="43"/>
            <line clip-path="url(#clipPath2)" fill="none" x1="564" x2="564" y1="580" y2="578"/>
            <line clip-path="url(#clipPath2)" fill="none" x1="577" x2="577" y1="41" y2="43"/>
            <line clip-path="url(#clipPath2)" fill="none" x1="577" x2="577" y1="580" y2="578"/>
            <line clip-path="url(#clipPath2)" fill="none" x1="590" x2="590" y1="41" y2="43"/>
            <line clip-path="url(#clipPath2)" fill="none" x1="590" x2="590" y1="580" y2="578"/>
            <line clip-path="url(#clipPath2)" fill="none" x1="603" x2="603" y1="39" y2="43"/>
            <line clip-path="url(#clipPath2)" fill="none" x1="603" x2="603" y1="582" y2="578"/>
            <text x="600" font-size="13" y="35" clip-path="url(#clipPath2)" stroke="none" xml:space="preserve">7</text>
            <text x="600" font-size="13" y="595" clip-path="url(#clipPath2)" stroke="none" xml:space="preserve">7</text>
            <line clip-path="url(#clipPath2)" fill="none" x1="616" x2="616" y1="41" y2="43"/>
            <line clip-path="url(#clipPath2)" fill="none" x1="616" x2="616" y1="580" y2="578"/>
            <line clip-path="url(#clipPath2)" fill="none" x1="629" x2="629" y1="41" y2="43"/>
            <line clip-path="url(#clipPath2)" fill="none" x1="629" x2="629" y1="580" y2="578"/>
            <line clip-path="url(#clipPath2)" fill="none" x1="642" x2="642" y1="41" y2="43"/>
            <line clip-path="url(#clipPath2)" fill="none" x1="642" x2="642" y1="580" y2="578"/>
            <line clip-path="url(#clipPath2)" fill="none" x1="655" x2="655" y1="41" y2="43"/>
            <line clip-path="url(#clipPath2)" fill="none" x1="655" x2="655" y1="580" y2="578"/>
            <line clip-path="url(#clipPath2)" fill="none" x1="669" x2="669" y1="39" y2="43"/>
            <line clip-path="url(#clipPath2)" fill="none" x1="669" x2="669" y1="582" y2="578"/>
            <text x="666" font-size="13" y="35" clip-path="url(#clipPath2)" stroke="none" xml:space="preserve">8</text>
            <text x="666" font-size="13" y="595" clip-path="url(#clipPath2)" stroke="none" xml:space="preserve">8</text>
            <line clip-path="url(#clipPath2)" fill="none" x1="682" x2="682" y1="41" y2="43"/>
            <line clip-path="url(#clipPath2)" fill="none" x1="682" x2="682" y1="580" y2="578"/>
            <line clip-path="url(#clipPath2)" fill="none" x1="695" x2="695" y1="41" y2="43"/>
            <line clip-path="url(#clipPath2)" fill="none" x1="695" x2="695" y1="580" y2="578"/>
            <line clip-path="url(#clipPath2)" fill="none" x1="708" x2="708" y1="41" y2="43"/>
            <line clip-path="url(#clipPath2)" fill="none" x1="708" x2="708" y1="580" y2="578"/>
            <line clip-path="url(#clipPath2)" fill="none" x1="721" x2="721" y1="41" y2="43"/>
            <line clip-path="url(#clipPath2)" fill="none" x1="721" x2="721" y1="580" y2="578"/>
            <line clip-path="url(#clipPath2)" fill="none" x1="734" x2="734" y1="39" y2="43"/>
            <line clip-path="url(#clipPath2)" fill="none" x1="734" x2="734" y1="582" y2="578"/>
            <text x="731" font-size="13" y="35" clip-path="url(#clipPath2)" stroke="none" xml:space="preserve">9</text>
            <text x="731" font-size="13" y="595" clip-path="url(#clipPath2)" stroke="none" xml:space="preserve">9</text>
            <line clip-path="url(#clipPath2)" fill="none" x1="747" x2="747" y1="41" y2="43"/>
            <line clip-path="url(#clipPath2)" fill="none" x1="747" x2="747" y1="580" y2="578"/>
            <line clip-path="url(#clipPath2)" fill="none" x1="760" x2="760" y1="41" y2="43"/>
            <line clip-path="url(#clipPath2)" fill="none" x1="760" x2="760" y1="580" y2="578"/>
            <line clip-path="url(#clipPath2)" fill="none" x1="773" x2="773" y1="41" y2="43"/>
            <line clip-path="url(#clipPath2)" fill="none" x1="773" x2="773" y1="580" y2="578"/>
            <line clip-path="url(#clipPath2)" fill="none" x1="786" x2="786" y1="41" y2="43"/>
            <line clip-path="url(#clipPath2)" fill="none" x1="786" x2="786" y1="580" y2="578"/>
            <line clip-path="url(#clipPath2)" fill="none" x1="799" x2="799" y1="39" y2="43"/>
            <line clip-path="url(#clipPath2)" fill="none" x1="799" x2="799" y1="582" y2="578"/>
            <text x="793" font-size="13" y="35" clip-path="url(#clipPath2)" stroke="none" xml:space="preserve">10</text>
            <text x="793" font-size="13" y="595" clip-path="url(#clipPath2)" stroke="none" xml:space="preserve">10</text>
            <line clip-path="url(#clipPath2)" fill="none" x1="812" x2="812" y1="41" y2="43"/>
            <line clip-path="url(#clipPath2)" fill="none" x1="812" x2="812" y1="580" y2="578"/>
            <line clip-path="url(#clipPath2)" fill="none" x1="826" x2="826" y1="41" y2="43"/>
            <line clip-path="url(#clipPath2)" fill="none" x1="826" x2="826" y1="580" y2="578"/>
            <line clip-path="url(#clipPath2)" fill="none" x1="839" x2="839" y1="41" y2="43"/>
            <line clip-path="url(#clipPath2)" fill="none" x1="839" x2="839" y1="580" y2="578"/>
            <line clip-path="url(#clipPath2)" fill="none" x1="852" x2="852" y1="41" y2="43"/>
            <line clip-path="url(#clipPath2)" fill="none" x1="852" x2="852" y1="580" y2="578"/>
            <line clip-path="url(#clipPath2)" fill="none" x1="865" x2="865" y1="39" y2="43"/>
            <line clip-path="url(#clipPath2)" fill="none" x1="865" x2="865" y1="582" y2="578"/>
            <text x="859" font-size="13" y="35" clip-path="url(#clipPath2)" stroke="none" xml:space="preserve">11</text>
            <text x="859" font-size="13" y="595" clip-path="url(#clipPath2)" stroke="none" xml:space="preserve">11</text>
            <line clip-path="url(#clipPath2)" fill="none" x1="878" x2="878" y1="41" y2="43"/>
            <line clip-path="url(#clipPath2)" fill="none" x1="878" x2="878" y1="580" y2="578"/>
            <line clip-path="url(#clipPath2)" fill="none" x1="891" x2="891" y1="41" y2="43"/>
            <line clip-path="url(#clipPath2)" fill="none" x1="891" x2="891" y1="580" y2="578"/>
            <line clip-path="url(#clipPath2)" fill="none" x1="904" x2="904" y1="41" y2="43"/>
            <line clip-path="url(#clipPath2)" fill="none" x1="904" x2="904" y1="580" y2="578"/>
            <line clip-path="url(#clipPath2)" fill="none" x1="917" x2="917" y1="41" y2="43"/>
            <line clip-path="url(#clipPath2)" fill="none" x1="917" x2="917" y1="580" y2="578"/>
            <line clip-path="url(#clipPath2)" fill="none" x1="930" x2="930" y1="39" y2="43"/>
            <line clip-path="url(#clipPath2)" fill="none" x1="930" x2="930" y1="582" y2="578"/>
            <text x="924" font-size="13" y="35" clip-path="url(#clipPath2)" stroke="none" xml:space="preserve">12</text>
            <text x="924" font-size="13" y="595" clip-path="url(#clipPath2)" stroke="none" xml:space="preserve">12</text>
            <line clip-path="url(#clipPath2)" fill="none" x1="943" x2="943" y1="41" y2="43"/>
            <line clip-path="url(#clipPath2)" fill="none" x1="943" x2="943" y1="580" y2="578"/>
            <line clip-path="url(#clipPath2)" fill="none" x1="956" x2="956" y1="41" y2="43"/>
            <line clip-path="url(#clipPath2)" fill="none" x1="956" x2="956" y1="580" y2="578"/>
            <line clip-path="url(#clipPath2)" fill="none" x1="969" x2="969" y1="41" y2="43"/>
            <line clip-path="url(#clipPath2)" fill="none" x1="969" x2="969" y1="580" y2="578"/>
            <line clip-path="url(#clipPath2)" fill="none" x1="983" x2="983" y1="41" y2="43"/>
            <line clip-path="url(#clipPath2)" fill="none" x1="983" x2="983" y1="580" y2="578"/>
            <line clip-path="url(#clipPath2)" fill="none" x1="996" x2="996" y1="39" y2="43"/>
            <line clip-path="url(#clipPath2)" fill="none" x1="996" x2="996" y1="582" y2="578"/>
            <text x="990" font-size="13" y="35" clip-path="url(#clipPath2)" stroke="none" xml:space="preserve">13</text>
            <text x="990" font-size="13" y="595" clip-path="url(#clipPath2)" stroke="none" xml:space="preserve">13</text>
            <line clip-path="url(#clipPath2)" fill="none" x1="1009" x2="1009" y1="41" y2="43"/>
            <line clip-path="url(#clipPath2)" fill="none" x1="1009" x2="1009" y1="580" y2="578"/>
            <line clip-path="url(#clipPath2)" fill="none" x1="1022" x2="1022" y1="41" y2="43"/>
            <line clip-path="url(#clipPath2)" fill="none" x1="1022" x2="1022" y1="580" y2="578"/>
            <line clip-path="url(#clipPath2)" fill="none" x1="1035" x2="1035" y1="41" y2="43"/>
            <line clip-path="url(#clipPath2)" fill="none" x1="1035" x2="1035" y1="580" y2="578"/>
            <line clip-path="url(#clipPath2)" fill="none" x1="1048" x2="1048" y1="41" y2="43"/>
            <line clip-path="url(#clipPath2)" fill="none" x1="1048" x2="1048" y1="580" y2="578"/>
            <line clip-path="url(#clipPath2)" fill="none" x1="1061" x2="1061" y1="39" y2="43"/>
            <line clip-path="url(#clipPath2)" fill="none" x1="1061" x2="1061" y1="582" y2="578"/>
            <text x="1055" font-size="13" y="35" clip-path="url(#clipPath2)" stroke="none" xml:space="preserve">14</text>
            <text x="1055" font-size="13" y="595" clip-path="url(#clipPath2)" stroke="none" xml:space="preserve">14</text>
            <line clip-path="url(#clipPath2)" fill="none" x1="1074" x2="1074" y1="41" y2="43"/>
            <line clip-path="url(#clipPath2)" fill="none" x1="1074" x2="1074" y1="580" y2="578"/>
            <line clip-path="url(#clipPath2)" fill="none" x1="1087" x2="1087" y1="41" y2="43"/>
            <line clip-path="url(#clipPath2)" fill="none" x1="1087" x2="1087" y1="580" y2="578"/>
            <line clip-path="url(#clipPath2)" fill="none" x1="1100" x2="1100" y1="41" y2="43"/>
            <line clip-path="url(#clipPath2)" fill="none" x1="1100" x2="1100" y1="580" y2="578"/>
            <line clip-path="url(#clipPath2)" fill="none" x1="1113" x2="1113" y1="41" y2="43"/>
            <line clip-path="url(#clipPath2)" fill="none" x1="1113" x2="1113" y1="580" y2="578"/>
            <line clip-path="url(#clipPath2)" fill="none" x1="1127" x2="1127" y1="39" y2="43"/>
            <line clip-path="url(#clipPath2)" fill="none" x1="1127" x2="1127" y1="582" y2="578"/>
            <text x="1121" font-size="13" y="35" clip-path="url(#clipPath2)" stroke="none" xml:space="preserve">15</text>
            <text x="1121" font-size="13" y="595" clip-path="url(#clipPath2)" stroke="none" xml:space="preserve">15</text>
            <line clip-path="url(#clipPath2)" fill="none" x1="1140" x2="1140" y1="41" y2="43"/>
            <line clip-path="url(#clipPath2)" fill="none" x1="1140" x2="1140" y1="580" y2="578"/>
            <line clip-path="url(#clipPath2)" fill="none" x1="1153" x2="1153" y1="41" y2="43"/>
            <line clip-path="url(#clipPath2)" fill="none" x1="1153" x2="1153" y1="580" y2="578"/>
            <line clip-path="url(#clipPath2)" fill="none" x1="1166" x2="1166" y1="41" y2="43"/>
            <line clip-path="url(#clipPath2)" fill="none" x1="1166" x2="1166" y1="580" y2="578"/>
            <line clip-path="url(#clipPath2)" fill="none" x1="1179" x2="1179" y1="41" y2="43"/>
            <line clip-path="url(#clipPath2)" fill="none" x1="1179" x2="1179" y1="580" y2="578"/>
            <line clip-path="url(#clipPath2)" fill="none" x1="1192" x2="1192" y1="39" y2="43"/>
            <line clip-path="url(#clipPath2)" fill="none" x1="1192" x2="1192" y1="582" y2="578"/>
            <text x="1186" font-size="13" y="35" clip-path="url(#clipPath2)" stroke="none" xml:space="preserve">16</text>
            <text x="1186" font-size="13" y="595" clip-path="url(#clipPath2)" stroke="none" xml:space="preserve">16</text>
            <line clip-path="url(#clipPath2)" fill="none" x1="1205" x2="1205" y1="41" y2="43"/>
            <line clip-path="url(#clipPath2)" fill="none" x1="1205" x2="1205" y1="580" y2="578"/>
            <line clip-path="url(#clipPath2)" fill="none" x1="1218" x2="1218" y1="41" y2="43"/>
            <line clip-path="url(#clipPath2)" fill="none" x1="1218" x2="1218" y1="580" y2="578"/>
            <line clip-path="url(#clipPath2)" fill="none" x1="1231" x2="1231" y1="41" y2="43"/>
            <line clip-path="url(#clipPath2)" fill="none" x1="1231" x2="1231" y1="580" y2="578"/>
            <line clip-path="url(#clipPath2)" fill="none" x1="1244" x2="1244" y1="41" y2="43"/>
            <line clip-path="url(#clipPath2)" fill="none" x1="1244" x2="1244" y1="580" y2="578"/>
            <line clip-path="url(#clipPath2)" fill="none" x1="1257" x2="1257" y1="39" y2="43"/>
            <line clip-path="url(#clipPath2)" fill="none" x1="1257" x2="1257" y1="582" y2="578"/>
            <text x="1251" font-size="13" y="35" clip-path="url(#clipPath2)" stroke="none" xml:space="preserve">17</text>
            <text x="1251" font-size="13" y="595" clip-path="url(#clipPath2)" stroke="none" xml:space="preserve">17</text>
            <line clip-path="url(#clipPath2)" fill="none" x1="1270" x2="1270" y1="41" y2="43"/>
            <line clip-path="url(#clipPath2)" fill="none" x1="1270" x2="1270" y1="580" y2="578"/>
            <line clip-path="url(#clipPath2)" fill="none" x1="1283" x2="1283" y1="41" y2="43"/>
            <line clip-path="url(#clipPath2)" fill="none" x1="1283" x2="1283" y1="580" y2="578"/>
            <line clip-path="url(#clipPath2)" fill="none" x1="1297" x2="1297" y1="41" y2="43"/>
            <line clip-path="url(#clipPath2)" fill="none" x1="1297" x2="1297" y1="580" y2="578"/>
            <line clip-path="url(#clipPath2)" fill="none" x1="1310" x2="1310" y1="41" y2="43"/>
            <line clip-path="url(#clipPath2)" fill="none" x1="1310" x2="1310" y1="580" y2="578"/>
            <line clip-path="url(#clipPath2)" fill="none" x1="1323" x2="1323" y1="39" y2="43"/>
            <line clip-path="url(#clipPath2)" fill="none" x1="1323" x2="1323" y1="582" y2="578"/>
            <text x="1317" font-size="13" y="35" clip-path="url(#clipPath2)" stroke="none" xml:space="preserve">18</text>
            <text x="1317" font-size="13" y="595" clip-path="url(#clipPath2)" stroke="none" xml:space="preserve">18</text>
            <line clip-path="url(#clipPath2)" fill="none" x1="1336" x2="1336" y1="41" y2="43"/>
            <line clip-path="url(#clipPath2)" fill="none" x1="1336" x2="1336" y1="580" y2="578"/>
            <line clip-path="url(#clipPath2)" fill="none" x1="1349" x2="1349" y1="41" y2="43"/>
            <line clip-path="url(#clipPath2)" fill="none" x1="1349" x2="1349" y1="580" y2="578"/>
            <line clip-path="url(#clipPath2)" fill="none" x1="1362" x2="1362" y1="41" y2="43"/>
            <line clip-path="url(#clipPath2)" fill="none" x1="1362" x2="1362" y1="580" y2="578"/>
            <line clip-path="url(#clipPath2)" fill="none" x1="1375" x2="1375" y1="41" y2="43"/>
            <line clip-path="url(#clipPath2)" fill="none" x1="1375" x2="1375" y1="580" y2="578"/>
            <line clip-path="url(#clipPath2)" fill="none" x1="1388" x2="1388" y1="39" y2="43"/>
            <line clip-path="url(#clipPath2)" fill="none" x1="1388" x2="1388" y1="582" y2="578"/>
            <text x="1382" font-size="13" y="35" clip-path="url(#clipPath2)" stroke="none" xml:space="preserve">19</text>
            <text x="1382" font-size="13" y="595" clip-path="url(#clipPath2)" stroke="none" xml:space="preserve">19</text>
            <line clip-path="url(#clipPath2)" fill="none" x1="1401" x2="1401" y1="41" y2="43"/>
            <line clip-path="url(#clipPath2)" fill="none" x1="1401" x2="1401" y1="580" y2="578"/>
            <line clip-path="url(#clipPath2)" fill="none" x1="1414" x2="1414" y1="41" y2="43"/>
            <line clip-path="url(#clipPath2)" fill="none" x1="1414" x2="1414" y1="580" y2="578"/>
            <line clip-path="url(#clipPath2)" fill="none" x1="1427" x2="1427" y1="41" y2="43"/>
            <line clip-path="url(#clipPath2)" fill="none" x1="1427" x2="1427" y1="580" y2="578"/>
            <line clip-path="url(#clipPath2)" fill="none" x1="1441" x2="1441" y1="41" y2="43"/>
            <line clip-path="url(#clipPath2)" fill="none" x1="1441" x2="1441" y1="580" y2="578"/>
            <line clip-path="url(#clipPath2)" fill="none" x1="26" x2="26" y1="45" y2="576"/>
            <line clip-path="url(#clipPath2)" fill="none" x1="1443" x2="1443" y1="45" y2="576"/>
            <line clip-path="url(#clipPath2)" fill="none" x1="22" x2="26" y1="576" y2="576"/>
            <line clip-path="url(#clipPath2)" fill="none" x1="1447" x2="1443" y1="576" y2="576"/>
            <text x="13" font-size="13" y="581" clip-path="url(#clipPath2)" stroke="none" xml:space="preserve">0</text>
            <text x="1450" font-size="13" y="581" clip-path="url(#clipPath2)" stroke="none" xml:space="preserve">0</text>
            <line clip-path="url(#clipPath2)" fill="none" x1="24" x2="26" y1="561" y2="561"/>
            <line clip-path="url(#clipPath2)" fill="none" x1="1445" x2="1443" y1="561" y2="561"/>
            <line clip-path="url(#clipPath2)" fill="none" x1="24" x2="26" y1="546" y2="546"/>
            <line clip-path="url(#clipPath2)" fill="none" x1="1445" x2="1443" y1="546" y2="546"/>
            <line clip-path="url(#clipPath2)" fill="none" x1="24" x2="26" y1="531" y2="531"/>
            <line clip-path="url(#clipPath2)" fill="none" x1="1445" x2="1443" y1="531" y2="531"/>
            <line clip-path="url(#clipPath2)" fill="none" x1="24" x2="26" y1="517" y2="517"/>
            <line clip-path="url(#clipPath2)" fill="none" x1="1445" x2="1443" y1="517" y2="517"/>
            <line clip-path="url(#clipPath2)" fill="none" x1="22" x2="26" y1="502" y2="502"/>
            <line clip-path="url(#clipPath2)" fill="none" x1="1447" x2="1443" y1="502" y2="502"/>
            <text x="13" font-size="13" y="507" clip-path="url(#clipPath2)" stroke="none" xml:space="preserve">5</text>
            <text x="1450" font-size="13" y="507" clip-path="url(#clipPath2)" stroke="none" xml:space="preserve">5</text>
            <line clip-path="url(#clipPath2)" fill="none" x1="24" x2="26" y1="487" y2="487"/>
            <line clip-path="url(#clipPath2)" fill="none" x1="1445" x2="1443" y1="487" y2="487"/>
            <line clip-path="url(#clipPath2)" fill="none" x1="24" x2="26" y1="472" y2="472"/>
            <line clip-path="url(#clipPath2)" fill="none" x1="1445" x2="1443" y1="472" y2="472"/>
            <line clip-path="url(#clipPath2)" fill="none" x1="24" x2="26" y1="458" y2="458"/>
            <line clip-path="url(#clipPath2)" fill="none" x1="1445" x2="1443" y1="458" y2="458"/>
            <line clip-path="url(#clipPath2)" fill="none" x1="24" x2="26" y1="443" y2="443"/>
            <line clip-path="url(#clipPath2)" fill="none" x1="1445" x2="1443" y1="443" y2="443"/>
            <line clip-path="url(#clipPath2)" fill="none" x1="22" x2="26" y1="428" y2="428"/>
            <line clip-path="url(#clipPath2)" fill="none" x1="1447" x2="1443" y1="428" y2="428"/>
            <text x="6" font-size="13" y="433" clip-path="url(#clipPath2)" stroke="none" xml:space="preserve">10</text>
            <text x="1450" font-size="13" y="433" clip-path="url(#clipPath2)" stroke="none" xml:space="preserve">10</text>
            <line clip-path="url(#clipPath2)" fill="none" x1="24" x2="26" y1="413" y2="413"/>
            <line clip-path="url(#clipPath2)" fill="none" x1="1445" x2="1443" y1="413" y2="413"/>
            <line clip-path="url(#clipPath2)" fill="none" x1="24" x2="26" y1="399" y2="399"/>
            <line clip-path="url(#clipPath2)" fill="none" x1="1445" x2="1443" y1="399" y2="399"/>
            <line clip-path="url(#clipPath2)" fill="none" x1="24" x2="26" y1="384" y2="384"/>
            <line clip-path="url(#clipPath2)" fill="none" x1="1445" x2="1443" y1="384" y2="384"/>
            <line clip-path="url(#clipPath2)" fill="none" x1="24" x2="26" y1="369" y2="369"/>
            <line clip-path="url(#clipPath2)" fill="none" x1="1445" x2="1443" y1="369" y2="369"/>
            <line clip-path="url(#clipPath2)" fill="none" x1="22" x2="26" y1="354" y2="354"/>
            <line clip-path="url(#clipPath2)" fill="none" x1="1447" x2="1443" y1="354" y2="354"/>
            <text x="6" font-size="13" y="359" clip-path="url(#clipPath2)" stroke="none" xml:space="preserve">15</text>
            <text x="1450" font-size="13" y="359" clip-path="url(#clipPath2)" stroke="none" xml:space="preserve">15</text>
            <line clip-path="url(#clipPath2)" fill="none" x1="24" x2="26" y1="340" y2="340"/>
            <line clip-path="url(#clipPath2)" fill="none" x1="1445" x2="1443" y1="340" y2="340"/>
            <line clip-path="url(#clipPath2)" fill="none" x1="24" x2="26" y1="325" y2="325"/>
            <line clip-path="url(#clipPath2)" fill="none" x1="1445" x2="1443" y1="325" y2="325"/>
            <line clip-path="url(#clipPath2)" fill="none" x1="24" x2="26" y1="310" y2="310"/>
            <line clip-path="url(#clipPath2)" fill="none" x1="1445" x2="1443" y1="310" y2="310"/>
            <line clip-path="url(#clipPath2)" fill="none" x1="24" x2="26" y1="295" y2="295"/>
            <line clip-path="url(#clipPath2)" fill="none" x1="1445" x2="1443" y1="295" y2="295"/>
            <line clip-path="url(#clipPath2)" fill="none" x1="22" x2="26" y1="281" y2="281"/>
            <line clip-path="url(#clipPath2)" fill="none" x1="1447" x2="1443" y1="281" y2="281"/>
            <text x="6" font-size="13" y="286" clip-path="url(#clipPath2)" stroke="none" xml:space="preserve">20</text>
            <text x="1450" font-size="13" y="286" clip-path="url(#clipPath2)" stroke="none" xml:space="preserve">20</text>
            <line clip-path="url(#clipPath2)" fill="none" x1="24" x2="26" y1="266" y2="266"/>
            <line clip-path="url(#clipPath2)" fill="none" x1="1445" x2="1443" y1="266" y2="266"/>
            <line clip-path="url(#clipPath2)" fill="none" x1="24" x2="26" y1="251" y2="251"/>
            <line clip-path="url(#clipPath2)" fill="none" x1="1445" x2="1443" y1="251" y2="251"/>
            <line clip-path="url(#clipPath2)" fill="none" x1="24" x2="26" y1="236" y2="236"/>
            <line clip-path="url(#clipPath2)" fill="none" x1="1445" x2="1443" y1="236" y2="236"/>
            <line clip-path="url(#clipPath2)" fill="none" x1="24" x2="26" y1="222" y2="222"/>
            <line clip-path="url(#clipPath2)" fill="none" x1="1445" x2="1443" y1="222" y2="222"/>
            <line clip-path="url(#clipPath2)" fill="none" x1="22" x2="26" y1="207" y2="207"/>
            <line clip-path="url(#clipPath2)" fill="none" x1="1447" x2="1443" y1="207" y2="207"/>
            <text x="6" font-size="13" y="212" clip-path="url(#clipPath2)" stroke="none" xml:space="preserve">25</text>
            <text x="1450" font-size="13" y="212" clip-path="url(#clipPath2)" stroke="none" xml:space="preserve">25</text>
            <line clip-path="url(#clipPath2)" fill="none" x1="24" x2="26" y1="192" y2="192"/>
            <line clip-path="url(#clipPath2)" fill="none" x1="1445" x2="1443" y1="192" y2="192"/>
            <line clip-path="url(#clipPath2)" fill="none" x1="24" x2="26" y1="177" y2="177"/>
            <line clip-path="url(#clipPath2)" fill="none" x1="1445" x2="1443" y1="177" y2="177"/>
            <line clip-path="url(#clipPath2)" fill="none" x1="24" x2="26" y1="163" y2="163"/>
            <line clip-path="url(#clipPath2)" fill="none" x1="1445" x2="1443" y1="163" y2="163"/>
            <line clip-path="url(#clipPath2)" fill="none" x1="24" x2="26" y1="148" y2="148"/>
            <line clip-path="url(#clipPath2)" fill="none" x1="1445" x2="1443" y1="148" y2="148"/>
            <line clip-path="url(#clipPath2)" fill="none" x1="22" x2="26" y1="133" y2="133"/>
            <line clip-path="url(#clipPath2)" fill="none" x1="1447" x2="1443" y1="133" y2="133"/>
            <text x="6" font-size="13" y="138" clip-path="url(#clipPath2)" stroke="none" xml:space="preserve">30</text>
            <text x="1450" font-size="13" y="138" clip-path="url(#clipPath2)" stroke="none" xml:space="preserve">30</text>
            <line clip-path="url(#clipPath2)" fill="none" x1="24" x2="26" y1="118" y2="118"/>
            <line clip-path="url(#clipPath2)" fill="none" x1="1445" x2="1443" y1="118" y2="118"/>
            <line clip-path="url(#clipPath2)" fill="none" x1="24" x2="26" y1="104" y2="104"/>
            <line clip-path="url(#clipPath2)" fill="none" x1="1445" x2="1443" y1="104" y2="104"/>
            <line clip-path="url(#clipPath2)" fill="none" x1="24" x2="26" y1="89" y2="89"/>
            <line clip-path="url(#clipPath2)" fill="none" x1="1445" x2="1443" y1="89" y2="89"/>
            <line clip-path="url(#clipPath2)" fill="none" x1="24" x2="26" y1="74" y2="74"/>
            <line clip-path="url(#clipPath2)" fill="none" x1="1445" x2="1443" y1="74" y2="74"/>
            <line clip-path="url(#clipPath2)" fill="none" x1="22" x2="26" y1="59" y2="59"/>
            <line clip-path="url(#clipPath2)" fill="none" x1="1447" x2="1443" y1="59" y2="59"/>
            <text x="6" font-size="13" y="64" clip-path="url(#clipPath2)" stroke="none" xml:space="preserve">35</text>
            <text x="1450" font-size="13" y="64" clip-path="url(#clipPath2)" stroke="none" xml:space="preserve">35</text>
            <line clip-path="url(#clipPath2)" fill="none" x1="24" x2="26" y1="45" y2="45"/>
            <line clip-path="url(#clipPath2)" fill="none" x1="1445" x2="1443" y1="45" y2="45"/>
        </g>
    </g>
</svg>
