<?xml version="1.0" encoding="UTF-8"?><svg xmlns="http://www.w3.org/2000/svg" xmlns:xlink="http://www.w3.org/1999/xlink" stroke-dasharray="none" shape-rendering="auto" font-family="'Dialog'" width="772" text-rendering="auto" fill-opacity="1" contentScriptType="text/ecmascript" color-interpolation="auto" color-rendering="auto" preserveAspectRatio="xMidYMid meet" font-size="12" fill="black" stroke="black" image-rendering="auto" stroke-miterlimit="10" zoomAndPan="magnify" version="1.0" stroke-linecap="square" stroke-linejoin="miter" contentStyleType="text/css" font-style="normal" height="581" stroke-width="1" stroke-dashoffset="0" font-weight="normal" stroke-opacity="1">
    <!--Generated by the Batik Graphics2D SVG Generator-->
    <defs id="genericDefs"/>
    <g>
        <defs id="defs1">
            <clipPath clipPathUnits="userSpaceOnUse" id="clipPath1">
                <path d="M83 55 L716 55 L716 518 L83 518 L83 55 Z"/>
            </clipPath>
            <clipPath clipPathUnits="userSpaceOnUse" id="clipPath2">
                <path d="M-1 -1 L773 -1 L773 582 L-1 582 L-1 -1 Z"/>
            </clipPath>
            <clipPath clipPathUnits="userSpaceOnUse" id="clipPath3">
                <path d="M458 60 L712 60 L712 184 L458 184 L458 60 Z"/>
            </clipPath>
        </defs>
        <g font-size="15" fill="white" text-rendering="optimizeLegibility" font-family="'Microsoft YaHei UI'" stroke-linejoin="round" stroke="white" stroke-width="0" stroke-miterlimit="0">
            <rect x="84" y="56" clip-path="url(#clipPath1)" width="631" height="461" stroke="none"/>
        </g>
        <g stroke-linecap="butt" font-size="15" fill="rgb(204,204,204)" text-rendering="optimizeLegibility" font-family="'Microsoft YaHei UI'" stroke-dasharray="3,3" stroke="rgb(204,204,204)">
            <line clip-path="url(#clipPath1)" fill="none" x1="84" x2="715" y1="517" y2="517"/>
            <line clip-path="url(#clipPath1)" fill="none" x1="84" x2="715" y1="463" y2="463"/>
            <line clip-path="url(#clipPath1)" fill="none" x1="84" x2="715" y1="410" y2="410"/>
            <line clip-path="url(#clipPath1)" fill="none" x1="84" x2="715" y1="357" y2="357"/>
            <line clip-path="url(#clipPath1)" fill="none" x1="84" x2="715" y1="304" y2="304"/>
            <line clip-path="url(#clipPath1)" fill="none" x1="84" x2="715" y1="251" y2="251"/>
            <line clip-path="url(#clipPath1)" fill="none" x1="84" x2="715" y1="197" y2="197"/>
            <line clip-path="url(#clipPath1)" fill="none" x1="84" x2="715" y1="144" y2="144"/>
            <line clip-path="url(#clipPath1)" fill="none" x1="84" x2="715" y1="91" y2="91"/>
        </g>
        <g stroke-linecap="butt" font-size="15" fill="rgb(31,119,180)" text-rendering="optimizeLegibility" font-family="'Microsoft YaHei UI'" stroke="rgb(31,119,180)" stroke-width="2">
            <line clip-path="url(#clipPath1)" fill="none" x1="136" x2="224" y1="517" y2="517" opacity="0.7529"/>
            <line clip-path="url(#clipPath1)" fill="none" x1="224" x2="224" y1="517" y2="517" opacity="0.7529"/>
            <line clip-path="url(#clipPath1)" fill="none" x1="224" x2="224" y1="517" y2="490" opacity="0.7529"/>
            <line clip-path="url(#clipPath1)" fill="none" x1="224" x2="311" y1="490" y2="490" opacity="0.7529"/>
            <line clip-path="url(#clipPath1)" fill="none" x1="311" x2="311" y1="490" y2="490" opacity="0.7529"/>
            <line clip-path="url(#clipPath1)" fill="none" x1="311" x2="311" y1="490" y2="349" opacity="0.7529"/>
            <line clip-path="url(#clipPath1)" fill="none" x1="311" x2="399" y1="349" y2="349" opacity="0.7529"/>
            <line clip-path="url(#clipPath1)" fill="none" x1="399" x2="399" y1="349" y2="349" opacity="0.7529"/>
            <line clip-path="url(#clipPath1)" fill="none" x1="399" x2="399" y1="349" y2="256" opacity="0.7529"/>
            <line clip-path="url(#clipPath1)" fill="none" x1="399" x2="487" y1="256" y2="256" opacity="0.7529"/>
            <line clip-path="url(#clipPath1)" fill="none" x1="487" x2="487" y1="256" y2="256" opacity="0.7529"/>
            <line clip-path="url(#clipPath1)" fill="none" x1="487" x2="487" y1="256" y2="381" opacity="0.7529"/>
            <line clip-path="url(#clipPath1)" fill="none" x1="487" x2="574" y1="381" y2="381" opacity="0.7529"/>
            <line clip-path="url(#clipPath1)" fill="none" x1="574" x2="574" y1="381" y2="381" opacity="0.7529"/>
            <line clip-path="url(#clipPath1)" fill="none" x1="574" x2="574" y1="381" y2="498" opacity="0.7529"/>
            <line clip-path="url(#clipPath1)" fill="none" x1="574" x2="662" y1="498" y2="498" opacity="0.7529"/>
            <line clip-path="url(#clipPath1)" fill="none" x1="136" x2="224" y1="517" y2="517" opacity="0.7529" stroke="rgb(255,127,14)"/>
            <line clip-path="url(#clipPath1)" fill="none" x1="224" x2="224" y1="517" y2="517" opacity="0.7529" stroke="rgb(255,127,14)"/>
            <line clip-path="url(#clipPath1)" fill="none" x1="224" x2="224" y1="517" y2="466" opacity="0.7529" stroke="rgb(255,127,14)"/>
            <line clip-path="url(#clipPath1)" fill="none" x1="224" x2="311" y1="466" y2="466" opacity="0.7529" stroke="rgb(255,127,14)"/>
            <line clip-path="url(#clipPath1)" fill="none" x1="311" x2="311" y1="466" y2="466" opacity="0.7529" stroke="rgb(255,127,14)"/>
            <line clip-path="url(#clipPath1)" fill="none" x1="311" x2="311" y1="466" y2="179" opacity="0.7529" stroke="rgb(255,127,14)"/>
            <line clip-path="url(#clipPath1)" fill="none" x1="311" x2="399" y1="179" y2="179" opacity="0.7529" stroke="rgb(255,127,14)"/>
            <line clip-path="url(#clipPath1)" fill="none" x1="399" x2="399" y1="179" y2="179" opacity="0.7529" stroke="rgb(255,127,14)"/>
            <line clip-path="url(#clipPath1)" fill="none" x1="399" x2="399" y1="179" y2="320" opacity="0.7529" stroke="rgb(255,127,14)"/>
            <line clip-path="url(#clipPath1)" fill="none" x1="399" x2="487" y1="320" y2="320" opacity="0.7529" stroke="rgb(255,127,14)"/>
            <line clip-path="url(#clipPath1)" fill="none" x1="487" x2="487" y1="320" y2="320" opacity="0.7529" stroke="rgb(255,127,14)"/>
            <line clip-path="url(#clipPath1)" fill="none" x1="487" x2="487" y1="320" y2="455" opacity="0.7529" stroke="rgb(255,127,14)"/>
            <line clip-path="url(#clipPath1)" fill="none" x1="487" x2="574" y1="455" y2="455" opacity="0.7529" stroke="rgb(255,127,14)"/>
            <line clip-path="url(#clipPath1)" fill="none" x1="136" x2="224" y1="517" y2="517" opacity="0.7529" stroke="rgb(44,160,44)"/>
            <line clip-path="url(#clipPath1)" fill="none" x1="224" x2="224" y1="517" y2="517" opacity="0.7529" stroke="rgb(44,160,44)"/>
            <line clip-path="url(#clipPath1)" fill="none" x1="224" x2="224" y1="517" y2="399" opacity="0.7529" stroke="rgb(44,160,44)"/>
            <line clip-path="url(#clipPath1)" fill="none" x1="224" x2="311" y1="399" y2="399" opacity="0.7529" stroke="rgb(44,160,44)"/>
            <line clip-path="url(#clipPath1)" fill="none" x1="311" x2="311" y1="399" y2="399" opacity="0.7529" stroke="rgb(44,160,44)"/>
            <line clip-path="url(#clipPath1)" fill="none" x1="311" x2="311" y1="399" y2="176" opacity="0.7529" stroke="rgb(44,160,44)"/>
            <line clip-path="url(#clipPath1)" fill="none" x1="311" x2="399" y1="176" y2="176" opacity="0.7529" stroke="rgb(44,160,44)"/>
            <line clip-path="url(#clipPath1)" fill="none" x1="399" x2="399" y1="176" y2="176" opacity="0.7529" stroke="rgb(44,160,44)"/>
            <line clip-path="url(#clipPath1)" fill="none" x1="399" x2="399" y1="176" y2="368" opacity="0.7529" stroke="rgb(44,160,44)"/>
            <line clip-path="url(#clipPath1)" fill="none" x1="399" x2="487" y1="368" y2="368" opacity="0.7529" stroke="rgb(44,160,44)"/>
            <line clip-path="url(#clipPath1)" fill="none" x1="487" x2="487" y1="368" y2="368" opacity="0.7529" stroke="rgb(44,160,44)"/>
            <line clip-path="url(#clipPath1)" fill="none" x1="487" x2="487" y1="368" y2="466" opacity="0.7529" stroke="rgb(44,160,44)"/>
            <line clip-path="url(#clipPath1)" fill="none" x1="487" x2="574" y1="466" y2="466" opacity="0.7529" stroke="rgb(44,160,44)"/>
            <line clip-path="url(#clipPath1)" fill="none" x1="136" x2="224" y1="517" y2="517" opacity="0.7529" stroke="rgb(214,39,40)"/>
            <line clip-path="url(#clipPath1)" fill="none" x1="224" x2="224" y1="517" y2="517" opacity="0.7529" stroke="rgb(214,39,40)"/>
            <line clip-path="url(#clipPath1)" fill="none" x1="224" x2="224" y1="517" y2="413" opacity="0.7529" stroke="rgb(214,39,40)"/>
            <line clip-path="url(#clipPath1)" fill="none" x1="224" x2="311" y1="413" y2="413" opacity="0.7529" stroke="rgb(214,39,40)"/>
            <line clip-path="url(#clipPath1)" fill="none" x1="311" x2="311" y1="413" y2="413" opacity="0.7529" stroke="rgb(214,39,40)"/>
            <line clip-path="url(#clipPath1)" fill="none" x1="311" x2="311" y1="413" y2="171" opacity="0.7529" stroke="rgb(214,39,40)"/>
            <line clip-path="url(#clipPath1)" fill="none" x1="311" x2="399" y1="171" y2="171" opacity="0.7529" stroke="rgb(214,39,40)"/>
            <line clip-path="url(#clipPath1)" fill="none" x1="399" x2="399" y1="171" y2="171" opacity="0.7529" stroke="rgb(214,39,40)"/>
            <line clip-path="url(#clipPath1)" fill="none" x1="399" x2="399" y1="171" y2="362" opacity="0.7529" stroke="rgb(214,39,40)"/>
            <line clip-path="url(#clipPath1)" fill="none" x1="399" x2="487" y1="362" y2="362" opacity="0.7529" stroke="rgb(214,39,40)"/>
            <line clip-path="url(#clipPath1)" fill="none" x1="487" x2="487" y1="362" y2="362" opacity="0.7529" stroke="rgb(214,39,40)"/>
            <line clip-path="url(#clipPath1)" fill="none" x1="487" x2="487" y1="362" y2="463" opacity="0.7529" stroke="rgb(214,39,40)"/>
            <line clip-path="url(#clipPath1)" fill="none" x1="487" x2="574" y1="463" y2="463" opacity="0.7529" stroke="rgb(214,39,40)"/>
            <rect x="84" y="56" clip-path="url(#clipPath2)" fill="none" width="631" height="461" stroke="black" stroke-width="1"/>
        </g>
        <g text-rendering="optimizeLegibility" font-size="16" font-family="'Arial'" stroke-linecap="butt">
            <text xml:space="preserve" x="383" y="15" clip-path="url(#clipPath2)" stroke="none">.</text>
            <rect x="459" y="61" clip-path="url(#clipPath3)" fill="white" width="251" opacity="0.7529" height="121" stroke="none"/>
            <line clip-path="url(#clipPath3)" fill="none" x1="465" x2="479" y1="78" y2="78" stroke="rgb(31,119,180)" stroke-width="2"/>
            <text x="481" font-size="20" y="85" clip-path="url(#clipPath3)" stroke="none" font-weight="bold" stroke-width="2" xml:space="preserve">Frequency Bands: $0=2</text>
        </g>
        <g stroke-linecap="butt" font-size="20" fill="rgb(255,127,14)" text-rendering="optimizeLegibility" font-family="'Arial'" stroke="rgb(255,127,14)" font-weight="bold" stroke-width="2">
            <line clip-path="url(#clipPath3)" fill="none" x1="465" x2="479" y1="107" y2="107"/>
            <text x="481" y="114" clip-path="url(#clipPath3)" fill="black" stroke="none" xml:space="preserve">Frequency Bands: $0=4</text>
            <line clip-path="url(#clipPath3)" fill="none" x1="465" x2="479" y1="136" y2="136" stroke="rgb(44,160,44)"/>
            <text x="481" y="143" clip-path="url(#clipPath3)" fill="black" stroke="none" xml:space="preserve">Frequency Bands: $0=6</text>
            <line clip-path="url(#clipPath3)" fill="none" x1="465" x2="479" y1="165" y2="165" stroke="rgb(214,39,40)"/>
            <text x="481" y="172" clip-path="url(#clipPath3)" fill="black" stroke="none" xml:space="preserve">Frequency Bands: $0=8</text>
        </g>
        <g text-rendering="optimizeLegibility" font-size="23" font-family="'Arial'" font-weight="bold" stroke-linecap="butt">
            <line clip-path="url(#clipPath2)" fill="none" x1="84" x2="715" y1="54" y2="54"/>
            <line clip-path="url(#clipPath2)" fill="none" x1="84" x2="715" y1="519" y2="519"/>
            <text xml:space="preserve" x="326" y="575" clip-path="url(#clipPath2)" stroke="none">Depth of STA</text>
            <line clip-path="url(#clipPath2)" fill="none" x1="84" x2="84" y1="52" y2="54"/>
            <line clip-path="url(#clipPath2)" fill="none" x1="84" x2="84" y1="521" y2="519"/>
            <line clip-path="url(#clipPath2)" fill="none" x1="101" x2="101" y1="52" y2="54"/>
            <line clip-path="url(#clipPath2)" fill="none" x1="101" x2="101" y1="521" y2="519"/>
            <line clip-path="url(#clipPath2)" fill="none" x1="119" x2="119" y1="52" y2="54"/>
            <line clip-path="url(#clipPath2)" fill="none" x1="119" x2="119" y1="521" y2="519"/>
            <line clip-path="url(#clipPath2)" fill="none" x1="136" x2="136" y1="50" y2="54"/>
            <line clip-path="url(#clipPath2)" fill="none" x1="136" x2="136" y1="523" y2="519"/>
            <text xml:space="preserve" x="131" y="43" clip-path="url(#clipPath2)" stroke="none">0</text>
            <text xml:space="preserve" x="131" y="545" clip-path="url(#clipPath2)" stroke="none">0</text>
            <line clip-path="url(#clipPath2)" fill="none" x1="154" x2="154" y1="52" y2="54"/>
            <line clip-path="url(#clipPath2)" fill="none" x1="154" x2="154" y1="521" y2="519"/>
            <line clip-path="url(#clipPath2)" fill="none" x1="171" x2="171" y1="52" y2="54"/>
            <line clip-path="url(#clipPath2)" fill="none" x1="171" x2="171" y1="521" y2="519"/>
            <line clip-path="url(#clipPath2)" fill="none" x1="189" x2="189" y1="52" y2="54"/>
            <line clip-path="url(#clipPath2)" fill="none" x1="189" x2="189" y1="521" y2="519"/>
            <line clip-path="url(#clipPath2)" fill="none" x1="206" x2="206" y1="52" y2="54"/>
            <line clip-path="url(#clipPath2)" fill="none" x1="206" x2="206" y1="521" y2="519"/>
            <line clip-path="url(#clipPath2)" fill="none" x1="224" x2="224" y1="50" y2="54"/>
            <line clip-path="url(#clipPath2)" fill="none" x1="224" x2="224" y1="523" y2="519"/>
            <text xml:space="preserve" x="219" y="43" clip-path="url(#clipPath2)" stroke="none">1</text>
            <text xml:space="preserve" x="219" y="545" clip-path="url(#clipPath2)" stroke="none">1</text>
            <line clip-path="url(#clipPath2)" fill="none" x1="241" x2="241" y1="52" y2="54"/>
            <line clip-path="url(#clipPath2)" fill="none" x1="241" x2="241" y1="521" y2="519"/>
            <line clip-path="url(#clipPath2)" fill="none" x1="259" x2="259" y1="52" y2="54"/>
            <line clip-path="url(#clipPath2)" fill="none" x1="259" x2="259" y1="521" y2="519"/>
            <line clip-path="url(#clipPath2)" fill="none" x1="276" x2="276" y1="52" y2="54"/>
            <line clip-path="url(#clipPath2)" fill="none" x1="276" x2="276" y1="521" y2="519"/>
            <line clip-path="url(#clipPath2)" fill="none" x1="294" x2="294" y1="52" y2="54"/>
            <line clip-path="url(#clipPath2)" fill="none" x1="294" x2="294" y1="521" y2="519"/>
            <line clip-path="url(#clipPath2)" fill="none" x1="311" x2="311" y1="50" y2="54"/>
            <line clip-path="url(#clipPath2)" fill="none" x1="311" x2="311" y1="523" y2="519"/>
            <text xml:space="preserve" x="306" y="43" clip-path="url(#clipPath2)" stroke="none">2</text>
            <text xml:space="preserve" x="306" y="545" clip-path="url(#clipPath2)" stroke="none">2</text>
            <line clip-path="url(#clipPath2)" fill="none" x1="329" x2="329" y1="52" y2="54"/>
            <line clip-path="url(#clipPath2)" fill="none" x1="329" x2="329" y1="521" y2="519"/>
            <line clip-path="url(#clipPath2)" fill="none" x1="346" x2="346" y1="52" y2="54"/>
            <line clip-path="url(#clipPath2)" fill="none" x1="346" x2="346" y1="521" y2="519"/>
            <line clip-path="url(#clipPath2)" fill="none" x1="364" x2="364" y1="52" y2="54"/>
            <line clip-path="url(#clipPath2)" fill="none" x1="364" x2="364" y1="521" y2="519"/>
            <line clip-path="url(#clipPath2)" fill="none" x1="381" x2="381" y1="52" y2="54"/>
            <line clip-path="url(#clipPath2)" fill="none" x1="381" x2="381" y1="521" y2="519"/>
            <line clip-path="url(#clipPath2)" fill="none" x1="399" x2="399" y1="50" y2="54"/>
            <line clip-path="url(#clipPath2)" fill="none" x1="399" x2="399" y1="523" y2="519"/>
            <text xml:space="preserve" x="394" y="43" clip-path="url(#clipPath2)" stroke="none">3</text>
            <text xml:space="preserve" x="394" y="545" clip-path="url(#clipPath2)" stroke="none">3</text>
            <line clip-path="url(#clipPath2)" fill="none" x1="417" x2="417" y1="52" y2="54"/>
            <line clip-path="url(#clipPath2)" fill="none" x1="417" x2="417" y1="521" y2="519"/>
            <line clip-path="url(#clipPath2)" fill="none" x1="434" x2="434" y1="52" y2="54"/>
            <line clip-path="url(#clipPath2)" fill="none" x1="434" x2="434" y1="521" y2="519"/>
            <line clip-path="url(#clipPath2)" fill="none" x1="452" x2="452" y1="52" y2="54"/>
            <line clip-path="url(#clipPath2)" fill="none" x1="452" x2="452" y1="521" y2="519"/>
            <line clip-path="url(#clipPath2)" fill="none" x1="469" x2="469" y1="52" y2="54"/>
            <line clip-path="url(#clipPath2)" fill="none" x1="469" x2="469" y1="521" y2="519"/>
            <line clip-path="url(#clipPath2)" fill="none" x1="487" x2="487" y1="50" y2="54"/>
            <line clip-path="url(#clipPath2)" fill="none" x1="487" x2="487" y1="523" y2="519"/>
            <text xml:space="preserve" x="482" y="43" clip-path="url(#clipPath2)" stroke="none">4</text>
            <text xml:space="preserve" x="482" y="545" clip-path="url(#clipPath2)" stroke="none">4</text>
            <line clip-path="url(#clipPath2)" fill="none" x1="504" x2="504" y1="52" y2="54"/>
            <line clip-path="url(#clipPath2)" fill="none" x1="504" x2="504" y1="521" y2="519"/>
            <line clip-path="url(#clipPath2)" fill="none" x1="522" x2="522" y1="52" y2="54"/>
            <line clip-path="url(#clipPath2)" fill="none" x1="522" x2="522" y1="521" y2="519"/>
            <line clip-path="url(#clipPath2)" fill="none" x1="539" x2="539" y1="52" y2="54"/>
            <line clip-path="url(#clipPath2)" fill="none" x1="539" x2="539" y1="521" y2="519"/>
            <line clip-path="url(#clipPath2)" fill="none" x1="557" x2="557" y1="52" y2="54"/>
            <line clip-path="url(#clipPath2)" fill="none" x1="557" x2="557" y1="521" y2="519"/>
            <line clip-path="url(#clipPath2)" fill="none" x1="574" x2="574" y1="50" y2="54"/>
            <line clip-path="url(#clipPath2)" fill="none" x1="574" x2="574" y1="523" y2="519"/>
            <text xml:space="preserve" x="569" y="43" clip-path="url(#clipPath2)" stroke="none">5</text>
            <text xml:space="preserve" x="569" y="545" clip-path="url(#clipPath2)" stroke="none">5</text>
            <line clip-path="url(#clipPath2)" fill="none" x1="592" x2="592" y1="52" y2="54"/>
            <line clip-path="url(#clipPath2)" fill="none" x1="592" x2="592" y1="521" y2="519"/>
            <line clip-path="url(#clipPath2)" fill="none" x1="609" x2="609" y1="52" y2="54"/>
            <line clip-path="url(#clipPath2)" fill="none" x1="609" x2="609" y1="521" y2="519"/>
            <line clip-path="url(#clipPath2)" fill="none" x1="627" x2="627" y1="52" y2="54"/>
            <line clip-path="url(#clipPath2)" fill="none" x1="627" x2="627" y1="521" y2="519"/>
            <line clip-path="url(#clipPath2)" fill="none" x1="644" x2="644" y1="52" y2="54"/>
            <line clip-path="url(#clipPath2)" fill="none" x1="644" x2="644" y1="521" y2="519"/>
            <line clip-path="url(#clipPath2)" fill="none" x1="662" x2="662" y1="50" y2="54"/>
            <line clip-path="url(#clipPath2)" fill="none" x1="662" x2="662" y1="523" y2="519"/>
            <text xml:space="preserve" x="657" y="43" clip-path="url(#clipPath2)" stroke="none">6</text>
            <text xml:space="preserve" x="657" y="545" clip-path="url(#clipPath2)" stroke="none">6</text>
            <line clip-path="url(#clipPath2)" fill="none" x1="679" x2="679" y1="52" y2="54"/>
            <line clip-path="url(#clipPath2)" fill="none" x1="679" x2="679" y1="521" y2="519"/>
            <line clip-path="url(#clipPath2)" fill="none" x1="697" x2="697" y1="52" y2="54"/>
            <line clip-path="url(#clipPath2)" fill="none" x1="697" x2="697" y1="521" y2="519"/>
            <line clip-path="url(#clipPath2)" fill="none" x1="715" x2="715" y1="52" y2="54"/>
            <line clip-path="url(#clipPath2)" fill="none" x1="715" x2="715" y1="521" y2="519"/>
            <line clip-path="url(#clipPath2)" fill="none" x1="82" x2="82" y1="56" y2="517"/>
            <line clip-path="url(#clipPath2)" fill="none" x1="717" x2="717" y1="56" y2="517"/>
            <line clip-path="url(#clipPath2)" fill="none" x1="78" x2="82" y1="517" y2="517"/>
            <line clip-path="url(#clipPath2)" fill="none" x1="721" x2="717" y1="517" y2="517"/>
            <text xml:space="preserve" x="64" y="525" clip-path="url(#clipPath2)" stroke="none">0</text>
            <text xml:space="preserve" x="724" y="525" clip-path="url(#clipPath2)" stroke="none">0</text>
            <line clip-path="url(#clipPath2)" fill="none" x1="80" x2="82" y1="490" y2="490"/>
            <line clip-path="url(#clipPath2)" fill="none" x1="719" x2="717" y1="490" y2="490"/>
            <line clip-path="url(#clipPath2)" fill="none" x1="78" x2="82" y1="463" y2="463"/>
            <line clip-path="url(#clipPath2)" fill="none" x1="721" x2="717" y1="463" y2="463"/>
            <text xml:space="preserve" x="51" y="471" clip-path="url(#clipPath2)" stroke="none">20</text>
            <text xml:space="preserve" x="724" y="471" clip-path="url(#clipPath2)" stroke="none">20</text>
            <line clip-path="url(#clipPath2)" fill="none" x1="80" x2="82" y1="437" y2="437"/>
            <line clip-path="url(#clipPath2)" fill="none" x1="719" x2="717" y1="437" y2="437"/>
            <line clip-path="url(#clipPath2)" fill="none" x1="78" x2="82" y1="410" y2="410"/>
            <line clip-path="url(#clipPath2)" fill="none" x1="721" x2="717" y1="410" y2="410"/>
            <text xml:space="preserve" x="51" y="418" clip-path="url(#clipPath2)" stroke="none">40</text>
            <text xml:space="preserve" x="724" y="418" clip-path="url(#clipPath2)" stroke="none">40</text>
            <line clip-path="url(#clipPath2)" fill="none" x1="80" x2="82" y1="384" y2="384"/>
            <line clip-path="url(#clipPath2)" fill="none" x1="719" x2="717" y1="384" y2="384"/>
            <line clip-path="url(#clipPath2)" fill="none" x1="78" x2="82" y1="357" y2="357"/>
            <line clip-path="url(#clipPath2)" fill="none" x1="721" x2="717" y1="357" y2="357"/>
            <text xml:space="preserve" x="51" y="365" clip-path="url(#clipPath2)" stroke="none">60</text>
            <text xml:space="preserve" x="724" y="365" clip-path="url(#clipPath2)" stroke="none">60</text>
            <line clip-path="url(#clipPath2)" fill="none" x1="80" x2="82" y1="330" y2="330"/>
            <line clip-path="url(#clipPath2)" fill="none" x1="719" x2="717" y1="330" y2="330"/>
            <line clip-path="url(#clipPath2)" fill="none" x1="78" x2="82" y1="304" y2="304"/>
            <line clip-path="url(#clipPath2)" fill="none" x1="721" x2="717" y1="304" y2="304"/>
            <text xml:space="preserve" x="51" y="312" clip-path="url(#clipPath2)" stroke="none">80</text>
            <text xml:space="preserve" x="724" y="312" clip-path="url(#clipPath2)" stroke="none">80</text>
            <line clip-path="url(#clipPath2)" fill="none" x1="80" x2="82" y1="277" y2="277"/>
            <line clip-path="url(#clipPath2)" fill="none" x1="719" x2="717" y1="277" y2="277"/>
            <line clip-path="url(#clipPath2)" fill="none" x1="78" x2="82" y1="251" y2="251"/>
            <line clip-path="url(#clipPath2)" fill="none" x1="721" x2="717" y1="251" y2="251"/>
            <text xml:space="preserve" x="38" y="259" clip-path="url(#clipPath2)" stroke="none">100</text>
            <text xml:space="preserve" x="724" y="259" clip-path="url(#clipPath2)" stroke="none">100</text>
            <line clip-path="url(#clipPath2)" fill="none" x1="80" x2="82" y1="224" y2="224"/>
            <line clip-path="url(#clipPath2)" fill="none" x1="719" x2="717" y1="224" y2="224"/>
            <line clip-path="url(#clipPath2)" fill="none" x1="78" x2="82" y1="197" y2="197"/>
            <line clip-path="url(#clipPath2)" fill="none" x1="721" x2="717" y1="197" y2="197"/>
            <text xml:space="preserve" x="38" y="205" clip-path="url(#clipPath2)" stroke="none">120</text>
            <text xml:space="preserve" x="724" y="205" clip-path="url(#clipPath2)" stroke="none">120</text>
            <line clip-path="url(#clipPath2)" fill="none" x1="80" x2="82" y1="171" y2="171"/>
            <line clip-path="url(#clipPath2)" fill="none" x1="719" x2="717" y1="171" y2="171"/>
            <line clip-path="url(#clipPath2)" fill="none" x1="78" x2="82" y1="144" y2="144"/>
            <line clip-path="url(#clipPath2)" fill="none" x1="721" x2="717" y1="144" y2="144"/>
            <text xml:space="preserve" x="38" y="152" clip-path="url(#clipPath2)" stroke="none">140</text>
            <text xml:space="preserve" x="724" y="152" clip-path="url(#clipPath2)" stroke="none">140</text>
            <line clip-path="url(#clipPath2)" fill="none" x1="80" x2="82" y1="118" y2="118"/>
            <line clip-path="url(#clipPath2)" fill="none" x1="719" x2="717" y1="118" y2="118"/>
            <line clip-path="url(#clipPath2)" fill="none" x1="78" x2="82" y1="91" y2="91"/>
            <line clip-path="url(#clipPath2)" fill="none" x1="721" x2="717" y1="91" y2="91"/>
            <text xml:space="preserve" x="38" y="99" clip-path="url(#clipPath2)" stroke="none">160</text>
            <text xml:space="preserve" x="724" y="99" clip-path="url(#clipPath2)" stroke="none">160</text>
            <line clip-path="url(#clipPath2)" fill="none" x1="80" x2="82" y1="64" y2="64"/>
            <line clip-path="url(#clipPath2)" fill="none" x1="719" x2="717" y1="64" y2="64"/>
        </g>
    </g>
</svg>
