<?xml version="1.0" encoding="UTF-8"?><svg xmlns="http://www.w3.org/2000/svg" xmlns:xlink="http://www.w3.org/1999/xlink" stroke-dasharray="none" shape-rendering="auto" font-family="'Dialog'" width="735" text-rendering="auto" fill-opacity="1" contentScriptType="text/ecmascript" color-interpolation="auto" color-rendering="auto" preserveAspectRatio="xMidYMid meet" font-size="12" fill="black" stroke="black" image-rendering="auto" stroke-miterlimit="10" zoomAndPan="magnify" version="1.0" stroke-linecap="square" stroke-linejoin="miter" contentStyleType="text/css" font-style="normal" height="575" stroke-width="1" stroke-dashoffset="0" font-weight="normal" stroke-opacity="1">
    <!--Generated by the Batik Graphics2D SVG Generator-->
    <defs id="genericDefs"/>
    <g>
        <defs id="defs1">
            <clipPath clipPathUnits="userSpaceOnUse" id="clipPath1">
                <path d="M70 55 L692 55 L692 512 L70 512 L70 55 Z"/>
            </clipPath>
            <clipPath clipPathUnits="userSpaceOnUse" id="clipPath2">
                <path d="M-1 -1 L736 -1 L736 576 L-1 576 L-1 -1 Z"/>
            </clipPath>
            <clipPath clipPathUnits="userSpaceOnUse" id="clipPath3">
                <path d="M447 60 L688 60 L688 184 L447 184 L447 60 Z"/>
            </clipPath>
        </defs>
        <g font-size="15" fill="white" text-rendering="optimizeLegibility" font-family="'Microsoft YaHei UI'" stroke-linejoin="round" stroke="white" stroke-width="0" stroke-miterlimit="0">
            <rect x="71" y="56" clip-path="url(#clipPath1)" width="620" height="455" stroke="none"/>
        </g>
        <g stroke-linecap="butt" font-size="15" fill="rgb(204,204,204)" text-rendering="optimizeLegibility" font-family="'Microsoft YaHei UI'" stroke-dasharray="3,3" stroke="rgb(204,204,204)">
            <line clip-path="url(#clipPath1)" fill="none" x1="71" x2="691" y1="479" y2="479"/>
            <line clip-path="url(#clipPath1)" fill="none" x1="71" x2="691" y1="421" y2="421"/>
            <line clip-path="url(#clipPath1)" fill="none" x1="71" x2="691" y1="363" y2="363"/>
            <line clip-path="url(#clipPath1)" fill="none" x1="71" x2="691" y1="304" y2="304"/>
            <line clip-path="url(#clipPath1)" fill="none" x1="71" x2="691" y1="246" y2="246"/>
            <line clip-path="url(#clipPath1)" fill="none" x1="71" x2="691" y1="188" y2="188"/>
            <line clip-path="url(#clipPath1)" fill="none" x1="71" x2="691" y1="129" y2="129"/>
            <line clip-path="url(#clipPath1)" fill="none" x1="71" x2="691" y1="71" y2="71"/>
        </g>
        <g stroke-linecap="butt" font-size="15" fill="rgb(31,119,180)" text-rendering="optimizeLegibility" font-family="'Microsoft YaHei UI'" stroke="rgb(31,119,180)" stroke-width="2">
            <line clip-path="url(#clipPath1)" fill="none" x1="134" x2="198" y1="538" y2="538" opacity="0.7529"/>
            <line clip-path="url(#clipPath1)" fill="none" x1="198" x2="198" y1="538" y2="538" opacity="0.7529"/>
            <line clip-path="url(#clipPath1)" fill="none" x1="198" x2="198" y1="538" y2="468" opacity="0.7529"/>
            <line clip-path="url(#clipPath1)" fill="none" x1="198" x2="262" y1="468" y2="468" opacity="0.7529"/>
            <line clip-path="url(#clipPath1)" fill="none" x1="262" x2="262" y1="468" y2="468" opacity="0.7529"/>
            <line clip-path="url(#clipPath1)" fill="none" x1="262" x2="262" y1="468" y2="392" opacity="0.7529"/>
            <line clip-path="url(#clipPath1)" fill="none" x1="262" x2="326" y1="392" y2="392" opacity="0.7529"/>
            <line clip-path="url(#clipPath1)" fill="none" x1="326" x2="326" y1="392" y2="392" opacity="0.7529"/>
            <line clip-path="url(#clipPath1)" fill="none" x1="326" x2="326" y1="392" y2="363" opacity="0.7529"/>
            <line clip-path="url(#clipPath1)" fill="none" x1="326" x2="389" y1="363" y2="363" opacity="0.7529"/>
            <line clip-path="url(#clipPath1)" fill="none" x1="389" x2="389" y1="363" y2="363" opacity="0.7529"/>
            <line clip-path="url(#clipPath1)" fill="none" x1="389" x2="389" y1="363" y2="333" opacity="0.7529"/>
            <line clip-path="url(#clipPath1)" fill="none" x1="389" x2="453" y1="333" y2="333" opacity="0.7529"/>
            <line clip-path="url(#clipPath1)" fill="none" x1="453" x2="453" y1="333" y2="333" opacity="0.7529"/>
            <line clip-path="url(#clipPath1)" fill="none" x1="453" x2="453" y1="333" y2="234" opacity="0.7529"/>
            <line clip-path="url(#clipPath1)" fill="none" x1="453" x2="517" y1="234" y2="234" opacity="0.7529"/>
            <line clip-path="url(#clipPath1)" fill="none" x1="517" x2="517" y1="234" y2="234" opacity="0.7529"/>
            <line clip-path="url(#clipPath1)" fill="none" x1="517" x2="517" y1="234" y2="252" opacity="0.7529"/>
            <line clip-path="url(#clipPath1)" fill="none" x1="517" x2="581" y1="252" y2="252" opacity="0.7529"/>
            <line clip-path="url(#clipPath1)" fill="none" x1="581" x2="581" y1="252" y2="252" opacity="0.7529"/>
            <line clip-path="url(#clipPath1)" fill="none" x1="581" x2="581" y1="252" y2="409" opacity="0.7529"/>
            <line clip-path="url(#clipPath1)" fill="none" x1="581" x2="644" y1="409" y2="409" opacity="0.7529"/>
            <line clip-path="url(#clipPath1)" fill="none" x1="644" x2="644" y1="409" y2="409" opacity="0.7529"/>
            <line clip-path="url(#clipPath1)" fill="none" x1="644" x2="644" y1="409" y2="503" opacity="0.7529"/>
            <line clip-path="url(#clipPath1)" fill="none" x1="644" x2="708" y1="503" y2="503" opacity="0.7529"/>
            <line clip-path="url(#clipPath1)" fill="none" x1="708" x2="708" y1="503" y2="503" opacity="0.7529"/>
            <line clip-path="url(#clipPath1)" fill="none" x1="708" x2="708" y1="503" y2="532" opacity="0.7529"/>
            <line clip-path="url(#clipPath1)" fill="none" x1="708" x2="772" y1="532" y2="532" opacity="0.7529"/>
            <line clip-path="url(#clipPath1)" fill="none" x1="134" x2="198" y1="538" y2="538" opacity="0.7529" stroke="rgb(255,127,14)"/>
            <line clip-path="url(#clipPath1)" fill="none" x1="198" x2="198" y1="538" y2="538" opacity="0.7529" stroke="rgb(255,127,14)"/>
            <line clip-path="url(#clipPath1)" fill="none" x1="198" x2="198" y1="538" y2="403" opacity="0.7529" stroke="rgb(255,127,14)"/>
            <line clip-path="url(#clipPath1)" fill="none" x1="198" x2="262" y1="403" y2="403" opacity="0.7529" stroke="rgb(255,127,14)"/>
            <line clip-path="url(#clipPath1)" fill="none" x1="262" x2="262" y1="403" y2="403" opacity="0.7529" stroke="rgb(255,127,14)"/>
            <line clip-path="url(#clipPath1)" fill="none" x1="262" x2="262" y1="403" y2="234" opacity="0.7529" stroke="rgb(255,127,14)"/>
            <line clip-path="url(#clipPath1)" fill="none" x1="262" x2="326" y1="234" y2="234" opacity="0.7529" stroke="rgb(255,127,14)"/>
            <line clip-path="url(#clipPath1)" fill="none" x1="326" x2="326" y1="234" y2="234" opacity="0.7529" stroke="rgb(255,127,14)"/>
            <line clip-path="url(#clipPath1)" fill="none" x1="326" x2="326" y1="234" y2="234" opacity="0.7529" stroke="rgb(255,127,14)"/>
            <line clip-path="url(#clipPath1)" fill="none" x1="326" x2="389" y1="234" y2="234" opacity="0.7529" stroke="rgb(255,127,14)"/>
            <line clip-path="url(#clipPath1)" fill="none" x1="389" x2="389" y1="234" y2="234" opacity="0.7529" stroke="rgb(255,127,14)"/>
            <line clip-path="url(#clipPath1)" fill="none" x1="389" x2="389" y1="234" y2="287" opacity="0.7529" stroke="rgb(255,127,14)"/>
            <line clip-path="url(#clipPath1)" fill="none" x1="389" x2="453" y1="287" y2="287" opacity="0.7529" stroke="rgb(255,127,14)"/>
            <line clip-path="url(#clipPath1)" fill="none" x1="453" x2="453" y1="287" y2="287" opacity="0.7529" stroke="rgb(255,127,14)"/>
            <line clip-path="url(#clipPath1)" fill="none" x1="453" x2="453" y1="287" y2="269" opacity="0.7529" stroke="rgb(255,127,14)"/>
            <line clip-path="url(#clipPath1)" fill="none" x1="453" x2="517" y1="269" y2="269" opacity="0.7529" stroke="rgb(255,127,14)"/>
            <line clip-path="url(#clipPath1)" fill="none" x1="517" x2="517" y1="269" y2="269" opacity="0.7529" stroke="rgb(255,127,14)"/>
            <line clip-path="url(#clipPath1)" fill="none" x1="517" x2="517" y1="269" y2="380" opacity="0.7529" stroke="rgb(255,127,14)"/>
            <line clip-path="url(#clipPath1)" fill="none" x1="517" x2="581" y1="380" y2="380" opacity="0.7529" stroke="rgb(255,127,14)"/>
            <line clip-path="url(#clipPath1)" fill="none" x1="581" x2="581" y1="380" y2="380" opacity="0.7529" stroke="rgb(255,127,14)"/>
            <line clip-path="url(#clipPath1)" fill="none" x1="581" x2="581" y1="380" y2="520" opacity="0.7529" stroke="rgb(255,127,14)"/>
            <line clip-path="url(#clipPath1)" fill="none" x1="581" x2="644" y1="520" y2="520" opacity="0.7529" stroke="rgb(255,127,14)"/>
            <line clip-path="url(#clipPath1)" fill="none" x1="134" x2="198" y1="538" y2="538" opacity="0.7529" stroke="rgb(44,160,44)"/>
            <line clip-path="url(#clipPath1)" fill="none" x1="198" x2="198" y1="538" y2="538" opacity="0.7529" stroke="rgb(44,160,44)"/>
            <line clip-path="url(#clipPath1)" fill="none" x1="198" x2="198" y1="538" y2="409" opacity="0.7529" stroke="rgb(44,160,44)"/>
            <line clip-path="url(#clipPath1)" fill="none" x1="198" x2="262" y1="409" y2="409" opacity="0.7529" stroke="rgb(44,160,44)"/>
            <line clip-path="url(#clipPath1)" fill="none" x1="262" x2="262" y1="409" y2="409" opacity="0.7529" stroke="rgb(44,160,44)"/>
            <line clip-path="url(#clipPath1)" fill="none" x1="262" x2="262" y1="409" y2="176" opacity="0.7529" stroke="rgb(44,160,44)"/>
            <line clip-path="url(#clipPath1)" fill="none" x1="262" x2="326" y1="176" y2="176" opacity="0.7529" stroke="rgb(44,160,44)"/>
            <line clip-path="url(#clipPath1)" fill="none" x1="326" x2="326" y1="176" y2="176" opacity="0.7529" stroke="rgb(44,160,44)"/>
            <line clip-path="url(#clipPath1)" fill="none" x1="326" x2="326" y1="176" y2="182" opacity="0.7529" stroke="rgb(44,160,44)"/>
            <line clip-path="url(#clipPath1)" fill="none" x1="326" x2="389" y1="182" y2="182" opacity="0.7529" stroke="rgb(44,160,44)"/>
            <line clip-path="url(#clipPath1)" fill="none" x1="389" x2="389" y1="182" y2="182" opacity="0.7529" stroke="rgb(44,160,44)"/>
            <line clip-path="url(#clipPath1)" fill="none" x1="389" x2="389" y1="182" y2="258" opacity="0.7529" stroke="rgb(44,160,44)"/>
            <line clip-path="url(#clipPath1)" fill="none" x1="389" x2="453" y1="258" y2="258" opacity="0.7529" stroke="rgb(44,160,44)"/>
            <line clip-path="url(#clipPath1)" fill="none" x1="453" x2="453" y1="258" y2="258" opacity="0.7529" stroke="rgb(44,160,44)"/>
            <line clip-path="url(#clipPath1)" fill="none" x1="453" x2="453" y1="258" y2="339" opacity="0.7529" stroke="rgb(44,160,44)"/>
            <line clip-path="url(#clipPath1)" fill="none" x1="453" x2="517" y1="339" y2="339" opacity="0.7529" stroke="rgb(44,160,44)"/>
            <line clip-path="url(#clipPath1)" fill="none" x1="517" x2="517" y1="339" y2="339" opacity="0.7529" stroke="rgb(44,160,44)"/>
            <line clip-path="url(#clipPath1)" fill="none" x1="517" x2="517" y1="339" y2="421" opacity="0.7529" stroke="rgb(44,160,44)"/>
            <line clip-path="url(#clipPath1)" fill="none" x1="517" x2="581" y1="421" y2="421" opacity="0.7529" stroke="rgb(44,160,44)"/>
            <line clip-path="url(#clipPath1)" fill="none" x1="134" x2="198" y1="538" y2="538" opacity="0.7529" stroke="rgb(214,39,40)"/>
            <line clip-path="url(#clipPath1)" fill="none" x1="198" x2="198" y1="538" y2="538" opacity="0.7529" stroke="rgb(214,39,40)"/>
            <line clip-path="url(#clipPath1)" fill="none" x1="198" x2="198" y1="538" y2="345" opacity="0.7529" stroke="rgb(214,39,40)"/>
            <line clip-path="url(#clipPath1)" fill="none" x1="198" x2="262" y1="345" y2="345" opacity="0.7529" stroke="rgb(214,39,40)"/>
            <line clip-path="url(#clipPath1)" fill="none" x1="262" x2="262" y1="345" y2="345" opacity="0.7529" stroke="rgb(214,39,40)"/>
            <line clip-path="url(#clipPath1)" fill="none" x1="262" x2="262" y1="345" y2="205" opacity="0.7529" stroke="rgb(214,39,40)"/>
            <line clip-path="url(#clipPath1)" fill="none" x1="262" x2="326" y1="205" y2="205" opacity="0.7529" stroke="rgb(214,39,40)"/>
            <line clip-path="url(#clipPath1)" fill="none" x1="326" x2="326" y1="205" y2="205" opacity="0.7529" stroke="rgb(214,39,40)"/>
            <line clip-path="url(#clipPath1)" fill="none" x1="326" x2="326" y1="205" y2="205" opacity="0.7529" stroke="rgb(214,39,40)"/>
            <line clip-path="url(#clipPath1)" fill="none" x1="326" x2="389" y1="205" y2="205" opacity="0.7529" stroke="rgb(214,39,40)"/>
            <line clip-path="url(#clipPath1)" fill="none" x1="389" x2="389" y1="205" y2="205" opacity="0.7529" stroke="rgb(214,39,40)"/>
            <line clip-path="url(#clipPath1)" fill="none" x1="389" x2="389" y1="205" y2="275" opacity="0.7529" stroke="rgb(214,39,40)"/>
            <line clip-path="url(#clipPath1)" fill="none" x1="389" x2="453" y1="275" y2="275" opacity="0.7529" stroke="rgb(214,39,40)"/>
            <line clip-path="url(#clipPath1)" fill="none" x1="453" x2="453" y1="275" y2="275" opacity="0.7529" stroke="rgb(214,39,40)"/>
            <line clip-path="url(#clipPath1)" fill="none" x1="453" x2="453" y1="275" y2="339" opacity="0.7529" stroke="rgb(214,39,40)"/>
            <line clip-path="url(#clipPath1)" fill="none" x1="453" x2="517" y1="339" y2="339" opacity="0.7529" stroke="rgb(214,39,40)"/>
            <line clip-path="url(#clipPath1)" fill="none" x1="517" x2="517" y1="339" y2="339" opacity="0.7529" stroke="rgb(214,39,40)"/>
            <line clip-path="url(#clipPath1)" fill="none" x1="517" x2="517" y1="339" y2="415" opacity="0.7529" stroke="rgb(214,39,40)"/>
            <line clip-path="url(#clipPath1)" fill="none" x1="517" x2="581" y1="415" y2="415" opacity="0.7529" stroke="rgb(214,39,40)"/>
            <rect x="71" y="56" clip-path="url(#clipPath2)" fill="none" width="620" height="455" stroke="black" stroke-width="1"/>
        </g>
        <g text-rendering="optimizeLegibility" font-size="16" font-family="'Arial'" stroke-linecap="butt">
            <text xml:space="preserve" x="365" y="15" clip-path="url(#clipPath2)" stroke="none">.</text>
            <rect x="448" y="61" clip-path="url(#clipPath3)" fill="white" width="238" opacity="0.7529" height="121" stroke="none"/>
            <line clip-path="url(#clipPath3)" fill="none" x1="454" x2="468" y1="78" y2="78" stroke="rgb(31,119,180)" stroke-width="2"/>
            <text x="470" font-size="20" y="85" clip-path="url(#clipPath3)" stroke="none" font-weight="bold" stroke-width="2" xml:space="preserve">Frequency Bands$0=2</text>
        </g>
        <g stroke-linecap="butt" font-size="20" fill="rgb(255,127,14)" text-rendering="optimizeLegibility" font-family="'Arial'" stroke="rgb(255,127,14)" font-weight="bold" stroke-width="2">
            <line clip-path="url(#clipPath3)" fill="none" x1="454" x2="468" y1="107" y2="107"/>
            <text x="470" y="114" clip-path="url(#clipPath3)" fill="black" stroke="none" xml:space="preserve">Frequency Bands$0=4</text>
            <line clip-path="url(#clipPath3)" fill="none" x1="454" x2="468" y1="136" y2="136" stroke="rgb(44,160,44)"/>
            <text x="470" y="143" clip-path="url(#clipPath3)" fill="black" stroke="none" xml:space="preserve">Frequency Bands$0=6</text>
            <line clip-path="url(#clipPath3)" fill="none" x1="454" x2="468" y1="165" y2="165" stroke="rgb(214,39,40)"/>
            <text x="470" y="172" clip-path="url(#clipPath3)" fill="black" stroke="none" xml:space="preserve">Frequency Bands$0=8</text>
        </g>
        <g text-rendering="optimizeLegibility" font-size="23" font-family="'Arial'" font-weight="bold" stroke-linecap="butt">
            <line clip-path="url(#clipPath2)" fill="none" x1="71" x2="691" y1="54" y2="54"/>
            <line clip-path="url(#clipPath2)" fill="none" x1="71" x2="691" y1="513" y2="513"/>
            <text xml:space="preserve" x="308" y="569" clip-path="url(#clipPath2)" stroke="none">Depth of STA</text>
            <line clip-path="url(#clipPath2)" fill="none" x1="71" x2="71" y1="50" y2="54"/>
            <line clip-path="url(#clipPath2)" fill="none" x1="71" x2="71" y1="517" y2="513"/>
            <text xml:space="preserve" x="62" y="43" clip-path="url(#clipPath2)" stroke="none">-1</text>
            <text xml:space="preserve" x="62" y="539" clip-path="url(#clipPath2)" stroke="none">-1</text>
            <line clip-path="url(#clipPath2)" fill="none" x1="83" x2="83" y1="52" y2="54"/>
            <line clip-path="url(#clipPath2)" fill="none" x1="83" x2="83" y1="515" y2="513"/>
            <line clip-path="url(#clipPath2)" fill="none" x1="96" x2="96" y1="52" y2="54"/>
            <line clip-path="url(#clipPath2)" fill="none" x1="96" x2="96" y1="515" y2="513"/>
            <line clip-path="url(#clipPath2)" fill="none" x1="109" x2="109" y1="52" y2="54"/>
            <line clip-path="url(#clipPath2)" fill="none" x1="109" x2="109" y1="515" y2="513"/>
            <line clip-path="url(#clipPath2)" fill="none" x1="122" x2="122" y1="52" y2="54"/>
            <line clip-path="url(#clipPath2)" fill="none" x1="122" x2="122" y1="515" y2="513"/>
            <line clip-path="url(#clipPath2)" fill="none" x1="134" x2="134" y1="50" y2="54"/>
            <line clip-path="url(#clipPath2)" fill="none" x1="134" x2="134" y1="517" y2="513"/>
            <text xml:space="preserve" x="129" y="43" clip-path="url(#clipPath2)" stroke="none">0</text>
            <text xml:space="preserve" x="129" y="539" clip-path="url(#clipPath2)" stroke="none">0</text>
            <line clip-path="url(#clipPath2)" fill="none" x1="147" x2="147" y1="52" y2="54"/>
            <line clip-path="url(#clipPath2)" fill="none" x1="147" x2="147" y1="515" y2="513"/>
            <line clip-path="url(#clipPath2)" fill="none" x1="160" x2="160" y1="52" y2="54"/>
            <line clip-path="url(#clipPath2)" fill="none" x1="160" x2="160" y1="515" y2="513"/>
            <line clip-path="url(#clipPath2)" fill="none" x1="173" x2="173" y1="52" y2="54"/>
            <line clip-path="url(#clipPath2)" fill="none" x1="173" x2="173" y1="515" y2="513"/>
            <line clip-path="url(#clipPath2)" fill="none" x1="185" x2="185" y1="52" y2="54"/>
            <line clip-path="url(#clipPath2)" fill="none" x1="185" x2="185" y1="515" y2="513"/>
            <line clip-path="url(#clipPath2)" fill="none" x1="198" x2="198" y1="50" y2="54"/>
            <line clip-path="url(#clipPath2)" fill="none" x1="198" x2="198" y1="517" y2="513"/>
            <text xml:space="preserve" x="193" y="43" clip-path="url(#clipPath2)" stroke="none">1</text>
            <text xml:space="preserve" x="193" y="539" clip-path="url(#clipPath2)" stroke="none">1</text>
            <line clip-path="url(#clipPath2)" fill="none" x1="211" x2="211" y1="52" y2="54"/>
            <line clip-path="url(#clipPath2)" fill="none" x1="211" x2="211" y1="515" y2="513"/>
            <line clip-path="url(#clipPath2)" fill="none" x1="224" x2="224" y1="52" y2="54"/>
            <line clip-path="url(#clipPath2)" fill="none" x1="224" x2="224" y1="515" y2="513"/>
            <line clip-path="url(#clipPath2)" fill="none" x1="236" x2="236" y1="52" y2="54"/>
            <line clip-path="url(#clipPath2)" fill="none" x1="236" x2="236" y1="515" y2="513"/>
            <line clip-path="url(#clipPath2)" fill="none" x1="249" x2="249" y1="52" y2="54"/>
            <line clip-path="url(#clipPath2)" fill="none" x1="249" x2="249" y1="515" y2="513"/>
            <line clip-path="url(#clipPath2)" fill="none" x1="262" x2="262" y1="50" y2="54"/>
            <line clip-path="url(#clipPath2)" fill="none" x1="262" x2="262" y1="517" y2="513"/>
            <text xml:space="preserve" x="257" y="43" clip-path="url(#clipPath2)" stroke="none">2</text>
            <text xml:space="preserve" x="257" y="539" clip-path="url(#clipPath2)" stroke="none">2</text>
            <line clip-path="url(#clipPath2)" fill="none" x1="275" x2="275" y1="52" y2="54"/>
            <line clip-path="url(#clipPath2)" fill="none" x1="275" x2="275" y1="515" y2="513"/>
            <line clip-path="url(#clipPath2)" fill="none" x1="287" x2="287" y1="52" y2="54"/>
            <line clip-path="url(#clipPath2)" fill="none" x1="287" x2="287" y1="515" y2="513"/>
            <line clip-path="url(#clipPath2)" fill="none" x1="300" x2="300" y1="52" y2="54"/>
            <line clip-path="url(#clipPath2)" fill="none" x1="300" x2="300" y1="515" y2="513"/>
            <line clip-path="url(#clipPath2)" fill="none" x1="313" x2="313" y1="52" y2="54"/>
            <line clip-path="url(#clipPath2)" fill="none" x1="313" x2="313" y1="515" y2="513"/>
            <line clip-path="url(#clipPath2)" fill="none" x1="326" x2="326" y1="50" y2="54"/>
            <line clip-path="url(#clipPath2)" fill="none" x1="326" x2="326" y1="517" y2="513"/>
            <text xml:space="preserve" x="321" y="43" clip-path="url(#clipPath2)" stroke="none">3</text>
            <text xml:space="preserve" x="321" y="539" clip-path="url(#clipPath2)" stroke="none">3</text>
            <line clip-path="url(#clipPath2)" fill="none" x1="338" x2="338" y1="52" y2="54"/>
            <line clip-path="url(#clipPath2)" fill="none" x1="338" x2="338" y1="515" y2="513"/>
            <line clip-path="url(#clipPath2)" fill="none" x1="351" x2="351" y1="52" y2="54"/>
            <line clip-path="url(#clipPath2)" fill="none" x1="351" x2="351" y1="515" y2="513"/>
            <line clip-path="url(#clipPath2)" fill="none" x1="364" x2="364" y1="52" y2="54"/>
            <line clip-path="url(#clipPath2)" fill="none" x1="364" x2="364" y1="515" y2="513"/>
            <line clip-path="url(#clipPath2)" fill="none" x1="377" x2="377" y1="52" y2="54"/>
            <line clip-path="url(#clipPath2)" fill="none" x1="377" x2="377" y1="515" y2="513"/>
            <line clip-path="url(#clipPath2)" fill="none" x1="389" x2="389" y1="50" y2="54"/>
            <line clip-path="url(#clipPath2)" fill="none" x1="389" x2="389" y1="517" y2="513"/>
            <text xml:space="preserve" x="384" y="43" clip-path="url(#clipPath2)" stroke="none">4</text>
            <text xml:space="preserve" x="384" y="539" clip-path="url(#clipPath2)" stroke="none">4</text>
            <line clip-path="url(#clipPath2)" fill="none" x1="402" x2="402" y1="52" y2="54"/>
            <line clip-path="url(#clipPath2)" fill="none" x1="402" x2="402" y1="515" y2="513"/>
            <line clip-path="url(#clipPath2)" fill="none" x1="415" x2="415" y1="52" y2="54"/>
            <line clip-path="url(#clipPath2)" fill="none" x1="415" x2="415" y1="515" y2="513"/>
            <line clip-path="url(#clipPath2)" fill="none" x1="428" x2="428" y1="52" y2="54"/>
            <line clip-path="url(#clipPath2)" fill="none" x1="428" x2="428" y1="515" y2="513"/>
            <line clip-path="url(#clipPath2)" fill="none" x1="440" x2="440" y1="52" y2="54"/>
            <line clip-path="url(#clipPath2)" fill="none" x1="440" x2="440" y1="515" y2="513"/>
            <line clip-path="url(#clipPath2)" fill="none" x1="453" x2="453" y1="50" y2="54"/>
            <line clip-path="url(#clipPath2)" fill="none" x1="453" x2="453" y1="517" y2="513"/>
            <text xml:space="preserve" x="448" y="43" clip-path="url(#clipPath2)" stroke="none">5</text>
            <text xml:space="preserve" x="448" y="539" clip-path="url(#clipPath2)" stroke="none">5</text>
            <line clip-path="url(#clipPath2)" fill="none" x1="466" x2="466" y1="52" y2="54"/>
            <line clip-path="url(#clipPath2)" fill="none" x1="466" x2="466" y1="515" y2="513"/>
            <line clip-path="url(#clipPath2)" fill="none" x1="479" x2="479" y1="52" y2="54"/>
            <line clip-path="url(#clipPath2)" fill="none" x1="479" x2="479" y1="515" y2="513"/>
            <line clip-path="url(#clipPath2)" fill="none" x1="491" x2="491" y1="52" y2="54"/>
            <line clip-path="url(#clipPath2)" fill="none" x1="491" x2="491" y1="515" y2="513"/>
            <line clip-path="url(#clipPath2)" fill="none" x1="504" x2="504" y1="52" y2="54"/>
            <line clip-path="url(#clipPath2)" fill="none" x1="504" x2="504" y1="515" y2="513"/>
            <line clip-path="url(#clipPath2)" fill="none" x1="517" x2="517" y1="50" y2="54"/>
            <line clip-path="url(#clipPath2)" fill="none" x1="517" x2="517" y1="517" y2="513"/>
            <text xml:space="preserve" x="512" y="43" clip-path="url(#clipPath2)" stroke="none">6</text>
            <text xml:space="preserve" x="512" y="539" clip-path="url(#clipPath2)" stroke="none">6</text>
            <line clip-path="url(#clipPath2)" fill="none" x1="530" x2="530" y1="52" y2="54"/>
            <line clip-path="url(#clipPath2)" fill="none" x1="530" x2="530" y1="515" y2="513"/>
            <line clip-path="url(#clipPath2)" fill="none" x1="542" x2="542" y1="52" y2="54"/>
            <line clip-path="url(#clipPath2)" fill="none" x1="542" x2="542" y1="515" y2="513"/>
            <line clip-path="url(#clipPath2)" fill="none" x1="555" x2="555" y1="52" y2="54"/>
            <line clip-path="url(#clipPath2)" fill="none" x1="555" x2="555" y1="515" y2="513"/>
            <line clip-path="url(#clipPath2)" fill="none" x1="568" x2="568" y1="52" y2="54"/>
            <line clip-path="url(#clipPath2)" fill="none" x1="568" x2="568" y1="515" y2="513"/>
            <line clip-path="url(#clipPath2)" fill="none" x1="581" x2="581" y1="50" y2="54"/>
            <line clip-path="url(#clipPath2)" fill="none" x1="581" x2="581" y1="517" y2="513"/>
            <text xml:space="preserve" x="576" y="43" clip-path="url(#clipPath2)" stroke="none">7</text>
            <text xml:space="preserve" x="576" y="539" clip-path="url(#clipPath2)" stroke="none">7</text>
            <line clip-path="url(#clipPath2)" fill="none" x1="593" x2="593" y1="52" y2="54"/>
            <line clip-path="url(#clipPath2)" fill="none" x1="593" x2="593" y1="515" y2="513"/>
            <line clip-path="url(#clipPath2)" fill="none" x1="606" x2="606" y1="52" y2="54"/>
            <line clip-path="url(#clipPath2)" fill="none" x1="606" x2="606" y1="515" y2="513"/>
            <line clip-path="url(#clipPath2)" fill="none" x1="619" x2="619" y1="52" y2="54"/>
            <line clip-path="url(#clipPath2)" fill="none" x1="619" x2="619" y1="515" y2="513"/>
            <line clip-path="url(#clipPath2)" fill="none" x1="632" x2="632" y1="52" y2="54"/>
            <line clip-path="url(#clipPath2)" fill="none" x1="632" x2="632" y1="515" y2="513"/>
            <line clip-path="url(#clipPath2)" fill="none" x1="644" x2="644" y1="50" y2="54"/>
            <line clip-path="url(#clipPath2)" fill="none" x1="644" x2="644" y1="517" y2="513"/>
            <text xml:space="preserve" x="639" y="43" clip-path="url(#clipPath2)" stroke="none">8</text>
            <text xml:space="preserve" x="639" y="539" clip-path="url(#clipPath2)" stroke="none">8</text>
            <line clip-path="url(#clipPath2)" fill="none" x1="657" x2="657" y1="52" y2="54"/>
            <line clip-path="url(#clipPath2)" fill="none" x1="657" x2="657" y1="515" y2="513"/>
            <line clip-path="url(#clipPath2)" fill="none" x1="670" x2="670" y1="52" y2="54"/>
            <line clip-path="url(#clipPath2)" fill="none" x1="670" x2="670" y1="515" y2="513"/>
            <line clip-path="url(#clipPath2)" fill="none" x1="683" x2="683" y1="52" y2="54"/>
            <line clip-path="url(#clipPath2)" fill="none" x1="683" x2="683" y1="515" y2="513"/>
            <line clip-path="url(#clipPath2)" fill="none" x1="69" x2="69" y1="56" y2="511"/>
            <line clip-path="url(#clipPath2)" fill="none" x1="693" x2="693" y1="56" y2="511"/>
            <line clip-path="url(#clipPath2)" fill="none" x1="67" x2="69" y1="503" y2="503"/>
            <line clip-path="url(#clipPath2)" fill="none" x1="695" x2="693" y1="503" y2="503"/>
            <line clip-path="url(#clipPath2)" fill="none" x1="67" x2="69" y1="491" y2="491"/>
            <line clip-path="url(#clipPath2)" fill="none" x1="695" x2="693" y1="491" y2="491"/>
            <line clip-path="url(#clipPath2)" fill="none" x1="65" x2="69" y1="479" y2="479"/>
            <line clip-path="url(#clipPath2)" fill="none" x1="697" x2="693" y1="479" y2="479"/>
            <text xml:space="preserve" x="38" y="487" clip-path="url(#clipPath2)" stroke="none">10</text>
            <text xml:space="preserve" x="700" y="487" clip-path="url(#clipPath2)" stroke="none">10</text>
            <line clip-path="url(#clipPath2)" fill="none" x1="67" x2="69" y1="468" y2="468"/>
            <line clip-path="url(#clipPath2)" fill="none" x1="695" x2="693" y1="468" y2="468"/>
            <line clip-path="url(#clipPath2)" fill="none" x1="67" x2="69" y1="456" y2="456"/>
            <line clip-path="url(#clipPath2)" fill="none" x1="695" x2="693" y1="456" y2="456"/>
            <line clip-path="url(#clipPath2)" fill="none" x1="67" x2="69" y1="444" y2="444"/>
            <line clip-path="url(#clipPath2)" fill="none" x1="695" x2="693" y1="444" y2="444"/>
            <line clip-path="url(#clipPath2)" fill="none" x1="67" x2="69" y1="433" y2="433"/>
            <line clip-path="url(#clipPath2)" fill="none" x1="695" x2="693" y1="433" y2="433"/>
            <line clip-path="url(#clipPath2)" fill="none" x1="65" x2="69" y1="421" y2="421"/>
            <line clip-path="url(#clipPath2)" fill="none" x1="697" x2="693" y1="421" y2="421"/>
            <text xml:space="preserve" x="38" y="429" clip-path="url(#clipPath2)" stroke="none">20</text>
            <text xml:space="preserve" x="700" y="429" clip-path="url(#clipPath2)" stroke="none">20</text>
            <line clip-path="url(#clipPath2)" fill="none" x1="67" x2="69" y1="409" y2="409"/>
            <line clip-path="url(#clipPath2)" fill="none" x1="695" x2="693" y1="409" y2="409"/>
            <line clip-path="url(#clipPath2)" fill="none" x1="67" x2="69" y1="398" y2="398"/>
            <line clip-path="url(#clipPath2)" fill="none" x1="695" x2="693" y1="398" y2="398"/>
            <line clip-path="url(#clipPath2)" fill="none" x1="67" x2="69" y1="386" y2="386"/>
            <line clip-path="url(#clipPath2)" fill="none" x1="695" x2="693" y1="386" y2="386"/>
            <line clip-path="url(#clipPath2)" fill="none" x1="67" x2="69" y1="374" y2="374"/>
            <line clip-path="url(#clipPath2)" fill="none" x1="695" x2="693" y1="374" y2="374"/>
            <line clip-path="url(#clipPath2)" fill="none" x1="65" x2="69" y1="363" y2="363"/>
            <line clip-path="url(#clipPath2)" fill="none" x1="697" x2="693" y1="363" y2="363"/>
            <text xml:space="preserve" x="38" y="371" clip-path="url(#clipPath2)" stroke="none">30</text>
            <text xml:space="preserve" x="700" y="371" clip-path="url(#clipPath2)" stroke="none">30</text>
            <line clip-path="url(#clipPath2)" fill="none" x1="67" x2="69" y1="351" y2="351"/>
            <line clip-path="url(#clipPath2)" fill="none" x1="695" x2="693" y1="351" y2="351"/>
            <line clip-path="url(#clipPath2)" fill="none" x1="67" x2="69" y1="339" y2="339"/>
            <line clip-path="url(#clipPath2)" fill="none" x1="695" x2="693" y1="339" y2="339"/>
            <line clip-path="url(#clipPath2)" fill="none" x1="67" x2="69" y1="328" y2="328"/>
            <line clip-path="url(#clipPath2)" fill="none" x1="695" x2="693" y1="328" y2="328"/>
            <line clip-path="url(#clipPath2)" fill="none" x1="67" x2="69" y1="316" y2="316"/>
            <line clip-path="url(#clipPath2)" fill="none" x1="695" x2="693" y1="316" y2="316"/>
            <line clip-path="url(#clipPath2)" fill="none" x1="65" x2="69" y1="304" y2="304"/>
            <line clip-path="url(#clipPath2)" fill="none" x1="697" x2="693" y1="304" y2="304"/>
            <text xml:space="preserve" x="38" y="312" clip-path="url(#clipPath2)" stroke="none">40</text>
            <text xml:space="preserve" x="700" y="312" clip-path="url(#clipPath2)" stroke="none">40</text>
            <line clip-path="url(#clipPath2)" fill="none" x1="67" x2="69" y1="293" y2="293"/>
            <line clip-path="url(#clipPath2)" fill="none" x1="695" x2="693" y1="293" y2="293"/>
            <line clip-path="url(#clipPath2)" fill="none" x1="67" x2="69" y1="281" y2="281"/>
            <line clip-path="url(#clipPath2)" fill="none" x1="695" x2="693" y1="281" y2="281"/>
            <line clip-path="url(#clipPath2)" fill="none" x1="67" x2="69" y1="269" y2="269"/>
            <line clip-path="url(#clipPath2)" fill="none" x1="695" x2="693" y1="269" y2="269"/>
            <line clip-path="url(#clipPath2)" fill="none" x1="67" x2="69" y1="258" y2="258"/>
            <line clip-path="url(#clipPath2)" fill="none" x1="695" x2="693" y1="258" y2="258"/>
            <line clip-path="url(#clipPath2)" fill="none" x1="65" x2="69" y1="246" y2="246"/>
            <line clip-path="url(#clipPath2)" fill="none" x1="697" x2="693" y1="246" y2="246"/>
            <text xml:space="preserve" x="38" y="254" clip-path="url(#clipPath2)" stroke="none">50</text>
            <text xml:space="preserve" x="700" y="254" clip-path="url(#clipPath2)" stroke="none">50</text>
            <line clip-path="url(#clipPath2)" fill="none" x1="67" x2="69" y1="234" y2="234"/>
            <line clip-path="url(#clipPath2)" fill="none" x1="695" x2="693" y1="234" y2="234"/>
            <line clip-path="url(#clipPath2)" fill="none" x1="67" x2="69" y1="223" y2="223"/>
            <line clip-path="url(#clipPath2)" fill="none" x1="695" x2="693" y1="223" y2="223"/>
            <line clip-path="url(#clipPath2)" fill="none" x1="67" x2="69" y1="211" y2="211"/>
            <line clip-path="url(#clipPath2)" fill="none" x1="695" x2="693" y1="211" y2="211"/>
            <line clip-path="url(#clipPath2)" fill="none" x1="67" x2="69" y1="199" y2="199"/>
            <line clip-path="url(#clipPath2)" fill="none" x1="695" x2="693" y1="199" y2="199"/>
            <line clip-path="url(#clipPath2)" fill="none" x1="65" x2="69" y1="188" y2="188"/>
            <line clip-path="url(#clipPath2)" fill="none" x1="697" x2="693" y1="188" y2="188"/>
            <text xml:space="preserve" x="38" y="196" clip-path="url(#clipPath2)" stroke="none">60</text>
            <text xml:space="preserve" x="700" y="196" clip-path="url(#clipPath2)" stroke="none">60</text>
            <line clip-path="url(#clipPath2)" fill="none" x1="67" x2="69" y1="176" y2="176"/>
            <line clip-path="url(#clipPath2)" fill="none" x1="695" x2="693" y1="176" y2="176"/>
            <line clip-path="url(#clipPath2)" fill="none" x1="67" x2="69" y1="164" y2="164"/>
            <line clip-path="url(#clipPath2)" fill="none" x1="695" x2="693" y1="164" y2="164"/>
            <line clip-path="url(#clipPath2)" fill="none" x1="67" x2="69" y1="153" y2="153"/>
            <line clip-path="url(#clipPath2)" fill="none" x1="695" x2="693" y1="153" y2="153"/>
            <line clip-path="url(#clipPath2)" fill="none" x1="67" x2="69" y1="141" y2="141"/>
            <line clip-path="url(#clipPath2)" fill="none" x1="695" x2="693" y1="141" y2="141"/>
            <line clip-path="url(#clipPath2)" fill="none" x1="65" x2="69" y1="129" y2="129"/>
            <line clip-path="url(#clipPath2)" fill="none" x1="697" x2="693" y1="129" y2="129"/>
            <text xml:space="preserve" x="38" y="137" clip-path="url(#clipPath2)" stroke="none">70</text>
            <text xml:space="preserve" x="700" y="137" clip-path="url(#clipPath2)" stroke="none">70</text>
            <line clip-path="url(#clipPath2)" fill="none" x1="67" x2="69" y1="118" y2="118"/>
            <line clip-path="url(#clipPath2)" fill="none" x1="695" x2="693" y1="118" y2="118"/>
            <line clip-path="url(#clipPath2)" fill="none" x1="67" x2="69" y1="106" y2="106"/>
            <line clip-path="url(#clipPath2)" fill="none" x1="695" x2="693" y1="106" y2="106"/>
            <line clip-path="url(#clipPath2)" fill="none" x1="67" x2="69" y1="94" y2="94"/>
            <line clip-path="url(#clipPath2)" fill="none" x1="695" x2="693" y1="94" y2="94"/>
            <line clip-path="url(#clipPath2)" fill="none" x1="67" x2="69" y1="83" y2="83"/>
            <line clip-path="url(#clipPath2)" fill="none" x1="695" x2="693" y1="83" y2="83"/>
            <line clip-path="url(#clipPath2)" fill="none" x1="65" x2="69" y1="71" y2="71"/>
            <line clip-path="url(#clipPath2)" fill="none" x1="697" x2="693" y1="71" y2="71"/>
            <text xml:space="preserve" x="38" y="79" clip-path="url(#clipPath2)" stroke="none">80</text>
            <text xml:space="preserve" x="700" y="79" clip-path="url(#clipPath2)" stroke="none">80</text>
            <line clip-path="url(#clipPath2)" fill="none" x1="67" x2="69" y1="59" y2="59"/>
            <line clip-path="url(#clipPath2)" fill="none" x1="695" x2="693" y1="59" y2="59"/>
        </g>
    </g>
</svg>
