<?xml version="1.0" encoding="UTF-8"?><svg xmlns="http://www.w3.org/2000/svg" xmlns:xlink="http://www.w3.org/1999/xlink" stroke-dasharray="none" shape-rendering="auto" font-family="'Dialog'" width="765" text-rendering="auto" fill-opacity="1" contentScriptType="text/ecmascript" color-interpolation="auto" color-rendering="auto" preserveAspectRatio="xMidYMid meet" font-size="12" fill="black" stroke="black" image-rendering="auto" stroke-miterlimit="10" zoomAndPan="magnify" version="1.0" stroke-linecap="square" stroke-linejoin="miter" contentStyleType="text/css" font-style="normal" height="581" stroke-width="1" stroke-dashoffset="0" font-weight="normal" stroke-opacity="1">
    <!--Generated by the Batik Graphics2D SVG Generator-->
    <defs id="genericDefs"/>
    <g>
        <defs id="defs1">
            <clipPath clipPathUnits="userSpaceOnUse" id="clipPath1">
                <path d="M75 55 L717 55 L717 518 L75 518 L75 55 Z"/>
            </clipPath>
            <clipPath clipPathUnits="userSpaceOnUse" id="clipPath2">
                <path d="M-1 -1 L766 -1 L766 582 L-1 582 L-1 -1 Z"/>
            </clipPath>
            <clipPath clipPathUnits="userSpaceOnUse" id="clipPath3">
                <path d="M459 60 L713 60 L713 184 L459 184 L459 60 Z"/>
            </clipPath>
        </defs>
        <g font-size="15" fill="white" text-rendering="optimizeLegibility" font-family="'Microsoft YaHei UI'" stroke-linejoin="round" stroke="white" stroke-width="0" stroke-miterlimit="0">
            <rect x="76" y="56" clip-path="url(#clipPath1)" width="640" height="461" stroke="none"/>
        </g>
        <g stroke-linecap="butt" font-size="15" fill="rgb(204,204,204)" text-rendering="optimizeLegibility" font-family="'Microsoft YaHei UI'" stroke-dasharray="3,3" stroke="rgb(204,204,204)">
            <line clip-path="url(#clipPath1)" fill="none" x1="76" x2="716" y1="517" y2="517"/>
            <line clip-path="url(#clipPath1)" fill="none" x1="76" x2="716" y1="466" y2="466"/>
            <line clip-path="url(#clipPath1)" fill="none" x1="76" x2="716" y1="416" y2="416"/>
            <line clip-path="url(#clipPath1)" fill="none" x1="76" x2="716" y1="366" y2="366"/>
            <line clip-path="url(#clipPath1)" fill="none" x1="76" x2="716" y1="316" y2="316"/>
            <line clip-path="url(#clipPath1)" fill="none" x1="76" x2="716" y1="266" y2="266"/>
            <line clip-path="url(#clipPath1)" fill="none" x1="76" x2="716" y1="216" y2="216"/>
            <line clip-path="url(#clipPath1)" fill="none" x1="76" x2="716" y1="166" y2="166"/>
            <line clip-path="url(#clipPath1)" fill="none" x1="76" x2="716" y1="116" y2="116"/>
            <line clip-path="url(#clipPath1)" fill="none" x1="76" x2="716" y1="66" y2="66"/>
        </g>
        <g stroke-linecap="butt" font-size="15" fill="rgb(31,119,180)" text-rendering="optimizeLegibility" font-family="'Microsoft YaHei UI'" stroke="rgb(31,119,180)" stroke-width="2">
            <line clip-path="url(#clipPath1)" fill="none" x1="129" x2="205" y1="517" y2="517" opacity="0.7529"/>
            <line clip-path="url(#clipPath1)" fill="none" x1="205" x2="205" y1="517" y2="517" opacity="0.7529"/>
            <line clip-path="url(#clipPath1)" fill="none" x1="205" x2="205" y1="517" y2="456" opacity="0.7529"/>
            <line clip-path="url(#clipPath1)" fill="none" x1="205" x2="281" y1="456" y2="456" opacity="0.7529"/>
            <line clip-path="url(#clipPath1)" fill="none" x1="281" x2="281" y1="456" y2="456" opacity="0.7529"/>
            <line clip-path="url(#clipPath1)" fill="none" x1="281" x2="281" y1="456" y2="286" opacity="0.7529"/>
            <line clip-path="url(#clipPath1)" fill="none" x1="281" x2="357" y1="286" y2="286" opacity="0.7529"/>
            <line clip-path="url(#clipPath1)" fill="none" x1="357" x2="357" y1="286" y2="286" opacity="0.7529"/>
            <line clip-path="url(#clipPath1)" fill="none" x1="357" x2="357" y1="286" y2="251" opacity="0.7529"/>
            <line clip-path="url(#clipPath1)" fill="none" x1="357" x2="434" y1="251" y2="251" opacity="0.7529"/>
            <line clip-path="url(#clipPath1)" fill="none" x1="434" x2="434" y1="251" y2="251" opacity="0.7529"/>
            <line clip-path="url(#clipPath1)" fill="none" x1="434" x2="434" y1="251" y2="256" opacity="0.7529"/>
            <line clip-path="url(#clipPath1)" fill="none" x1="434" x2="510" y1="256" y2="256" opacity="0.7529"/>
            <line clip-path="url(#clipPath1)" fill="none" x1="510" x2="510" y1="256" y2="256" opacity="0.7529"/>
            <line clip-path="url(#clipPath1)" fill="none" x1="510" x2="510" y1="256" y2="256" opacity="0.7529"/>
            <line clip-path="url(#clipPath1)" fill="none" x1="510" x2="586" y1="256" y2="256" opacity="0.7529"/>
            <line clip-path="url(#clipPath1)" fill="none" x1="586" x2="586" y1="256" y2="256" opacity="0.7529"/>
            <line clip-path="url(#clipPath1)" fill="none" x1="586" x2="586" y1="256" y2="381" opacity="0.7529"/>
            <line clip-path="url(#clipPath1)" fill="none" x1="586" x2="662" y1="381" y2="381" opacity="0.7529"/>
            <line clip-path="url(#clipPath1)" fill="none" x1="129" x2="205" y1="517" y2="517" opacity="0.7529" stroke="rgb(255,127,14)"/>
            <line clip-path="url(#clipPath1)" fill="none" x1="205" x2="205" y1="517" y2="517" opacity="0.7529" stroke="rgb(255,127,14)"/>
            <line clip-path="url(#clipPath1)" fill="none" x1="205" x2="205" y1="517" y2="401" opacity="0.7529" stroke="rgb(255,127,14)"/>
            <line clip-path="url(#clipPath1)" fill="none" x1="205" x2="281" y1="401" y2="401" opacity="0.7529" stroke="rgb(255,127,14)"/>
            <line clip-path="url(#clipPath1)" fill="none" x1="281" x2="281" y1="401" y2="401" opacity="0.7529" stroke="rgb(255,127,14)"/>
            <line clip-path="url(#clipPath1)" fill="none" x1="281" x2="281" y1="401" y2="206" opacity="0.7529" stroke="rgb(255,127,14)"/>
            <line clip-path="url(#clipPath1)" fill="none" x1="281" x2="357" y1="206" y2="206" opacity="0.7529" stroke="rgb(255,127,14)"/>
            <line clip-path="url(#clipPath1)" fill="none" x1="357" x2="357" y1="206" y2="206" opacity="0.7529" stroke="rgb(255,127,14)"/>
            <line clip-path="url(#clipPath1)" fill="none" x1="357" x2="357" y1="206" y2="251" opacity="0.7529" stroke="rgb(255,127,14)"/>
            <line clip-path="url(#clipPath1)" fill="none" x1="357" x2="434" y1="251" y2="251" opacity="0.7529" stroke="rgb(255,127,14)"/>
            <line clip-path="url(#clipPath1)" fill="none" x1="434" x2="434" y1="251" y2="251" opacity="0.7529" stroke="rgb(255,127,14)"/>
            <line clip-path="url(#clipPath1)" fill="none" x1="434" x2="434" y1="251" y2="276" opacity="0.7529" stroke="rgb(255,127,14)"/>
            <line clip-path="url(#clipPath1)" fill="none" x1="434" x2="510" y1="276" y2="276" opacity="0.7529" stroke="rgb(255,127,14)"/>
            <line clip-path="url(#clipPath1)" fill="none" x1="510" x2="510" y1="276" y2="276" opacity="0.7529" stroke="rgb(255,127,14)"/>
            <line clip-path="url(#clipPath1)" fill="none" x1="510" x2="510" y1="276" y2="326" opacity="0.7529" stroke="rgb(255,127,14)"/>
            <line clip-path="url(#clipPath1)" fill="none" x1="510" x2="586" y1="326" y2="326" opacity="0.7529" stroke="rgb(255,127,14)"/>
            <line clip-path="url(#clipPath1)" fill="none" x1="586" x2="586" y1="326" y2="326" opacity="0.7529" stroke="rgb(255,127,14)"/>
            <line clip-path="url(#clipPath1)" fill="none" x1="586" x2="586" y1="326" y2="411" opacity="0.7529" stroke="rgb(255,127,14)"/>
            <line clip-path="url(#clipPath1)" fill="none" x1="586" x2="662" y1="411" y2="411" opacity="0.7529" stroke="rgb(255,127,14)"/>
            <line clip-path="url(#clipPath1)" fill="none" x1="129" x2="205" y1="517" y2="517" opacity="0.7529" stroke="rgb(44,160,44)"/>
            <line clip-path="url(#clipPath1)" fill="none" x1="205" x2="205" y1="517" y2="517" opacity="0.7529" stroke="rgb(44,160,44)"/>
            <line clip-path="url(#clipPath1)" fill="none" x1="205" x2="205" y1="517" y2="406" opacity="0.7529" stroke="rgb(44,160,44)"/>
            <line clip-path="url(#clipPath1)" fill="none" x1="205" x2="281" y1="406" y2="406" opacity="0.7529" stroke="rgb(44,160,44)"/>
            <line clip-path="url(#clipPath1)" fill="none" x1="281" x2="281" y1="406" y2="406" opacity="0.7529" stroke="rgb(44,160,44)"/>
            <line clip-path="url(#clipPath1)" fill="none" x1="281" x2="281" y1="406" y2="171" opacity="0.7529" stroke="rgb(44,160,44)"/>
            <line clip-path="url(#clipPath1)" fill="none" x1="281" x2="357" y1="171" y2="171" opacity="0.7529" stroke="rgb(44,160,44)"/>
            <line clip-path="url(#clipPath1)" fill="none" x1="357" x2="357" y1="171" y2="171" opacity="0.7529" stroke="rgb(44,160,44)"/>
            <line clip-path="url(#clipPath1)" fill="none" x1="357" x2="357" y1="171" y2="211" opacity="0.7529" stroke="rgb(44,160,44)"/>
            <line clip-path="url(#clipPath1)" fill="none" x1="357" x2="434" y1="211" y2="211" opacity="0.7529" stroke="rgb(44,160,44)"/>
            <line clip-path="url(#clipPath1)" fill="none" x1="434" x2="434" y1="211" y2="211" opacity="0.7529" stroke="rgb(44,160,44)"/>
            <line clip-path="url(#clipPath1)" fill="none" x1="434" x2="434" y1="211" y2="306" opacity="0.7529" stroke="rgb(44,160,44)"/>
            <line clip-path="url(#clipPath1)" fill="none" x1="434" x2="510" y1="306" y2="306" opacity="0.7529" stroke="rgb(44,160,44)"/>
            <line clip-path="url(#clipPath1)" fill="none" x1="510" x2="510" y1="306" y2="306" opacity="0.7529" stroke="rgb(44,160,44)"/>
            <line clip-path="url(#clipPath1)" fill="none" x1="510" x2="510" y1="306" y2="351" opacity="0.7529" stroke="rgb(44,160,44)"/>
            <line clip-path="url(#clipPath1)" fill="none" x1="510" x2="586" y1="351" y2="351" opacity="0.7529" stroke="rgb(44,160,44)"/>
            <line clip-path="url(#clipPath1)" fill="none" x1="586" x2="586" y1="351" y2="351" opacity="0.7529" stroke="rgb(44,160,44)"/>
            <line clip-path="url(#clipPath1)" fill="none" x1="586" x2="586" y1="351" y2="416" opacity="0.7529" stroke="rgb(44,160,44)"/>
            <line clip-path="url(#clipPath1)" fill="none" x1="586" x2="662" y1="416" y2="416" opacity="0.7529" stroke="rgb(44,160,44)"/>
            <line clip-path="url(#clipPath1)" fill="none" x1="129" x2="205" y1="517" y2="517" opacity="0.7529" stroke="rgb(214,39,40)"/>
            <line clip-path="url(#clipPath1)" fill="none" x1="205" x2="205" y1="517" y2="517" opacity="0.7529" stroke="rgb(214,39,40)"/>
            <line clip-path="url(#clipPath1)" fill="none" x1="205" x2="205" y1="517" y2="351" opacity="0.7529" stroke="rgb(214,39,40)"/>
            <line clip-path="url(#clipPath1)" fill="none" x1="205" x2="281" y1="351" y2="351" opacity="0.7529" stroke="rgb(214,39,40)"/>
            <line clip-path="url(#clipPath1)" fill="none" x1="281" x2="281" y1="351" y2="351" opacity="0.7529" stroke="rgb(214,39,40)"/>
            <line clip-path="url(#clipPath1)" fill="none" x1="281" x2="281" y1="351" y2="216" opacity="0.7529" stroke="rgb(214,39,40)"/>
            <line clip-path="url(#clipPath1)" fill="none" x1="281" x2="357" y1="216" y2="216" opacity="0.7529" stroke="rgb(214,39,40)"/>
            <line clip-path="url(#clipPath1)" fill="none" x1="357" x2="357" y1="216" y2="216" opacity="0.7529" stroke="rgb(214,39,40)"/>
            <line clip-path="url(#clipPath1)" fill="none" x1="357" x2="357" y1="216" y2="201" opacity="0.7529" stroke="rgb(214,39,40)"/>
            <line clip-path="url(#clipPath1)" fill="none" x1="357" x2="434" y1="201" y2="201" opacity="0.7529" stroke="rgb(214,39,40)"/>
            <line clip-path="url(#clipPath1)" fill="none" x1="434" x2="434" y1="201" y2="201" opacity="0.7529" stroke="rgb(214,39,40)"/>
            <line clip-path="url(#clipPath1)" fill="none" x1="434" x2="434" y1="201" y2="306" opacity="0.7529" stroke="rgb(214,39,40)"/>
            <line clip-path="url(#clipPath1)" fill="none" x1="434" x2="510" y1="306" y2="306" opacity="0.7529" stroke="rgb(214,39,40)"/>
            <line clip-path="url(#clipPath1)" fill="none" x1="510" x2="510" y1="306" y2="306" opacity="0.7529" stroke="rgb(214,39,40)"/>
            <line clip-path="url(#clipPath1)" fill="none" x1="510" x2="510" y1="306" y2="371" opacity="0.7529" stroke="rgb(214,39,40)"/>
            <line clip-path="url(#clipPath1)" fill="none" x1="510" x2="586" y1="371" y2="371" opacity="0.7529" stroke="rgb(214,39,40)"/>
            <line clip-path="url(#clipPath1)" fill="none" x1="586" x2="586" y1="371" y2="371" opacity="0.7529" stroke="rgb(214,39,40)"/>
            <line clip-path="url(#clipPath1)" fill="none" x1="586" x2="586" y1="371" y2="416" opacity="0.7529" stroke="rgb(214,39,40)"/>
            <line clip-path="url(#clipPath1)" fill="none" x1="586" x2="662" y1="416" y2="416" opacity="0.7529" stroke="rgb(214,39,40)"/>
            <rect x="76" y="56" clip-path="url(#clipPath2)" fill="none" width="640" height="461" stroke="black" stroke-width="1"/>
        </g>
        <g text-rendering="optimizeLegibility" font-size="16" font-family="'Arial'" stroke-linecap="butt">
            <text xml:space="preserve" x="380" y="15" clip-path="url(#clipPath2)" stroke="none">.</text>
            <rect x="460" y="61" clip-path="url(#clipPath3)" fill="white" width="251" opacity="0.7529" height="121" stroke="none"/>
            <line clip-path="url(#clipPath3)" fill="none" x1="466" x2="480" y1="78" y2="78" stroke="rgb(31,119,180)" stroke-width="2"/>
            <text x="482" font-size="20" y="85" clip-path="url(#clipPath3)" stroke="none" font-weight="bold" stroke-width="2" xml:space="preserve">Frequency Bands: $0=2</text>
        </g>
        <g stroke-linecap="butt" font-size="20" fill="rgb(255,127,14)" text-rendering="optimizeLegibility" font-family="'Arial'" stroke="rgb(255,127,14)" font-weight="bold" stroke-width="2">
            <line clip-path="url(#clipPath3)" fill="none" x1="466" x2="480" y1="107" y2="107"/>
            <text x="482" y="114" clip-path="url(#clipPath3)" fill="black" stroke="none" xml:space="preserve">Frequency Bands: $0=4</text>
            <line clip-path="url(#clipPath3)" fill="none" x1="466" x2="480" y1="136" y2="136" stroke="rgb(44,160,44)"/>
            <text x="482" y="143" clip-path="url(#clipPath3)" fill="black" stroke="none" xml:space="preserve">Frequency Bands: $0=6</text>
            <line clip-path="url(#clipPath3)" fill="none" x1="466" x2="480" y1="165" y2="165" stroke="rgb(214,39,40)"/>
            <text x="482" y="172" clip-path="url(#clipPath3)" fill="black" stroke="none" xml:space="preserve">Frequency Bands: $0=8</text>
        </g>
        <g text-rendering="optimizeLegibility" font-size="23" font-family="'Arial'" font-weight="bold" stroke-linecap="butt">
            <line clip-path="url(#clipPath2)" fill="none" x1="76" x2="716" y1="54" y2="54"/>
            <line clip-path="url(#clipPath2)" fill="none" x1="76" x2="716" y1="519" y2="519"/>
            <text xml:space="preserve" x="323" y="575" clip-path="url(#clipPath2)" stroke="none">Depth of STA</text>
            <line clip-path="url(#clipPath2)" fill="none" x1="83" x2="83" y1="52" y2="54"/>
            <line clip-path="url(#clipPath2)" fill="none" x1="83" x2="83" y1="521" y2="519"/>
            <line clip-path="url(#clipPath2)" fill="none" x1="98" x2="98" y1="52" y2="54"/>
            <line clip-path="url(#clipPath2)" fill="none" x1="98" x2="98" y1="521" y2="519"/>
            <line clip-path="url(#clipPath2)" fill="none" x1="114" x2="114" y1="52" y2="54"/>
            <line clip-path="url(#clipPath2)" fill="none" x1="114" x2="114" y1="521" y2="519"/>
            <line clip-path="url(#clipPath2)" fill="none" x1="129" x2="129" y1="50" y2="54"/>
            <line clip-path="url(#clipPath2)" fill="none" x1="129" x2="129" y1="523" y2="519"/>
            <text xml:space="preserve" x="124" y="43" clip-path="url(#clipPath2)" stroke="none">0</text>
            <text xml:space="preserve" x="124" y="545" clip-path="url(#clipPath2)" stroke="none">0</text>
            <line clip-path="url(#clipPath2)" fill="none" x1="144" x2="144" y1="52" y2="54"/>
            <line clip-path="url(#clipPath2)" fill="none" x1="144" x2="144" y1="521" y2="519"/>
            <line clip-path="url(#clipPath2)" fill="none" x1="159" x2="159" y1="52" y2="54"/>
            <line clip-path="url(#clipPath2)" fill="none" x1="159" x2="159" y1="521" y2="519"/>
            <line clip-path="url(#clipPath2)" fill="none" x1="175" x2="175" y1="52" y2="54"/>
            <line clip-path="url(#clipPath2)" fill="none" x1="175" x2="175" y1="521" y2="519"/>
            <line clip-path="url(#clipPath2)" fill="none" x1="190" x2="190" y1="52" y2="54"/>
            <line clip-path="url(#clipPath2)" fill="none" x1="190" x2="190" y1="521" y2="519"/>
            <line clip-path="url(#clipPath2)" fill="none" x1="205" x2="205" y1="50" y2="54"/>
            <line clip-path="url(#clipPath2)" fill="none" x1="205" x2="205" y1="523" y2="519"/>
            <text xml:space="preserve" x="200" y="43" clip-path="url(#clipPath2)" stroke="none">1</text>
            <text xml:space="preserve" x="200" y="545" clip-path="url(#clipPath2)" stroke="none">1</text>
            <line clip-path="url(#clipPath2)" fill="none" x1="220" x2="220" y1="52" y2="54"/>
            <line clip-path="url(#clipPath2)" fill="none" x1="220" x2="220" y1="521" y2="519"/>
            <line clip-path="url(#clipPath2)" fill="none" x1="235" x2="235" y1="52" y2="54"/>
            <line clip-path="url(#clipPath2)" fill="none" x1="235" x2="235" y1="521" y2="519"/>
            <line clip-path="url(#clipPath2)" fill="none" x1="251" x2="251" y1="52" y2="54"/>
            <line clip-path="url(#clipPath2)" fill="none" x1="251" x2="251" y1="521" y2="519"/>
            <line clip-path="url(#clipPath2)" fill="none" x1="266" x2="266" y1="52" y2="54"/>
            <line clip-path="url(#clipPath2)" fill="none" x1="266" x2="266" y1="521" y2="519"/>
            <line clip-path="url(#clipPath2)" fill="none" x1="281" x2="281" y1="50" y2="54"/>
            <line clip-path="url(#clipPath2)" fill="none" x1="281" x2="281" y1="523" y2="519"/>
            <text xml:space="preserve" x="276" y="43" clip-path="url(#clipPath2)" stroke="none">2</text>
            <text xml:space="preserve" x="276" y="545" clip-path="url(#clipPath2)" stroke="none">2</text>
            <line clip-path="url(#clipPath2)" fill="none" x1="296" x2="296" y1="52" y2="54"/>
            <line clip-path="url(#clipPath2)" fill="none" x1="296" x2="296" y1="521" y2="519"/>
            <line clip-path="url(#clipPath2)" fill="none" x1="312" x2="312" y1="52" y2="54"/>
            <line clip-path="url(#clipPath2)" fill="none" x1="312" x2="312" y1="521" y2="519"/>
            <line clip-path="url(#clipPath2)" fill="none" x1="327" x2="327" y1="52" y2="54"/>
            <line clip-path="url(#clipPath2)" fill="none" x1="327" x2="327" y1="521" y2="519"/>
            <line clip-path="url(#clipPath2)" fill="none" x1="342" x2="342" y1="52" y2="54"/>
            <line clip-path="url(#clipPath2)" fill="none" x1="342" x2="342" y1="521" y2="519"/>
            <line clip-path="url(#clipPath2)" fill="none" x1="357" x2="357" y1="50" y2="54"/>
            <line clip-path="url(#clipPath2)" fill="none" x1="357" x2="357" y1="523" y2="519"/>
            <text xml:space="preserve" x="352" y="43" clip-path="url(#clipPath2)" stroke="none">3</text>
            <text xml:space="preserve" x="352" y="545" clip-path="url(#clipPath2)" stroke="none">3</text>
            <line clip-path="url(#clipPath2)" fill="none" x1="373" x2="373" y1="52" y2="54"/>
            <line clip-path="url(#clipPath2)" fill="none" x1="373" x2="373" y1="521" y2="519"/>
            <line clip-path="url(#clipPath2)" fill="none" x1="388" x2="388" y1="52" y2="54"/>
            <line clip-path="url(#clipPath2)" fill="none" x1="388" x2="388" y1="521" y2="519"/>
            <line clip-path="url(#clipPath2)" fill="none" x1="403" x2="403" y1="52" y2="54"/>
            <line clip-path="url(#clipPath2)" fill="none" x1="403" x2="403" y1="521" y2="519"/>
            <line clip-path="url(#clipPath2)" fill="none" x1="418" x2="418" y1="52" y2="54"/>
            <line clip-path="url(#clipPath2)" fill="none" x1="418" x2="418" y1="521" y2="519"/>
            <line clip-path="url(#clipPath2)" fill="none" x1="434" x2="434" y1="50" y2="54"/>
            <line clip-path="url(#clipPath2)" fill="none" x1="434" x2="434" y1="523" y2="519"/>
            <text xml:space="preserve" x="429" y="43" clip-path="url(#clipPath2)" stroke="none">4</text>
            <text xml:space="preserve" x="429" y="545" clip-path="url(#clipPath2)" stroke="none">4</text>
            <line clip-path="url(#clipPath2)" fill="none" x1="449" x2="449" y1="52" y2="54"/>
            <line clip-path="url(#clipPath2)" fill="none" x1="449" x2="449" y1="521" y2="519"/>
            <line clip-path="url(#clipPath2)" fill="none" x1="464" x2="464" y1="52" y2="54"/>
            <line clip-path="url(#clipPath2)" fill="none" x1="464" x2="464" y1="521" y2="519"/>
            <line clip-path="url(#clipPath2)" fill="none" x1="479" x2="479" y1="52" y2="54"/>
            <line clip-path="url(#clipPath2)" fill="none" x1="479" x2="479" y1="521" y2="519"/>
            <line clip-path="url(#clipPath2)" fill="none" x1="495" x2="495" y1="52" y2="54"/>
            <line clip-path="url(#clipPath2)" fill="none" x1="495" x2="495" y1="521" y2="519"/>
            <line clip-path="url(#clipPath2)" fill="none" x1="510" x2="510" y1="50" y2="54"/>
            <line clip-path="url(#clipPath2)" fill="none" x1="510" x2="510" y1="523" y2="519"/>
            <text xml:space="preserve" x="505" y="43" clip-path="url(#clipPath2)" stroke="none">5</text>
            <text xml:space="preserve" x="505" y="545" clip-path="url(#clipPath2)" stroke="none">5</text>
            <line clip-path="url(#clipPath2)" fill="none" x1="525" x2="525" y1="52" y2="54"/>
            <line clip-path="url(#clipPath2)" fill="none" x1="525" x2="525" y1="521" y2="519"/>
            <line clip-path="url(#clipPath2)" fill="none" x1="540" x2="540" y1="52" y2="54"/>
            <line clip-path="url(#clipPath2)" fill="none" x1="540" x2="540" y1="521" y2="519"/>
            <line clip-path="url(#clipPath2)" fill="none" x1="556" x2="556" y1="52" y2="54"/>
            <line clip-path="url(#clipPath2)" fill="none" x1="556" x2="556" y1="521" y2="519"/>
            <line clip-path="url(#clipPath2)" fill="none" x1="571" x2="571" y1="52" y2="54"/>
            <line clip-path="url(#clipPath2)" fill="none" x1="571" x2="571" y1="521" y2="519"/>
            <line clip-path="url(#clipPath2)" fill="none" x1="586" x2="586" y1="50" y2="54"/>
            <line clip-path="url(#clipPath2)" fill="none" x1="586" x2="586" y1="523" y2="519"/>
            <text xml:space="preserve" x="581" y="43" clip-path="url(#clipPath2)" stroke="none">6</text>
            <text xml:space="preserve" x="581" y="545" clip-path="url(#clipPath2)" stroke="none">6</text>
            <line clip-path="url(#clipPath2)" fill="none" x1="601" x2="601" y1="52" y2="54"/>
            <line clip-path="url(#clipPath2)" fill="none" x1="601" x2="601" y1="521" y2="519"/>
            <line clip-path="url(#clipPath2)" fill="none" x1="616" x2="616" y1="52" y2="54"/>
            <line clip-path="url(#clipPath2)" fill="none" x1="616" x2="616" y1="521" y2="519"/>
            <line clip-path="url(#clipPath2)" fill="none" x1="632" x2="632" y1="52" y2="54"/>
            <line clip-path="url(#clipPath2)" fill="none" x1="632" x2="632" y1="521" y2="519"/>
            <line clip-path="url(#clipPath2)" fill="none" x1="647" x2="647" y1="52" y2="54"/>
            <line clip-path="url(#clipPath2)" fill="none" x1="647" x2="647" y1="521" y2="519"/>
            <line clip-path="url(#clipPath2)" fill="none" x1="662" x2="662" y1="50" y2="54"/>
            <line clip-path="url(#clipPath2)" fill="none" x1="662" x2="662" y1="523" y2="519"/>
            <text xml:space="preserve" x="657" y="43" clip-path="url(#clipPath2)" stroke="none">7</text>
            <text xml:space="preserve" x="657" y="545" clip-path="url(#clipPath2)" stroke="none">7</text>
            <line clip-path="url(#clipPath2)" fill="none" x1="677" x2="677" y1="52" y2="54"/>
            <line clip-path="url(#clipPath2)" fill="none" x1="677" x2="677" y1="521" y2="519"/>
            <line clip-path="url(#clipPath2)" fill="none" x1="693" x2="693" y1="52" y2="54"/>
            <line clip-path="url(#clipPath2)" fill="none" x1="693" x2="693" y1="521" y2="519"/>
            <line clip-path="url(#clipPath2)" fill="none" x1="708" x2="708" y1="52" y2="54"/>
            <line clip-path="url(#clipPath2)" fill="none" x1="708" x2="708" y1="521" y2="519"/>
            <line clip-path="url(#clipPath2)" fill="none" x1="74" x2="74" y1="56" y2="517"/>
            <line clip-path="url(#clipPath2)" fill="none" x1="718" x2="718" y1="56" y2="517"/>
            <line clip-path="url(#clipPath2)" fill="none" x1="70" x2="74" y1="517" y2="517"/>
            <line clip-path="url(#clipPath2)" fill="none" x1="722" x2="718" y1="517" y2="517"/>
            <text xml:space="preserve" x="56" y="525" clip-path="url(#clipPath2)" stroke="none">0</text>
            <text xml:space="preserve" x="725" y="525" clip-path="url(#clipPath2)" stroke="none">0</text>
            <line clip-path="url(#clipPath2)" fill="none" x1="72" x2="74" y1="506" y2="506"/>
            <line clip-path="url(#clipPath2)" fill="none" x1="720" x2="718" y1="506" y2="506"/>
            <line clip-path="url(#clipPath2)" fill="none" x1="72" x2="74" y1="496" y2="496"/>
            <line clip-path="url(#clipPath2)" fill="none" x1="720" x2="718" y1="496" y2="496"/>
            <line clip-path="url(#clipPath2)" fill="none" x1="72" x2="74" y1="486" y2="486"/>
            <line clip-path="url(#clipPath2)" fill="none" x1="720" x2="718" y1="486" y2="486"/>
            <line clip-path="url(#clipPath2)" fill="none" x1="72" x2="74" y1="476" y2="476"/>
            <line clip-path="url(#clipPath2)" fill="none" x1="720" x2="718" y1="476" y2="476"/>
            <line clip-path="url(#clipPath2)" fill="none" x1="70" x2="74" y1="466" y2="466"/>
            <line clip-path="url(#clipPath2)" fill="none" x1="722" x2="718" y1="466" y2="466"/>
            <text xml:space="preserve" x="43" y="474" clip-path="url(#clipPath2)" stroke="none">10</text>
            <text xml:space="preserve" x="725" y="474" clip-path="url(#clipPath2)" stroke="none">10</text>
            <line clip-path="url(#clipPath2)" fill="none" x1="72" x2="74" y1="456" y2="456"/>
            <line clip-path="url(#clipPath2)" fill="none" x1="720" x2="718" y1="456" y2="456"/>
            <line clip-path="url(#clipPath2)" fill="none" x1="72" x2="74" y1="446" y2="446"/>
            <line clip-path="url(#clipPath2)" fill="none" x1="720" x2="718" y1="446" y2="446"/>
            <line clip-path="url(#clipPath2)" fill="none" x1="72" x2="74" y1="436" y2="436"/>
            <line clip-path="url(#clipPath2)" fill="none" x1="720" x2="718" y1="436" y2="436"/>
            <line clip-path="url(#clipPath2)" fill="none" x1="72" x2="74" y1="426" y2="426"/>
            <line clip-path="url(#clipPath2)" fill="none" x1="720" x2="718" y1="426" y2="426"/>
            <line clip-path="url(#clipPath2)" fill="none" x1="70" x2="74" y1="416" y2="416"/>
            <line clip-path="url(#clipPath2)" fill="none" x1="722" x2="718" y1="416" y2="416"/>
            <text xml:space="preserve" x="43" y="424" clip-path="url(#clipPath2)" stroke="none">20</text>
            <text xml:space="preserve" x="725" y="424" clip-path="url(#clipPath2)" stroke="none">20</text>
            <line clip-path="url(#clipPath2)" fill="none" x1="72" x2="74" y1="406" y2="406"/>
            <line clip-path="url(#clipPath2)" fill="none" x1="720" x2="718" y1="406" y2="406"/>
            <line clip-path="url(#clipPath2)" fill="none" x1="72" x2="74" y1="396" y2="396"/>
            <line clip-path="url(#clipPath2)" fill="none" x1="720" x2="718" y1="396" y2="396"/>
            <line clip-path="url(#clipPath2)" fill="none" x1="72" x2="74" y1="386" y2="386"/>
            <line clip-path="url(#clipPath2)" fill="none" x1="720" x2="718" y1="386" y2="386"/>
            <line clip-path="url(#clipPath2)" fill="none" x1="72" x2="74" y1="376" y2="376"/>
            <line clip-path="url(#clipPath2)" fill="none" x1="720" x2="718" y1="376" y2="376"/>
            <line clip-path="url(#clipPath2)" fill="none" x1="70" x2="74" y1="366" y2="366"/>
            <line clip-path="url(#clipPath2)" fill="none" x1="722" x2="718" y1="366" y2="366"/>
            <text xml:space="preserve" x="43" y="374" clip-path="url(#clipPath2)" stroke="none">30</text>
            <text xml:space="preserve" x="725" y="374" clip-path="url(#clipPath2)" stroke="none">30</text>
            <line clip-path="url(#clipPath2)" fill="none" x1="72" x2="74" y1="356" y2="356"/>
            <line clip-path="url(#clipPath2)" fill="none" x1="720" x2="718" y1="356" y2="356"/>
            <line clip-path="url(#clipPath2)" fill="none" x1="72" x2="74" y1="346" y2="346"/>
            <line clip-path="url(#clipPath2)" fill="none" x1="720" x2="718" y1="346" y2="346"/>
            <line clip-path="url(#clipPath2)" fill="none" x1="72" x2="74" y1="336" y2="336"/>
            <line clip-path="url(#clipPath2)" fill="none" x1="720" x2="718" y1="336" y2="336"/>
            <line clip-path="url(#clipPath2)" fill="none" x1="72" x2="74" y1="326" y2="326"/>
            <line clip-path="url(#clipPath2)" fill="none" x1="720" x2="718" y1="326" y2="326"/>
            <line clip-path="url(#clipPath2)" fill="none" x1="70" x2="74" y1="316" y2="316"/>
            <line clip-path="url(#clipPath2)" fill="none" x1="722" x2="718" y1="316" y2="316"/>
            <text xml:space="preserve" x="43" y="324" clip-path="url(#clipPath2)" stroke="none">40</text>
            <text xml:space="preserve" x="725" y="324" clip-path="url(#clipPath2)" stroke="none">40</text>
            <line clip-path="url(#clipPath2)" fill="none" x1="72" x2="74" y1="306" y2="306"/>
            <line clip-path="url(#clipPath2)" fill="none" x1="720" x2="718" y1="306" y2="306"/>
            <line clip-path="url(#clipPath2)" fill="none" x1="72" x2="74" y1="296" y2="296"/>
            <line clip-path="url(#clipPath2)" fill="none" x1="720" x2="718" y1="296" y2="296"/>
            <line clip-path="url(#clipPath2)" fill="none" x1="72" x2="74" y1="286" y2="286"/>
            <line clip-path="url(#clipPath2)" fill="none" x1="720" x2="718" y1="286" y2="286"/>
            <line clip-path="url(#clipPath2)" fill="none" x1="72" x2="74" y1="276" y2="276"/>
            <line clip-path="url(#clipPath2)" fill="none" x1="720" x2="718" y1="276" y2="276"/>
            <line clip-path="url(#clipPath2)" fill="none" x1="70" x2="74" y1="266" y2="266"/>
            <line clip-path="url(#clipPath2)" fill="none" x1="722" x2="718" y1="266" y2="266"/>
            <text xml:space="preserve" x="43" y="274" clip-path="url(#clipPath2)" stroke="none">50</text>
            <text xml:space="preserve" x="725" y="274" clip-path="url(#clipPath2)" stroke="none">50</text>
            <line clip-path="url(#clipPath2)" fill="none" x1="72" x2="74" y1="256" y2="256"/>
            <line clip-path="url(#clipPath2)" fill="none" x1="720" x2="718" y1="256" y2="256"/>
            <line clip-path="url(#clipPath2)" fill="none" x1="72" x2="74" y1="246" y2="246"/>
            <line clip-path="url(#clipPath2)" fill="none" x1="720" x2="718" y1="246" y2="246"/>
            <line clip-path="url(#clipPath2)" fill="none" x1="72" x2="74" y1="236" y2="236"/>
            <line clip-path="url(#clipPath2)" fill="none" x1="720" x2="718" y1="236" y2="236"/>
            <line clip-path="url(#clipPath2)" fill="none" x1="72" x2="74" y1="226" y2="226"/>
            <line clip-path="url(#clipPath2)" fill="none" x1="720" x2="718" y1="226" y2="226"/>
            <line clip-path="url(#clipPath2)" fill="none" x1="70" x2="74" y1="216" y2="216"/>
            <line clip-path="url(#clipPath2)" fill="none" x1="722" x2="718" y1="216" y2="216"/>
            <text xml:space="preserve" x="43" y="224" clip-path="url(#clipPath2)" stroke="none">60</text>
            <text xml:space="preserve" x="725" y="224" clip-path="url(#clipPath2)" stroke="none">60</text>
            <line clip-path="url(#clipPath2)" fill="none" x1="72" x2="74" y1="206" y2="206"/>
            <line clip-path="url(#clipPath2)" fill="none" x1="720" x2="718" y1="206" y2="206"/>
            <line clip-path="url(#clipPath2)" fill="none" x1="72" x2="74" y1="196" y2="196"/>
            <line clip-path="url(#clipPath2)" fill="none" x1="720" x2="718" y1="196" y2="196"/>
            <line clip-path="url(#clipPath2)" fill="none" x1="72" x2="74" y1="186" y2="186"/>
            <line clip-path="url(#clipPath2)" fill="none" x1="720" x2="718" y1="186" y2="186"/>
            <line clip-path="url(#clipPath2)" fill="none" x1="72" x2="74" y1="176" y2="176"/>
            <line clip-path="url(#clipPath2)" fill="none" x1="720" x2="718" y1="176" y2="176"/>
            <line clip-path="url(#clipPath2)" fill="none" x1="70" x2="74" y1="166" y2="166"/>
            <line clip-path="url(#clipPath2)" fill="none" x1="722" x2="718" y1="166" y2="166"/>
            <text xml:space="preserve" x="43" y="174" clip-path="url(#clipPath2)" stroke="none">70</text>
            <text xml:space="preserve" x="725" y="174" clip-path="url(#clipPath2)" stroke="none">70</text>
            <line clip-path="url(#clipPath2)" fill="none" x1="72" x2="74" y1="156" y2="156"/>
            <line clip-path="url(#clipPath2)" fill="none" x1="720" x2="718" y1="156" y2="156"/>
            <line clip-path="url(#clipPath2)" fill="none" x1="72" x2="74" y1="146" y2="146"/>
            <line clip-path="url(#clipPath2)" fill="none" x1="720" x2="718" y1="146" y2="146"/>
            <line clip-path="url(#clipPath2)" fill="none" x1="72" x2="74" y1="136" y2="136"/>
            <line clip-path="url(#clipPath2)" fill="none" x1="720" x2="718" y1="136" y2="136"/>
            <line clip-path="url(#clipPath2)" fill="none" x1="72" x2="74" y1="126" y2="126"/>
            <line clip-path="url(#clipPath2)" fill="none" x1="720" x2="718" y1="126" y2="126"/>
            <line clip-path="url(#clipPath2)" fill="none" x1="70" x2="74" y1="116" y2="116"/>
            <line clip-path="url(#clipPath2)" fill="none" x1="722" x2="718" y1="116" y2="116"/>
            <text xml:space="preserve" x="43" y="124" clip-path="url(#clipPath2)" stroke="none">80</text>
            <text xml:space="preserve" x="725" y="124" clip-path="url(#clipPath2)" stroke="none">80</text>
            <line clip-path="url(#clipPath2)" fill="none" x1="72" x2="74" y1="106" y2="106"/>
            <line clip-path="url(#clipPath2)" fill="none" x1="720" x2="718" y1="106" y2="106"/>
            <line clip-path="url(#clipPath2)" fill="none" x1="72" x2="74" y1="96" y2="96"/>
            <line clip-path="url(#clipPath2)" fill="none" x1="720" x2="718" y1="96" y2="96"/>
            <line clip-path="url(#clipPath2)" fill="none" x1="72" x2="74" y1="86" y2="86"/>
            <line clip-path="url(#clipPath2)" fill="none" x1="720" x2="718" y1="86" y2="86"/>
            <line clip-path="url(#clipPath2)" fill="none" x1="72" x2="74" y1="76" y2="76"/>
            <line clip-path="url(#clipPath2)" fill="none" x1="720" x2="718" y1="76" y2="76"/>
            <line clip-path="url(#clipPath2)" fill="none" x1="70" x2="74" y1="66" y2="66"/>
            <line clip-path="url(#clipPath2)" fill="none" x1="722" x2="718" y1="66" y2="66"/>
            <text xml:space="preserve" x="43" y="74" clip-path="url(#clipPath2)" stroke="none">90</text>
            <text xml:space="preserve" x="725" y="74" clip-path="url(#clipPath2)" stroke="none">90</text>
            <line clip-path="url(#clipPath2)" fill="none" x1="72" x2="74" y1="56" y2="56"/>
            <line clip-path="url(#clipPath2)" fill="none" x1="720" x2="718" y1="56" y2="56"/>
        </g>
    </g>
</svg>
