<?xml version="1.0" encoding="UTF-8"?><svg xmlns="http://www.w3.org/2000/svg" xmlns:xlink="http://www.w3.org/1999/xlink" stroke-dasharray="none" shape-rendering="auto" font-family="'Dialog'" width="728" text-rendering="auto" fill-opacity="1" contentScriptType="text/ecmascript" color-interpolation="auto" color-rendering="auto" preserveAspectRatio="xMidYMid meet" font-size="12" fill="black" stroke="black" image-rendering="auto" stroke-miterlimit="10" zoomAndPan="magnify" version="1.0" stroke-linecap="square" stroke-linejoin="miter" contentStyleType="text/css" font-style="normal" height="575" stroke-width="1" stroke-dashoffset="0" font-weight="normal" stroke-opacity="1">
    <!--Generated by the Batik Graphics2D SVG Generator-->
    <defs id="genericDefs"/>
    <g>
        <defs id="defs1">
            <clipPath clipPathUnits="userSpaceOnUse" id="clipPath1">
                <path d="M83 55 L672 55 L672 512 L83 512 L83 55 Z"/>
            </clipPath>
            <clipPath clipPathUnits="userSpaceOnUse" id="clipPath2">
                <path d="M-1 -1 L729 -1 L729 576 L-1 576 L-1 -1 Z"/>
            </clipPath>
            <clipPath clipPathUnits="userSpaceOnUse" id="clipPath3">
                <path d="M427 60 L668 60 L668 184 L427 184 L427 60 Z"/>
            </clipPath>
        </defs>
        <g font-size="15" fill="white" text-rendering="optimizeLegibility" font-family="'Microsoft YaHei UI'" stroke-linejoin="round" stroke="white" stroke-width="0" stroke-miterlimit="0">
            <rect x="84" y="56" clip-path="url(#clipPath1)" width="587" height="455" stroke="none"/>
        </g>
        <g stroke-linecap="butt" font-size="15" fill="rgb(204,204,204)" text-rendering="optimizeLegibility" font-family="'Microsoft YaHei UI'" stroke-dasharray="3,3" stroke="rgb(204,204,204)">
            <line clip-path="url(#clipPath1)" fill="none" x1="84" x2="671" y1="480" y2="480"/>
            <line clip-path="url(#clipPath1)" fill="none" x1="84" x2="671" y1="416" y2="416"/>
            <line clip-path="url(#clipPath1)" fill="none" x1="84" x2="671" y1="353" y2="353"/>
            <line clip-path="url(#clipPath1)" fill="none" x1="84" x2="671" y1="289" y2="289"/>
            <line clip-path="url(#clipPath1)" fill="none" x1="84" x2="671" y1="225" y2="225"/>
            <line clip-path="url(#clipPath1)" fill="none" x1="84" x2="671" y1="162" y2="162"/>
            <line clip-path="url(#clipPath1)" fill="none" x1="84" x2="671" y1="98" y2="98"/>
        </g>
        <g stroke-linecap="butt" font-size="15" fill="rgb(31,119,180)" text-rendering="optimizeLegibility" font-family="'Microsoft YaHei UI'" stroke="rgb(31,119,180)" stroke-width="2">
            <line clip-path="url(#clipPath1)" fill="none" x1="146" x2="215" y1="544" y2="544" opacity="0.7529"/>
            <line clip-path="url(#clipPath1)" fill="none" x1="215" x2="215" y1="544" y2="544" opacity="0.7529"/>
            <line clip-path="url(#clipPath1)" fill="none" x1="215" x2="215" y1="544" y2="512" opacity="0.7529"/>
            <line clip-path="url(#clipPath1)" fill="none" x1="215" x2="285" y1="512" y2="512" opacity="0.7529"/>
            <line clip-path="url(#clipPath1)" fill="none" x1="285" x2="285" y1="512" y2="512" opacity="0.7529"/>
            <line clip-path="url(#clipPath1)" fill="none" x1="285" x2="285" y1="512" y2="483" opacity="0.7529"/>
            <line clip-path="url(#clipPath1)" fill="none" x1="285" x2="354" y1="483" y2="483" opacity="0.7529"/>
            <line clip-path="url(#clipPath1)" fill="none" x1="354" x2="354" y1="483" y2="483" opacity="0.7529"/>
            <line clip-path="url(#clipPath1)" fill="none" x1="354" x2="354" y1="483" y2="429" opacity="0.7529"/>
            <line clip-path="url(#clipPath1)" fill="none" x1="354" x2="423" y1="429" y2="429" opacity="0.7529"/>
            <line clip-path="url(#clipPath1)" fill="none" x1="423" x2="423" y1="429" y2="429" opacity="0.7529"/>
            <line clip-path="url(#clipPath1)" fill="none" x1="423" x2="423" y1="429" y2="378" opacity="0.7529"/>
            <line clip-path="url(#clipPath1)" fill="none" x1="423" x2="493" y1="378" y2="378" opacity="0.7529"/>
            <line clip-path="url(#clipPath1)" fill="none" x1="493" x2="493" y1="378" y2="378" opacity="0.7529"/>
            <line clip-path="url(#clipPath1)" fill="none" x1="493" x2="493" y1="378" y2="388" opacity="0.7529"/>
            <line clip-path="url(#clipPath1)" fill="none" x1="493" x2="562" y1="388" y2="388" opacity="0.7529"/>
            <line clip-path="url(#clipPath1)" fill="none" x1="562" x2="562" y1="388" y2="388" opacity="0.7529"/>
            <line clip-path="url(#clipPath1)" fill="none" x1="562" x2="562" y1="388" y2="423" opacity="0.7529"/>
            <line clip-path="url(#clipPath1)" fill="none" x1="562" x2="631" y1="423" y2="423" opacity="0.7529"/>
            <line clip-path="url(#clipPath1)" fill="none" x1="631" x2="631" y1="423" y2="423" opacity="0.7529"/>
            <line clip-path="url(#clipPath1)" fill="none" x1="631" x2="631" y1="423" y2="499" opacity="0.7529"/>
            <line clip-path="url(#clipPath1)" fill="none" x1="631" x2="701" y1="499" y2="499" opacity="0.7529"/>
            <line clip-path="url(#clipPath1)" fill="none" x1="701" x2="701" y1="499" y2="499" opacity="0.7529"/>
            <line clip-path="url(#clipPath1)" fill="none" x1="701" x2="701" y1="499" y2="531" opacity="0.7529"/>
            <line clip-path="url(#clipPath1)" fill="none" x1="701" x2="770" y1="531" y2="531" opacity="0.7529"/>
            <line clip-path="url(#clipPath1)" fill="none" x1="146" x2="215" y1="544" y2="544" opacity="0.7529" stroke="rgb(255,127,14)"/>
            <line clip-path="url(#clipPath1)" fill="none" x1="215" x2="215" y1="544" y2="544" opacity="0.7529" stroke="rgb(255,127,14)"/>
            <line clip-path="url(#clipPath1)" fill="none" x1="215" x2="215" y1="544" y2="483" opacity="0.7529" stroke="rgb(255,127,14)"/>
            <line clip-path="url(#clipPath1)" fill="none" x1="215" x2="285" y1="483" y2="483" opacity="0.7529" stroke="rgb(255,127,14)"/>
            <line clip-path="url(#clipPath1)" fill="none" x1="285" x2="285" y1="483" y2="483" opacity="0.7529" stroke="rgb(255,127,14)"/>
            <line clip-path="url(#clipPath1)" fill="none" x1="285" x2="285" y1="483" y2="349" opacity="0.7529" stroke="rgb(255,127,14)"/>
            <line clip-path="url(#clipPath1)" fill="none" x1="285" x2="354" y1="349" y2="349" opacity="0.7529" stroke="rgb(255,127,14)"/>
            <line clip-path="url(#clipPath1)" fill="none" x1="354" x2="354" y1="349" y2="349" opacity="0.7529" stroke="rgb(255,127,14)"/>
            <line clip-path="url(#clipPath1)" fill="none" x1="354" x2="354" y1="349" y2="178" opacity="0.7529" stroke="rgb(255,127,14)"/>
            <line clip-path="url(#clipPath1)" fill="none" x1="354" x2="423" y1="178" y2="178" opacity="0.7529" stroke="rgb(255,127,14)"/>
            <line clip-path="url(#clipPath1)" fill="none" x1="423" x2="423" y1="178" y2="178" opacity="0.7529" stroke="rgb(255,127,14)"/>
            <line clip-path="url(#clipPath1)" fill="none" x1="423" x2="423" y1="178" y2="403" opacity="0.7529" stroke="rgb(255,127,14)"/>
            <line clip-path="url(#clipPath1)" fill="none" x1="423" x2="493" y1="403" y2="403" opacity="0.7529" stroke="rgb(255,127,14)"/>
            <line clip-path="url(#clipPath1)" fill="none" x1="493" x2="493" y1="403" y2="403" opacity="0.7529" stroke="rgb(255,127,14)"/>
            <line clip-path="url(#clipPath1)" fill="none" x1="493" x2="493" y1="403" y2="521" opacity="0.7529" stroke="rgb(255,127,14)"/>
            <line clip-path="url(#clipPath1)" fill="none" x1="493" x2="562" y1="521" y2="521" opacity="0.7529" stroke="rgb(255,127,14)"/>
            <line clip-path="url(#clipPath1)" fill="none" x1="146" x2="215" y1="544" y2="544" opacity="0.7529" stroke="rgb(44,160,44)"/>
            <line clip-path="url(#clipPath1)" fill="none" x1="215" x2="215" y1="544" y2="544" opacity="0.7529" stroke="rgb(44,160,44)"/>
            <line clip-path="url(#clipPath1)" fill="none" x1="215" x2="215" y1="544" y2="403" opacity="0.7529" stroke="rgb(44,160,44)"/>
            <line clip-path="url(#clipPath1)" fill="none" x1="215" x2="285" y1="403" y2="403" opacity="0.7529" stroke="rgb(44,160,44)"/>
            <line clip-path="url(#clipPath1)" fill="none" x1="285" x2="285" y1="403" y2="403" opacity="0.7529" stroke="rgb(44,160,44)"/>
            <line clip-path="url(#clipPath1)" fill="none" x1="285" x2="285" y1="403" y2="219" opacity="0.7529" stroke="rgb(44,160,44)"/>
            <line clip-path="url(#clipPath1)" fill="none" x1="285" x2="354" y1="219" y2="219" opacity="0.7529" stroke="rgb(44,160,44)"/>
            <line clip-path="url(#clipPath1)" fill="none" x1="354" x2="354" y1="219" y2="219" opacity="0.7529" stroke="rgb(44,160,44)"/>
            <line clip-path="url(#clipPath1)" fill="none" x1="354" x2="354" y1="219" y2="302" opacity="0.7529" stroke="rgb(44,160,44)"/>
            <line clip-path="url(#clipPath1)" fill="none" x1="354" x2="423" y1="302" y2="302" opacity="0.7529" stroke="rgb(44,160,44)"/>
            <line clip-path="url(#clipPath1)" fill="none" x1="423" x2="423" y1="302" y2="302" opacity="0.7529" stroke="rgb(44,160,44)"/>
            <line clip-path="url(#clipPath1)" fill="none" x1="423" x2="423" y1="302" y2="464" opacity="0.7529" stroke="rgb(44,160,44)"/>
            <line clip-path="url(#clipPath1)" fill="none" x1="423" x2="493" y1="464" y2="464" opacity="0.7529" stroke="rgb(44,160,44)"/>
            <line clip-path="url(#clipPath1)" fill="none" x1="146" x2="215" y1="544" y2="544" opacity="0.7529" stroke="rgb(214,39,40)"/>
            <line clip-path="url(#clipPath1)" fill="none" x1="215" x2="215" y1="544" y2="544" opacity="0.7529" stroke="rgb(214,39,40)"/>
            <line clip-path="url(#clipPath1)" fill="none" x1="215" x2="215" y1="544" y2="419" opacity="0.7529" stroke="rgb(214,39,40)"/>
            <line clip-path="url(#clipPath1)" fill="none" x1="215" x2="285" y1="419" y2="419" opacity="0.7529" stroke="rgb(214,39,40)"/>
            <line clip-path="url(#clipPath1)" fill="none" x1="285" x2="285" y1="419" y2="419" opacity="0.7529" stroke="rgb(214,39,40)"/>
            <line clip-path="url(#clipPath1)" fill="none" x1="285" x2="285" y1="419" y2="184" opacity="0.7529" stroke="rgb(214,39,40)"/>
            <line clip-path="url(#clipPath1)" fill="none" x1="285" x2="354" y1="184" y2="184" opacity="0.7529" stroke="rgb(214,39,40)"/>
            <line clip-path="url(#clipPath1)" fill="none" x1="354" x2="354" y1="184" y2="184" opacity="0.7529" stroke="rgb(214,39,40)"/>
            <line clip-path="url(#clipPath1)" fill="none" x1="354" x2="354" y1="184" y2="318" opacity="0.7529" stroke="rgb(214,39,40)"/>
            <line clip-path="url(#clipPath1)" fill="none" x1="354" x2="423" y1="318" y2="318" opacity="0.7529" stroke="rgb(214,39,40)"/>
            <line clip-path="url(#clipPath1)" fill="none" x1="423" x2="423" y1="318" y2="318" opacity="0.7529" stroke="rgb(214,39,40)"/>
            <line clip-path="url(#clipPath1)" fill="none" x1="423" x2="423" y1="318" y2="473" opacity="0.7529" stroke="rgb(214,39,40)"/>
            <line clip-path="url(#clipPath1)" fill="none" x1="423" x2="493" y1="473" y2="473" opacity="0.7529" stroke="rgb(214,39,40)"/>
            <line clip-path="url(#clipPath1)" fill="none" x1="493" x2="493" y1="473" y2="473" opacity="0.7529" stroke="rgb(214,39,40)"/>
            <line clip-path="url(#clipPath1)" fill="none" x1="493" x2="493" y1="473" y2="537" opacity="0.7529" stroke="rgb(214,39,40)"/>
            <line clip-path="url(#clipPath1)" fill="none" x1="493" x2="562" y1="537" y2="537" opacity="0.7529" stroke="rgb(214,39,40)"/>
            <rect x="84" y="56" clip-path="url(#clipPath2)" fill="none" width="587" height="455" stroke="black" stroke-width="1"/>
        </g>
        <g text-rendering="optimizeLegibility" font-size="16" font-family="'Arial'" stroke-linecap="butt">
            <text xml:space="preserve" x="361" y="15" clip-path="url(#clipPath2)" stroke="none">.</text>
            <rect x="428" y="61" clip-path="url(#clipPath3)" fill="white" width="238" opacity="0.7529" height="121" stroke="none"/>
            <line clip-path="url(#clipPath3)" fill="none" x1="434" x2="448" y1="78" y2="78" stroke="rgb(31,119,180)" stroke-width="2"/>
            <text x="450" font-size="20" y="85" clip-path="url(#clipPath3)" stroke="none" font-weight="bold" stroke-width="2" xml:space="preserve">Frequency Bands$0=2</text>
        </g>
        <g stroke-linecap="butt" font-size="20" fill="rgb(255,127,14)" text-rendering="optimizeLegibility" font-family="'Arial'" stroke="rgb(255,127,14)" font-weight="bold" stroke-width="2">
            <line clip-path="url(#clipPath3)" fill="none" x1="434" x2="448" y1="107" y2="107"/>
            <text x="450" y="114" clip-path="url(#clipPath3)" fill="black" stroke="none" xml:space="preserve">Frequency Bands$0=4</text>
            <line clip-path="url(#clipPath3)" fill="none" x1="434" x2="448" y1="136" y2="136" stroke="rgb(44,160,44)"/>
            <text x="450" y="143" clip-path="url(#clipPath3)" fill="black" stroke="none" xml:space="preserve">Frequency Bands$0=6</text>
            <line clip-path="url(#clipPath3)" fill="none" x1="434" x2="448" y1="165" y2="165" stroke="rgb(214,39,40)"/>
            <text x="450" y="172" clip-path="url(#clipPath3)" fill="black" stroke="none" xml:space="preserve">Frequency Bands$0=8</text>
        </g>
        <g text-rendering="optimizeLegibility" font-size="23" font-family="'Arial'" font-weight="bold" stroke-linecap="butt">
            <line clip-path="url(#clipPath2)" fill="none" x1="84" x2="671" y1="54" y2="54"/>
            <line clip-path="url(#clipPath2)" fill="none" x1="84" x2="671" y1="513" y2="513"/>
            <text xml:space="preserve" x="304" y="569" clip-path="url(#clipPath2)" stroke="none">Depth of STA</text>
            <line clip-path="url(#clipPath2)" fill="none" x1="90" x2="90" y1="52" y2="54"/>
            <line clip-path="url(#clipPath2)" fill="none" x1="90" x2="90" y1="515" y2="513"/>
            <line clip-path="url(#clipPath2)" fill="none" x1="104" x2="104" y1="52" y2="54"/>
            <line clip-path="url(#clipPath2)" fill="none" x1="104" x2="104" y1="515" y2="513"/>
            <line clip-path="url(#clipPath2)" fill="none" x1="118" x2="118" y1="52" y2="54"/>
            <line clip-path="url(#clipPath2)" fill="none" x1="118" x2="118" y1="515" y2="513"/>
            <line clip-path="url(#clipPath2)" fill="none" x1="132" x2="132" y1="52" y2="54"/>
            <line clip-path="url(#clipPath2)" fill="none" x1="132" x2="132" y1="515" y2="513"/>
            <line clip-path="url(#clipPath2)" fill="none" x1="146" x2="146" y1="50" y2="54"/>
            <line clip-path="url(#clipPath2)" fill="none" x1="146" x2="146" y1="517" y2="513"/>
            <text xml:space="preserve" x="141" y="43" clip-path="url(#clipPath2)" stroke="none">0</text>
            <text xml:space="preserve" x="141" y="539" clip-path="url(#clipPath2)" stroke="none">0</text>
            <line clip-path="url(#clipPath2)" fill="none" x1="160" x2="160" y1="52" y2="54"/>
            <line clip-path="url(#clipPath2)" fill="none" x1="160" x2="160" y1="515" y2="513"/>
            <line clip-path="url(#clipPath2)" fill="none" x1="174" x2="174" y1="52" y2="54"/>
            <line clip-path="url(#clipPath2)" fill="none" x1="174" x2="174" y1="515" y2="513"/>
            <line clip-path="url(#clipPath2)" fill="none" x1="188" x2="188" y1="52" y2="54"/>
            <line clip-path="url(#clipPath2)" fill="none" x1="188" x2="188" y1="515" y2="513"/>
            <line clip-path="url(#clipPath2)" fill="none" x1="201" x2="201" y1="52" y2="54"/>
            <line clip-path="url(#clipPath2)" fill="none" x1="201" x2="201" y1="515" y2="513"/>
            <line clip-path="url(#clipPath2)" fill="none" x1="215" x2="215" y1="50" y2="54"/>
            <line clip-path="url(#clipPath2)" fill="none" x1="215" x2="215" y1="517" y2="513"/>
            <text xml:space="preserve" x="210" y="43" clip-path="url(#clipPath2)" stroke="none">1</text>
            <text xml:space="preserve" x="210" y="539" clip-path="url(#clipPath2)" stroke="none">1</text>
            <line clip-path="url(#clipPath2)" fill="none" x1="229" x2="229" y1="52" y2="54"/>
            <line clip-path="url(#clipPath2)" fill="none" x1="229" x2="229" y1="515" y2="513"/>
            <line clip-path="url(#clipPath2)" fill="none" x1="243" x2="243" y1="52" y2="54"/>
            <line clip-path="url(#clipPath2)" fill="none" x1="243" x2="243" y1="515" y2="513"/>
            <line clip-path="url(#clipPath2)" fill="none" x1="257" x2="257" y1="52" y2="54"/>
            <line clip-path="url(#clipPath2)" fill="none" x1="257" x2="257" y1="515" y2="513"/>
            <line clip-path="url(#clipPath2)" fill="none" x1="271" x2="271" y1="52" y2="54"/>
            <line clip-path="url(#clipPath2)" fill="none" x1="271" x2="271" y1="515" y2="513"/>
            <line clip-path="url(#clipPath2)" fill="none" x1="285" x2="285" y1="50" y2="54"/>
            <line clip-path="url(#clipPath2)" fill="none" x1="285" x2="285" y1="517" y2="513"/>
            <text xml:space="preserve" x="280" y="43" clip-path="url(#clipPath2)" stroke="none">2</text>
            <text xml:space="preserve" x="280" y="539" clip-path="url(#clipPath2)" stroke="none">2</text>
            <line clip-path="url(#clipPath2)" fill="none" x1="298" x2="298" y1="52" y2="54"/>
            <line clip-path="url(#clipPath2)" fill="none" x1="298" x2="298" y1="515" y2="513"/>
            <line clip-path="url(#clipPath2)" fill="none" x1="312" x2="312" y1="52" y2="54"/>
            <line clip-path="url(#clipPath2)" fill="none" x1="312" x2="312" y1="515" y2="513"/>
            <line clip-path="url(#clipPath2)" fill="none" x1="326" x2="326" y1="52" y2="54"/>
            <line clip-path="url(#clipPath2)" fill="none" x1="326" x2="326" y1="515" y2="513"/>
            <line clip-path="url(#clipPath2)" fill="none" x1="340" x2="340" y1="52" y2="54"/>
            <line clip-path="url(#clipPath2)" fill="none" x1="340" x2="340" y1="515" y2="513"/>
            <line clip-path="url(#clipPath2)" fill="none" x1="354" x2="354" y1="50" y2="54"/>
            <line clip-path="url(#clipPath2)" fill="none" x1="354" x2="354" y1="517" y2="513"/>
            <text xml:space="preserve" x="349" y="43" clip-path="url(#clipPath2)" stroke="none">3</text>
            <text xml:space="preserve" x="349" y="539" clip-path="url(#clipPath2)" stroke="none">3</text>
            <line clip-path="url(#clipPath2)" fill="none" x1="368" x2="368" y1="52" y2="54"/>
            <line clip-path="url(#clipPath2)" fill="none" x1="368" x2="368" y1="515" y2="513"/>
            <line clip-path="url(#clipPath2)" fill="none" x1="382" x2="382" y1="52" y2="54"/>
            <line clip-path="url(#clipPath2)" fill="none" x1="382" x2="382" y1="515" y2="513"/>
            <line clip-path="url(#clipPath2)" fill="none" x1="396" x2="396" y1="52" y2="54"/>
            <line clip-path="url(#clipPath2)" fill="none" x1="396" x2="396" y1="515" y2="513"/>
            <line clip-path="url(#clipPath2)" fill="none" x1="409" x2="409" y1="52" y2="54"/>
            <line clip-path="url(#clipPath2)" fill="none" x1="409" x2="409" y1="515" y2="513"/>
            <line clip-path="url(#clipPath2)" fill="none" x1="423" x2="423" y1="50" y2="54"/>
            <line clip-path="url(#clipPath2)" fill="none" x1="423" x2="423" y1="517" y2="513"/>
            <text xml:space="preserve" x="418" y="43" clip-path="url(#clipPath2)" stroke="none">4</text>
            <text xml:space="preserve" x="418" y="539" clip-path="url(#clipPath2)" stroke="none">4</text>
            <line clip-path="url(#clipPath2)" fill="none" x1="437" x2="437" y1="52" y2="54"/>
            <line clip-path="url(#clipPath2)" fill="none" x1="437" x2="437" y1="515" y2="513"/>
            <line clip-path="url(#clipPath2)" fill="none" x1="451" x2="451" y1="52" y2="54"/>
            <line clip-path="url(#clipPath2)" fill="none" x1="451" x2="451" y1="515" y2="513"/>
            <line clip-path="url(#clipPath2)" fill="none" x1="465" x2="465" y1="52" y2="54"/>
            <line clip-path="url(#clipPath2)" fill="none" x1="465" x2="465" y1="515" y2="513"/>
            <line clip-path="url(#clipPath2)" fill="none" x1="479" x2="479" y1="52" y2="54"/>
            <line clip-path="url(#clipPath2)" fill="none" x1="479" x2="479" y1="515" y2="513"/>
            <line clip-path="url(#clipPath2)" fill="none" x1="493" x2="493" y1="50" y2="54"/>
            <line clip-path="url(#clipPath2)" fill="none" x1="493" x2="493" y1="517" y2="513"/>
            <text xml:space="preserve" x="488" y="43" clip-path="url(#clipPath2)" stroke="none">5</text>
            <text xml:space="preserve" x="488" y="539" clip-path="url(#clipPath2)" stroke="none">5</text>
            <line clip-path="url(#clipPath2)" fill="none" x1="507" x2="507" y1="52" y2="54"/>
            <line clip-path="url(#clipPath2)" fill="none" x1="507" x2="507" y1="515" y2="513"/>
            <line clip-path="url(#clipPath2)" fill="none" x1="520" x2="520" y1="52" y2="54"/>
            <line clip-path="url(#clipPath2)" fill="none" x1="520" x2="520" y1="515" y2="513"/>
            <line clip-path="url(#clipPath2)" fill="none" x1="534" x2="534" y1="52" y2="54"/>
            <line clip-path="url(#clipPath2)" fill="none" x1="534" x2="534" y1="515" y2="513"/>
            <line clip-path="url(#clipPath2)" fill="none" x1="548" x2="548" y1="52" y2="54"/>
            <line clip-path="url(#clipPath2)" fill="none" x1="548" x2="548" y1="515" y2="513"/>
            <line clip-path="url(#clipPath2)" fill="none" x1="562" x2="562" y1="50" y2="54"/>
            <line clip-path="url(#clipPath2)" fill="none" x1="562" x2="562" y1="517" y2="513"/>
            <text xml:space="preserve" x="557" y="43" clip-path="url(#clipPath2)" stroke="none">6</text>
            <text xml:space="preserve" x="557" y="539" clip-path="url(#clipPath2)" stroke="none">6</text>
            <line clip-path="url(#clipPath2)" fill="none" x1="576" x2="576" y1="52" y2="54"/>
            <line clip-path="url(#clipPath2)" fill="none" x1="576" x2="576" y1="515" y2="513"/>
            <line clip-path="url(#clipPath2)" fill="none" x1="590" x2="590" y1="52" y2="54"/>
            <line clip-path="url(#clipPath2)" fill="none" x1="590" x2="590" y1="515" y2="513"/>
            <line clip-path="url(#clipPath2)" fill="none" x1="604" x2="604" y1="52" y2="54"/>
            <line clip-path="url(#clipPath2)" fill="none" x1="604" x2="604" y1="515" y2="513"/>
            <line clip-path="url(#clipPath2)" fill="none" x1="618" x2="618" y1="52" y2="54"/>
            <line clip-path="url(#clipPath2)" fill="none" x1="618" x2="618" y1="515" y2="513"/>
            <line clip-path="url(#clipPath2)" fill="none" x1="631" x2="631" y1="50" y2="54"/>
            <line clip-path="url(#clipPath2)" fill="none" x1="631" x2="631" y1="517" y2="513"/>
            <text xml:space="preserve" x="626" y="43" clip-path="url(#clipPath2)" stroke="none">7</text>
            <text xml:space="preserve" x="626" y="539" clip-path="url(#clipPath2)" stroke="none">7</text>
            <line clip-path="url(#clipPath2)" fill="none" x1="645" x2="645" y1="52" y2="54"/>
            <line clip-path="url(#clipPath2)" fill="none" x1="645" x2="645" y1="515" y2="513"/>
            <line clip-path="url(#clipPath2)" fill="none" x1="659" x2="659" y1="52" y2="54"/>
            <line clip-path="url(#clipPath2)" fill="none" x1="659" x2="659" y1="515" y2="513"/>
            <line clip-path="url(#clipPath2)" fill="none" x1="82" x2="82" y1="56" y2="511"/>
            <line clip-path="url(#clipPath2)" fill="none" x1="673" x2="673" y1="56" y2="511"/>
            <line clip-path="url(#clipPath2)" fill="none" x1="78" x2="82" y1="480" y2="480"/>
            <line clip-path="url(#clipPath2)" fill="none" x1="677" x2="673" y1="480" y2="480"/>
            <text xml:space="preserve" x="51" y="488" clip-path="url(#clipPath2)" stroke="none">20</text>
            <text xml:space="preserve" x="680" y="488" clip-path="url(#clipPath2)" stroke="none">20</text>
            <line clip-path="url(#clipPath2)" fill="none" x1="80" x2="82" y1="448" y2="448"/>
            <line clip-path="url(#clipPath2)" fill="none" x1="675" x2="673" y1="448" y2="448"/>
            <line clip-path="url(#clipPath2)" fill="none" x1="78" x2="82" y1="416" y2="416"/>
            <line clip-path="url(#clipPath2)" fill="none" x1="677" x2="673" y1="416" y2="416"/>
            <text xml:space="preserve" x="51" y="424" clip-path="url(#clipPath2)" stroke="none">40</text>
            <text xml:space="preserve" x="680" y="424" clip-path="url(#clipPath2)" stroke="none">40</text>
            <line clip-path="url(#clipPath2)" fill="none" x1="80" x2="82" y1="384" y2="384"/>
            <line clip-path="url(#clipPath2)" fill="none" x1="675" x2="673" y1="384" y2="384"/>
            <line clip-path="url(#clipPath2)" fill="none" x1="78" x2="82" y1="353" y2="353"/>
            <line clip-path="url(#clipPath2)" fill="none" x1="677" x2="673" y1="353" y2="353"/>
            <text xml:space="preserve" x="51" y="361" clip-path="url(#clipPath2)" stroke="none">60</text>
            <text xml:space="preserve" x="680" y="361" clip-path="url(#clipPath2)" stroke="none">60</text>
            <line clip-path="url(#clipPath2)" fill="none" x1="80" x2="82" y1="321" y2="321"/>
            <line clip-path="url(#clipPath2)" fill="none" x1="675" x2="673" y1="321" y2="321"/>
            <line clip-path="url(#clipPath2)" fill="none" x1="78" x2="82" y1="289" y2="289"/>
            <line clip-path="url(#clipPath2)" fill="none" x1="677" x2="673" y1="289" y2="289"/>
            <text xml:space="preserve" x="51" y="297" clip-path="url(#clipPath2)" stroke="none">80</text>
            <text xml:space="preserve" x="680" y="297" clip-path="url(#clipPath2)" stroke="none">80</text>
            <line clip-path="url(#clipPath2)" fill="none" x1="80" x2="82" y1="257" y2="257"/>
            <line clip-path="url(#clipPath2)" fill="none" x1="675" x2="673" y1="257" y2="257"/>
            <line clip-path="url(#clipPath2)" fill="none" x1="78" x2="82" y1="225" y2="225"/>
            <line clip-path="url(#clipPath2)" fill="none" x1="677" x2="673" y1="225" y2="225"/>
            <text xml:space="preserve" x="38" y="233" clip-path="url(#clipPath2)" stroke="none">100</text>
            <text xml:space="preserve" x="680" y="233" clip-path="url(#clipPath2)" stroke="none">100</text>
            <line clip-path="url(#clipPath2)" fill="none" x1="80" x2="82" y1="193" y2="193"/>
            <line clip-path="url(#clipPath2)" fill="none" x1="675" x2="673" y1="193" y2="193"/>
            <line clip-path="url(#clipPath2)" fill="none" x1="78" x2="82" y1="162" y2="162"/>
            <line clip-path="url(#clipPath2)" fill="none" x1="677" x2="673" y1="162" y2="162"/>
            <text xml:space="preserve" x="38" y="170" clip-path="url(#clipPath2)" stroke="none">120</text>
            <text xml:space="preserve" x="680" y="170" clip-path="url(#clipPath2)" stroke="none">120</text>
            <line clip-path="url(#clipPath2)" fill="none" x1="80" x2="82" y1="130" y2="130"/>
            <line clip-path="url(#clipPath2)" fill="none" x1="675" x2="673" y1="130" y2="130"/>
            <line clip-path="url(#clipPath2)" fill="none" x1="78" x2="82" y1="98" y2="98"/>
            <line clip-path="url(#clipPath2)" fill="none" x1="677" x2="673" y1="98" y2="98"/>
            <text xml:space="preserve" x="38" y="106" clip-path="url(#clipPath2)" stroke="none">140</text>
            <text xml:space="preserve" x="680" y="106" clip-path="url(#clipPath2)" stroke="none">140</text>
            <line clip-path="url(#clipPath2)" fill="none" x1="80" x2="82" y1="66" y2="66"/>
            <line clip-path="url(#clipPath2)" fill="none" x1="675" x2="673" y1="66" y2="66"/>
        </g>
    </g>
</svg>
