<?xml version="1.0" encoding="UTF-8"?><svg xmlns="http://www.w3.org/2000/svg" xmlns:xlink="http://www.w3.org/1999/xlink" stroke-dasharray="none" shape-rendering="auto" font-family="'Dialog'" width="789" text-rendering="auto" fill-opacity="1" contentScriptType="text/ecmascript" color-interpolation="auto" color-rendering="auto" preserveAspectRatio="xMidYMid meet" font-size="12" fill="black" stroke="black" image-rendering="auto" stroke-miterlimit="10" zoomAndPan="magnify" version="1.0" stroke-linecap="square" stroke-linejoin="miter" contentStyleType="text/css" font-style="normal" height="581" stroke-width="1" stroke-dashoffset="0" font-weight="normal" stroke-opacity="1">
    <!--Generated by the Batik Graphics2D SVG Generator-->
    <defs id="genericDefs"/>
    <g>
        <defs id="defs1">
            <clipPath clipPathUnits="userSpaceOnUse" id="clipPath1">
                <path d="M75 55 L741 55 L741 518 L75 518 L75 55 Z"/>
            </clipPath>
            <clipPath clipPathUnits="userSpaceOnUse" id="clipPath2">
                <path d="M-1 -1 L790 -1 L790 582 L-1 582 L-1 -1 Z"/>
            </clipPath>
        </defs>
        <g font-size="15" fill="white" text-rendering="optimizeLegibility" font-family="'Microsoft YaHei UI'" stroke-linejoin="round" stroke="white" stroke-width="0" stroke-miterlimit="0">
            <rect x="76" y="56" clip-path="url(#clipPath1)" width="664" height="461" stroke="none"/>
        </g>
        <g stroke-linecap="butt" font-size="15" fill="rgb(204,204,204)" text-rendering="optimizeLegibility" font-family="'Microsoft YaHei UI'" stroke-dasharray="3,3" stroke="rgb(204,204,204)">
            <line clip-path="url(#clipPath1)" fill="none" x1="76" x2="740" y1="517" y2="517"/>
            <line clip-path="url(#clipPath1)" fill="none" x1="76" x2="740" y1="466" y2="466"/>
            <line clip-path="url(#clipPath1)" fill="none" x1="76" x2="740" y1="416" y2="416"/>
            <line clip-path="url(#clipPath1)" fill="none" x1="76" x2="740" y1="366" y2="366"/>
            <line clip-path="url(#clipPath1)" fill="none" x1="76" x2="740" y1="316" y2="316"/>
            <line clip-path="url(#clipPath1)" fill="none" x1="76" x2="740" y1="266" y2="266"/>
            <line clip-path="url(#clipPath1)" fill="none" x1="76" x2="740" y1="216" y2="216"/>
            <line clip-path="url(#clipPath1)" fill="none" x1="76" x2="740" y1="166" y2="166"/>
            <line clip-path="url(#clipPath1)" fill="none" x1="76" x2="740" y1="116" y2="116"/>
            <line clip-path="url(#clipPath1)" fill="none" x1="76" x2="740" y1="66" y2="66"/>
            <line clip-path="url(#clipPath1)" fill="none" x1="131" x2="210" y1="517" y2="517" stroke-dasharray="none" stroke="black"/>
            <rect x="210" y="406" clip-path="url(#clipPath1)" fill="rgb(31,119,180)" width="79" stroke-dasharray="none" height="111" stroke="none"/>
            <rect x="210" y="406" clip-path="url(#clipPath1)" fill="none" width="79" stroke-dasharray="none" height="111" stroke="black"/>
            <rect x="289" y="171" clip-path="url(#clipPath1)" fill="rgb(31,119,180)" width="79" stroke-dasharray="none" height="346" stroke="none"/>
            <rect x="289" y="171" clip-path="url(#clipPath1)" fill="none" width="79" stroke-dasharray="none" height="346" stroke="black"/>
            <rect x="368" y="211" clip-path="url(#clipPath1)" fill="rgb(31,119,180)" width="79" stroke-dasharray="none" height="306" stroke="none"/>
            <rect x="368" y="211" clip-path="url(#clipPath1)" fill="none" width="79" stroke-dasharray="none" height="306" stroke="black"/>
            <rect x="447" y="306" clip-path="url(#clipPath1)" fill="rgb(31,119,180)" width="79" stroke-dasharray="none" height="211" stroke="none"/>
            <rect x="447" y="306" clip-path="url(#clipPath1)" fill="none" width="79" stroke-dasharray="none" height="211" stroke="black"/>
            <rect x="526" y="351" clip-path="url(#clipPath1)" fill="rgb(31,119,180)" width="79" stroke-dasharray="none" height="166" stroke="none"/>
            <rect x="526" y="351" clip-path="url(#clipPath1)" fill="none" width="79" stroke-dasharray="none" height="166" stroke="black"/>
            <rect x="605" y="416" clip-path="url(#clipPath1)" fill="rgb(31,119,180)" width="79" stroke-dasharray="none" height="101" stroke="none"/>
            <rect x="605" y="416" clip-path="url(#clipPath1)" fill="none" width="79" stroke-dasharray="none" height="101" stroke="black"/>
            <rect x="76" y="56" clip-path="url(#clipPath2)" fill="none" width="664" stroke-dasharray="none" height="461" stroke="black"/>
        </g>
        <g text-rendering="optimizeLegibility" font-size="16" font-family="'Arial'" stroke-linecap="butt">
            <text xml:space="preserve" x="392" y="15" clip-path="url(#clipPath2)" stroke="none">.</text>
            <line clip-path="url(#clipPath2)" fill="none" x1="76" x2="740" y1="54" y2="54"/>
            <line clip-path="url(#clipPath2)" fill="none" x1="76" x2="740" y1="519" y2="519"/>
            <text x="337" font-size="23" y="575" clip-path="url(#clipPath2)" stroke="none" font-weight="bold" xml:space="preserve">Layer of STA</text>
            <line clip-path="url(#clipPath2)" fill="none" x1="83" x2="83" y1="52" y2="54"/>
            <line clip-path="url(#clipPath2)" fill="none" x1="83" x2="83" y1="521" y2="519"/>
            <line clip-path="url(#clipPath2)" fill="none" x1="99" x2="99" y1="52" y2="54"/>
            <line clip-path="url(#clipPath2)" fill="none" x1="99" x2="99" y1="521" y2="519"/>
            <line clip-path="url(#clipPath2)" fill="none" x1="115" x2="115" y1="52" y2="54"/>
            <line clip-path="url(#clipPath2)" fill="none" x1="115" x2="115" y1="521" y2="519"/>
            <line clip-path="url(#clipPath2)" fill="none" x1="131" x2="131" y1="50" y2="54"/>
            <line clip-path="url(#clipPath2)" fill="none" x1="131" x2="131" y1="523" y2="519"/>
            <text x="126" font-size="23" y="43" clip-path="url(#clipPath2)" stroke="none" font-weight="bold" xml:space="preserve">0</text>
            <text x="126" font-size="23" y="545" clip-path="url(#clipPath2)" stroke="none" font-weight="bold" xml:space="preserve">0</text>
            <line clip-path="url(#clipPath2)" fill="none" x1="147" x2="147" y1="52" y2="54"/>
            <line clip-path="url(#clipPath2)" fill="none" x1="147" x2="147" y1="521" y2="519"/>
            <line clip-path="url(#clipPath2)" fill="none" x1="162" x2="162" y1="52" y2="54"/>
            <line clip-path="url(#clipPath2)" fill="none" x1="162" x2="162" y1="521" y2="519"/>
            <line clip-path="url(#clipPath2)" fill="none" x1="178" x2="178" y1="52" y2="54"/>
            <line clip-path="url(#clipPath2)" fill="none" x1="178" x2="178" y1="521" y2="519"/>
            <line clip-path="url(#clipPath2)" fill="none" x1="194" x2="194" y1="52" y2="54"/>
            <line clip-path="url(#clipPath2)" fill="none" x1="194" x2="194" y1="521" y2="519"/>
            <line clip-path="url(#clipPath2)" fill="none" x1="210" x2="210" y1="50" y2="54"/>
            <line clip-path="url(#clipPath2)" fill="none" x1="210" x2="210" y1="523" y2="519"/>
            <text x="205" font-size="23" y="43" clip-path="url(#clipPath2)" stroke="none" font-weight="bold" xml:space="preserve">1</text>
            <text x="205" font-size="23" y="545" clip-path="url(#clipPath2)" stroke="none" font-weight="bold" xml:space="preserve">1</text>
            <line clip-path="url(#clipPath2)" fill="none" x1="226" x2="226" y1="52" y2="54"/>
            <line clip-path="url(#clipPath2)" fill="none" x1="226" x2="226" y1="521" y2="519"/>
            <line clip-path="url(#clipPath2)" fill="none" x1="241" x2="241" y1="52" y2="54"/>
            <line clip-path="url(#clipPath2)" fill="none" x1="241" x2="241" y1="521" y2="519"/>
            <line clip-path="url(#clipPath2)" fill="none" x1="257" x2="257" y1="52" y2="54"/>
            <line clip-path="url(#clipPath2)" fill="none" x1="257" x2="257" y1="521" y2="519"/>
            <line clip-path="url(#clipPath2)" fill="none" x1="273" x2="273" y1="52" y2="54"/>
            <line clip-path="url(#clipPath2)" fill="none" x1="273" x2="273" y1="521" y2="519"/>
            <line clip-path="url(#clipPath2)" fill="none" x1="289" x2="289" y1="50" y2="54"/>
            <line clip-path="url(#clipPath2)" fill="none" x1="289" x2="289" y1="523" y2="519"/>
            <text x="284" font-size="23" y="43" clip-path="url(#clipPath2)" stroke="none" font-weight="bold" xml:space="preserve">2</text>
            <text x="284" font-size="23" y="545" clip-path="url(#clipPath2)" stroke="none" font-weight="bold" xml:space="preserve">2</text>
            <line clip-path="url(#clipPath2)" fill="none" x1="305" x2="305" y1="52" y2="54"/>
            <line clip-path="url(#clipPath2)" fill="none" x1="305" x2="305" y1="521" y2="519"/>
            <line clip-path="url(#clipPath2)" fill="none" x1="321" x2="321" y1="52" y2="54"/>
            <line clip-path="url(#clipPath2)" fill="none" x1="321" x2="321" y1="521" y2="519"/>
            <line clip-path="url(#clipPath2)" fill="none" x1="336" x2="336" y1="52" y2="54"/>
            <line clip-path="url(#clipPath2)" fill="none" x1="336" x2="336" y1="521" y2="519"/>
            <line clip-path="url(#clipPath2)" fill="none" x1="352" x2="352" y1="52" y2="54"/>
            <line clip-path="url(#clipPath2)" fill="none" x1="352" x2="352" y1="521" y2="519"/>
            <line clip-path="url(#clipPath2)" fill="none" x1="368" x2="368" y1="50" y2="54"/>
            <line clip-path="url(#clipPath2)" fill="none" x1="368" x2="368" y1="523" y2="519"/>
            <text x="363" font-size="23" y="43" clip-path="url(#clipPath2)" stroke="none" font-weight="bold" xml:space="preserve">3</text>
            <text x="363" font-size="23" y="545" clip-path="url(#clipPath2)" stroke="none" font-weight="bold" xml:space="preserve">3</text>
            <line clip-path="url(#clipPath2)" fill="none" x1="384" x2="384" y1="52" y2="54"/>
            <line clip-path="url(#clipPath2)" fill="none" x1="384" x2="384" y1="521" y2="519"/>
            <line clip-path="url(#clipPath2)" fill="none" x1="400" x2="400" y1="52" y2="54"/>
            <line clip-path="url(#clipPath2)" fill="none" x1="400" x2="400" y1="521" y2="519"/>
            <line clip-path="url(#clipPath2)" fill="none" x1="415" x2="415" y1="52" y2="54"/>
            <line clip-path="url(#clipPath2)" fill="none" x1="415" x2="415" y1="521" y2="519"/>
            <line clip-path="url(#clipPath2)" fill="none" x1="431" x2="431" y1="52" y2="54"/>
            <line clip-path="url(#clipPath2)" fill="none" x1="431" x2="431" y1="521" y2="519"/>
            <line clip-path="url(#clipPath2)" fill="none" x1="447" x2="447" y1="50" y2="54"/>
            <line clip-path="url(#clipPath2)" fill="none" x1="447" x2="447" y1="523" y2="519"/>
            <text x="442" font-size="23" y="43" clip-path="url(#clipPath2)" stroke="none" font-weight="bold" xml:space="preserve">4</text>
            <text x="442" font-size="23" y="545" clip-path="url(#clipPath2)" stroke="none" font-weight="bold" xml:space="preserve">4</text>
            <line clip-path="url(#clipPath2)" fill="none" x1="463" x2="463" y1="52" y2="54"/>
            <line clip-path="url(#clipPath2)" fill="none" x1="463" x2="463" y1="521" y2="519"/>
            <line clip-path="url(#clipPath2)" fill="none" x1="479" x2="479" y1="52" y2="54"/>
            <line clip-path="url(#clipPath2)" fill="none" x1="479" x2="479" y1="521" y2="519"/>
            <line clip-path="url(#clipPath2)" fill="none" x1="494" x2="494" y1="52" y2="54"/>
            <line clip-path="url(#clipPath2)" fill="none" x1="494" x2="494" y1="521" y2="519"/>
            <line clip-path="url(#clipPath2)" fill="none" x1="510" x2="510" y1="52" y2="54"/>
            <line clip-path="url(#clipPath2)" fill="none" x1="510" x2="510" y1="521" y2="519"/>
            <line clip-path="url(#clipPath2)" fill="none" x1="526" x2="526" y1="50" y2="54"/>
            <line clip-path="url(#clipPath2)" fill="none" x1="526" x2="526" y1="523" y2="519"/>
            <text x="521" font-size="23" y="43" clip-path="url(#clipPath2)" stroke="none" font-weight="bold" xml:space="preserve">5</text>
            <text x="521" font-size="23" y="545" clip-path="url(#clipPath2)" stroke="none" font-weight="bold" xml:space="preserve">5</text>
            <line clip-path="url(#clipPath2)" fill="none" x1="542" x2="542" y1="52" y2="54"/>
            <line clip-path="url(#clipPath2)" fill="none" x1="542" x2="542" y1="521" y2="519"/>
            <line clip-path="url(#clipPath2)" fill="none" x1="558" x2="558" y1="52" y2="54"/>
            <line clip-path="url(#clipPath2)" fill="none" x1="558" x2="558" y1="521" y2="519"/>
            <line clip-path="url(#clipPath2)" fill="none" x1="574" x2="574" y1="52" y2="54"/>
            <line clip-path="url(#clipPath2)" fill="none" x1="574" x2="574" y1="521" y2="519"/>
            <line clip-path="url(#clipPath2)" fill="none" x1="589" x2="589" y1="52" y2="54"/>
            <line clip-path="url(#clipPath2)" fill="none" x1="589" x2="589" y1="521" y2="519"/>
            <line clip-path="url(#clipPath2)" fill="none" x1="605" x2="605" y1="50" y2="54"/>
            <line clip-path="url(#clipPath2)" fill="none" x1="605" x2="605" y1="523" y2="519"/>
            <text x="600" font-size="23" y="43" clip-path="url(#clipPath2)" stroke="none" font-weight="bold" xml:space="preserve">6</text>
            <text x="600" font-size="23" y="545" clip-path="url(#clipPath2)" stroke="none" font-weight="bold" xml:space="preserve">6</text>
            <line clip-path="url(#clipPath2)" fill="none" x1="621" x2="621" y1="52" y2="54"/>
            <line clip-path="url(#clipPath2)" fill="none" x1="621" x2="621" y1="521" y2="519"/>
            <line clip-path="url(#clipPath2)" fill="none" x1="637" x2="637" y1="52" y2="54"/>
            <line clip-path="url(#clipPath2)" fill="none" x1="637" x2="637" y1="521" y2="519"/>
            <line clip-path="url(#clipPath2)" fill="none" x1="653" x2="653" y1="52" y2="54"/>
            <line clip-path="url(#clipPath2)" fill="none" x1="653" x2="653" y1="521" y2="519"/>
            <line clip-path="url(#clipPath2)" fill="none" x1="668" x2="668" y1="52" y2="54"/>
            <line clip-path="url(#clipPath2)" fill="none" x1="668" x2="668" y1="521" y2="519"/>
            <line clip-path="url(#clipPath2)" fill="none" x1="684" x2="684" y1="50" y2="54"/>
            <line clip-path="url(#clipPath2)" fill="none" x1="684" x2="684" y1="523" y2="519"/>
            <text x="679" font-size="23" y="43" clip-path="url(#clipPath2)" stroke="none" font-weight="bold" xml:space="preserve">7</text>
            <text x="679" font-size="23" y="545" clip-path="url(#clipPath2)" stroke="none" font-weight="bold" xml:space="preserve">7</text>
            <line clip-path="url(#clipPath2)" fill="none" x1="700" x2="700" y1="52" y2="54"/>
            <line clip-path="url(#clipPath2)" fill="none" x1="700" x2="700" y1="521" y2="519"/>
            <line clip-path="url(#clipPath2)" fill="none" x1="716" x2="716" y1="52" y2="54"/>
            <line clip-path="url(#clipPath2)" fill="none" x1="716" x2="716" y1="521" y2="519"/>
            <line clip-path="url(#clipPath2)" fill="none" x1="732" x2="732" y1="52" y2="54"/>
            <line clip-path="url(#clipPath2)" fill="none" x1="732" x2="732" y1="521" y2="519"/>
            <line clip-path="url(#clipPath2)" fill="none" x1="74" x2="74" y1="56" y2="517"/>
            <line clip-path="url(#clipPath2)" fill="none" x1="742" x2="742" y1="56" y2="517"/>
            <line clip-path="url(#clipPath2)" fill="none" x1="70" x2="74" y1="517" y2="517"/>
            <line clip-path="url(#clipPath2)" fill="none" x1="746" x2="742" y1="517" y2="517"/>
            <text x="56" font-size="23" y="525" clip-path="url(#clipPath2)" stroke="none" font-weight="bold" xml:space="preserve">0</text>
            <text x="749" font-size="23" y="525" clip-path="url(#clipPath2)" stroke="none" font-weight="bold" xml:space="preserve">0</text>
            <line clip-path="url(#clipPath2)" fill="none" x1="72" x2="74" y1="506" y2="506"/>
            <line clip-path="url(#clipPath2)" fill="none" x1="744" x2="742" y1="506" y2="506"/>
            <line clip-path="url(#clipPath2)" fill="none" x1="72" x2="74" y1="496" y2="496"/>
            <line clip-path="url(#clipPath2)" fill="none" x1="744" x2="742" y1="496" y2="496"/>
            <line clip-path="url(#clipPath2)" fill="none" x1="72" x2="74" y1="486" y2="486"/>
            <line clip-path="url(#clipPath2)" fill="none" x1="744" x2="742" y1="486" y2="486"/>
            <line clip-path="url(#clipPath2)" fill="none" x1="72" x2="74" y1="476" y2="476"/>
            <line clip-path="url(#clipPath2)" fill="none" x1="744" x2="742" y1="476" y2="476"/>
            <line clip-path="url(#clipPath2)" fill="none" x1="70" x2="74" y1="466" y2="466"/>
            <line clip-path="url(#clipPath2)" fill="none" x1="746" x2="742" y1="466" y2="466"/>
            <text x="43" font-size="23" y="474" clip-path="url(#clipPath2)" stroke="none" font-weight="bold" xml:space="preserve">10</text>
            <text x="749" font-size="23" y="474" clip-path="url(#clipPath2)" stroke="none" font-weight="bold" xml:space="preserve">10</text>
            <line clip-path="url(#clipPath2)" fill="none" x1="72" x2="74" y1="456" y2="456"/>
            <line clip-path="url(#clipPath2)" fill="none" x1="744" x2="742" y1="456" y2="456"/>
            <line clip-path="url(#clipPath2)" fill="none" x1="72" x2="74" y1="446" y2="446"/>
            <line clip-path="url(#clipPath2)" fill="none" x1="744" x2="742" y1="446" y2="446"/>
            <line clip-path="url(#clipPath2)" fill="none" x1="72" x2="74" y1="436" y2="436"/>
            <line clip-path="url(#clipPath2)" fill="none" x1="744" x2="742" y1="436" y2="436"/>
            <line clip-path="url(#clipPath2)" fill="none" x1="72" x2="74" y1="426" y2="426"/>
            <line clip-path="url(#clipPath2)" fill="none" x1="744" x2="742" y1="426" y2="426"/>
            <line clip-path="url(#clipPath2)" fill="none" x1="70" x2="74" y1="416" y2="416"/>
            <line clip-path="url(#clipPath2)" fill="none" x1="746" x2="742" y1="416" y2="416"/>
            <text x="43" font-size="23" y="424" clip-path="url(#clipPath2)" stroke="none" font-weight="bold" xml:space="preserve">20</text>
            <text x="749" font-size="23" y="424" clip-path="url(#clipPath2)" stroke="none" font-weight="bold" xml:space="preserve">20</text>
            <line clip-path="url(#clipPath2)" fill="none" x1="72" x2="74" y1="406" y2="406"/>
            <line clip-path="url(#clipPath2)" fill="none" x1="744" x2="742" y1="406" y2="406"/>
            <line clip-path="url(#clipPath2)" fill="none" x1="72" x2="74" y1="396" y2="396"/>
            <line clip-path="url(#clipPath2)" fill="none" x1="744" x2="742" y1="396" y2="396"/>
            <line clip-path="url(#clipPath2)" fill="none" x1="72" x2="74" y1="386" y2="386"/>
            <line clip-path="url(#clipPath2)" fill="none" x1="744" x2="742" y1="386" y2="386"/>
            <line clip-path="url(#clipPath2)" fill="none" x1="72" x2="74" y1="376" y2="376"/>
            <line clip-path="url(#clipPath2)" fill="none" x1="744" x2="742" y1="376" y2="376"/>
            <line clip-path="url(#clipPath2)" fill="none" x1="70" x2="74" y1="366" y2="366"/>
            <line clip-path="url(#clipPath2)" fill="none" x1="746" x2="742" y1="366" y2="366"/>
            <text x="43" font-size="23" y="374" clip-path="url(#clipPath2)" stroke="none" font-weight="bold" xml:space="preserve">30</text>
            <text x="749" font-size="23" y="374" clip-path="url(#clipPath2)" stroke="none" font-weight="bold" xml:space="preserve">30</text>
            <line clip-path="url(#clipPath2)" fill="none" x1="72" x2="74" y1="356" y2="356"/>
            <line clip-path="url(#clipPath2)" fill="none" x1="744" x2="742" y1="356" y2="356"/>
            <line clip-path="url(#clipPath2)" fill="none" x1="72" x2="74" y1="346" y2="346"/>
            <line clip-path="url(#clipPath2)" fill="none" x1="744" x2="742" y1="346" y2="346"/>
            <line clip-path="url(#clipPath2)" fill="none" x1="72" x2="74" y1="336" y2="336"/>
            <line clip-path="url(#clipPath2)" fill="none" x1="744" x2="742" y1="336" y2="336"/>
            <line clip-path="url(#clipPath2)" fill="none" x1="72" x2="74" y1="326" y2="326"/>
            <line clip-path="url(#clipPath2)" fill="none" x1="744" x2="742" y1="326" y2="326"/>
            <line clip-path="url(#clipPath2)" fill="none" x1="70" x2="74" y1="316" y2="316"/>
            <line clip-path="url(#clipPath2)" fill="none" x1="746" x2="742" y1="316" y2="316"/>
            <text x="43" font-size="23" y="324" clip-path="url(#clipPath2)" stroke="none" font-weight="bold" xml:space="preserve">40</text>
            <text x="749" font-size="23" y="324" clip-path="url(#clipPath2)" stroke="none" font-weight="bold" xml:space="preserve">40</text>
            <line clip-path="url(#clipPath2)" fill="none" x1="72" x2="74" y1="306" y2="306"/>
            <line clip-path="url(#clipPath2)" fill="none" x1="744" x2="742" y1="306" y2="306"/>
            <line clip-path="url(#clipPath2)" fill="none" x1="72" x2="74" y1="296" y2="296"/>
            <line clip-path="url(#clipPath2)" fill="none" x1="744" x2="742" y1="296" y2="296"/>
            <line clip-path="url(#clipPath2)" fill="none" x1="72" x2="74" y1="286" y2="286"/>
            <line clip-path="url(#clipPath2)" fill="none" x1="744" x2="742" y1="286" y2="286"/>
            <line clip-path="url(#clipPath2)" fill="none" x1="72" x2="74" y1="276" y2="276"/>
            <line clip-path="url(#clipPath2)" fill="none" x1="744" x2="742" y1="276" y2="276"/>
            <line clip-path="url(#clipPath2)" fill="none" x1="70" x2="74" y1="266" y2="266"/>
            <line clip-path="url(#clipPath2)" fill="none" x1="746" x2="742" y1="266" y2="266"/>
            <text x="43" font-size="23" y="274" clip-path="url(#clipPath2)" stroke="none" font-weight="bold" xml:space="preserve">50</text>
            <text x="749" font-size="23" y="274" clip-path="url(#clipPath2)" stroke="none" font-weight="bold" xml:space="preserve">50</text>
            <line clip-path="url(#clipPath2)" fill="none" x1="72" x2="74" y1="256" y2="256"/>
            <line clip-path="url(#clipPath2)" fill="none" x1="744" x2="742" y1="256" y2="256"/>
            <line clip-path="url(#clipPath2)" fill="none" x1="72" x2="74" y1="246" y2="246"/>
            <line clip-path="url(#clipPath2)" fill="none" x1="744" x2="742" y1="246" y2="246"/>
            <line clip-path="url(#clipPath2)" fill="none" x1="72" x2="74" y1="236" y2="236"/>
            <line clip-path="url(#clipPath2)" fill="none" x1="744" x2="742" y1="236" y2="236"/>
            <line clip-path="url(#clipPath2)" fill="none" x1="72" x2="74" y1="226" y2="226"/>
            <line clip-path="url(#clipPath2)" fill="none" x1="744" x2="742" y1="226" y2="226"/>
            <line clip-path="url(#clipPath2)" fill="none" x1="70" x2="74" y1="216" y2="216"/>
            <line clip-path="url(#clipPath2)" fill="none" x1="746" x2="742" y1="216" y2="216"/>
            <text x="43" font-size="23" y="224" clip-path="url(#clipPath2)" stroke="none" font-weight="bold" xml:space="preserve">60</text>
            <text x="749" font-size="23" y="224" clip-path="url(#clipPath2)" stroke="none" font-weight="bold" xml:space="preserve">60</text>
            <line clip-path="url(#clipPath2)" fill="none" x1="72" x2="74" y1="206" y2="206"/>
            <line clip-path="url(#clipPath2)" fill="none" x1="744" x2="742" y1="206" y2="206"/>
            <line clip-path="url(#clipPath2)" fill="none" x1="72" x2="74" y1="196" y2="196"/>
            <line clip-path="url(#clipPath2)" fill="none" x1="744" x2="742" y1="196" y2="196"/>
            <line clip-path="url(#clipPath2)" fill="none" x1="72" x2="74" y1="186" y2="186"/>
            <line clip-path="url(#clipPath2)" fill="none" x1="744" x2="742" y1="186" y2="186"/>
            <line clip-path="url(#clipPath2)" fill="none" x1="72" x2="74" y1="176" y2="176"/>
            <line clip-path="url(#clipPath2)" fill="none" x1="744" x2="742" y1="176" y2="176"/>
            <line clip-path="url(#clipPath2)" fill="none" x1="70" x2="74" y1="166" y2="166"/>
            <line clip-path="url(#clipPath2)" fill="none" x1="746" x2="742" y1="166" y2="166"/>
            <text x="43" font-size="23" y="174" clip-path="url(#clipPath2)" stroke="none" font-weight="bold" xml:space="preserve">70</text>
            <text x="749" font-size="23" y="174" clip-path="url(#clipPath2)" stroke="none" font-weight="bold" xml:space="preserve">70</text>
            <line clip-path="url(#clipPath2)" fill="none" x1="72" x2="74" y1="156" y2="156"/>
            <line clip-path="url(#clipPath2)" fill="none" x1="744" x2="742" y1="156" y2="156"/>
            <line clip-path="url(#clipPath2)" fill="none" x1="72" x2="74" y1="146" y2="146"/>
            <line clip-path="url(#clipPath2)" fill="none" x1="744" x2="742" y1="146" y2="146"/>
            <line clip-path="url(#clipPath2)" fill="none" x1="72" x2="74" y1="136" y2="136"/>
            <line clip-path="url(#clipPath2)" fill="none" x1="744" x2="742" y1="136" y2="136"/>
            <line clip-path="url(#clipPath2)" fill="none" x1="72" x2="74" y1="126" y2="126"/>
            <line clip-path="url(#clipPath2)" fill="none" x1="744" x2="742" y1="126" y2="126"/>
            <line clip-path="url(#clipPath2)" fill="none" x1="70" x2="74" y1="116" y2="116"/>
            <line clip-path="url(#clipPath2)" fill="none" x1="746" x2="742" y1="116" y2="116"/>
            <text x="43" font-size="23" y="124" clip-path="url(#clipPath2)" stroke="none" font-weight="bold" xml:space="preserve">80</text>
            <text x="749" font-size="23" y="124" clip-path="url(#clipPath2)" stroke="none" font-weight="bold" xml:space="preserve">80</text>
            <line clip-path="url(#clipPath2)" fill="none" x1="72" x2="74" y1="106" y2="106"/>
            <line clip-path="url(#clipPath2)" fill="none" x1="744" x2="742" y1="106" y2="106"/>
            <line clip-path="url(#clipPath2)" fill="none" x1="72" x2="74" y1="96" y2="96"/>
            <line clip-path="url(#clipPath2)" fill="none" x1="744" x2="742" y1="96" y2="96"/>
            <line clip-path="url(#clipPath2)" fill="none" x1="72" x2="74" y1="86" y2="86"/>
            <line clip-path="url(#clipPath2)" fill="none" x1="744" x2="742" y1="86" y2="86"/>
            <line clip-path="url(#clipPath2)" fill="none" x1="72" x2="74" y1="76" y2="76"/>
            <line clip-path="url(#clipPath2)" fill="none" x1="744" x2="742" y1="76" y2="76"/>
            <line clip-path="url(#clipPath2)" fill="none" x1="70" x2="74" y1="66" y2="66"/>
            <line clip-path="url(#clipPath2)" fill="none" x1="746" x2="742" y1="66" y2="66"/>
            <text x="43" font-size="23" y="74" clip-path="url(#clipPath2)" stroke="none" font-weight="bold" xml:space="preserve">90</text>
            <text x="749" font-size="23" y="74" clip-path="url(#clipPath2)" stroke="none" font-weight="bold" xml:space="preserve">90</text>
            <line clip-path="url(#clipPath2)" fill="none" x1="72" x2="74" y1="56" y2="56"/>
            <line clip-path="url(#clipPath2)" fill="none" x1="744" x2="742" y1="56" y2="56"/>
        </g>
    </g>
</svg>
