<?xml version="1.0" encoding="UTF-8"?><svg xmlns="http://www.w3.org/2000/svg" xmlns:xlink="http://www.w3.org/1999/xlink" stroke-dasharray="none" shape-rendering="auto" font-family="'Dialog'" width="769" text-rendering="auto" fill-opacity="1" contentScriptType="text/ecmascript" color-interpolation="auto" color-rendering="auto" preserveAspectRatio="xMidYMid meet" font-size="12" fill="black" stroke="black" image-rendering="auto" stroke-miterlimit="10" zoomAndPan="magnify" version="1.0" stroke-linecap="square" stroke-linejoin="miter" contentStyleType="text/css" font-style="normal" height="581" stroke-width="1" stroke-dashoffset="0" font-weight="normal" stroke-opacity="1">
    <!--Generated by the Batik Graphics2D SVG Generator-->
    <defs id="genericDefs"/>
    <g>
        <defs id="defs1">
            <clipPath clipPathUnits="userSpaceOnUse" id="clipPath1">
                <path d="M70 55 L726 55 L726 518 L70 518 L70 55 Z"/>
            </clipPath>
            <clipPath clipPathUnits="userSpaceOnUse" id="clipPath2">
                <path d="M-1 -1 L770 -1 L770 582 L-1 582 L-1 -1 Z"/>
            </clipPath>
            <clipPath clipPathUnits="userSpaceOnUse" id="clipPath3">
                <path d="M563 60 L722 60 L722 155 L563 155 L563 60 Z"/>
            </clipPath>
        </defs>
        <g font-size="15" fill="white" text-rendering="optimizeLegibility" font-family="'Microsoft YaHei UI'" stroke-linejoin="round" stroke="white" stroke-width="0" stroke-miterlimit="0">
            <rect x="71" y="56" clip-path="url(#clipPath1)" width="654" height="461" stroke="none"/>
        </g>
        <g stroke-linecap="butt" font-size="15" fill="rgb(204,204,204)" text-rendering="optimizeLegibility" font-family="'Microsoft YaHei UI'" stroke-dasharray="3,3" stroke="rgb(204,204,204)">
            <line clip-path="url(#clipPath1)" fill="none" x1="71" x2="725" y1="517" y2="517"/>
            <line clip-path="url(#clipPath1)" fill="none" x1="71" x2="725" y1="458" y2="458"/>
            <line clip-path="url(#clipPath1)" fill="none" x1="71" x2="725" y1="399" y2="399"/>
            <line clip-path="url(#clipPath1)" fill="none" x1="71" x2="725" y1="341" y2="341"/>
            <line clip-path="url(#clipPath1)" fill="none" x1="71" x2="725" y1="282" y2="282"/>
            <line clip-path="url(#clipPath1)" fill="none" x1="71" x2="725" y1="223" y2="223"/>
            <line clip-path="url(#clipPath1)" fill="none" x1="71" x2="725" y1="165" y2="165"/>
            <line clip-path="url(#clipPath1)" fill="none" x1="71" x2="725" y1="106" y2="106"/>
        </g>
        <g stroke-linecap="butt" font-size="15" fill="rgb(31,119,180)" text-rendering="optimizeLegibility" font-family="'Microsoft YaHei UI'" stroke="rgb(31,119,180)" stroke-width="2">
            <line clip-path="url(#clipPath1)" fill="none" x1="125" x2="203" y1="517" y2="517" opacity="0.7529"/>
            <line clip-path="url(#clipPath1)" fill="none" x1="203" x2="203" y1="517" y2="517" opacity="0.7529"/>
            <line clip-path="url(#clipPath1)" fill="none" x1="203" x2="203" y1="517" y2="440" opacity="0.7529"/>
            <line clip-path="url(#clipPath1)" fill="none" x1="203" x2="281" y1="440" y2="440" opacity="0.7529"/>
            <line clip-path="url(#clipPath1)" fill="none" x1="281" x2="281" y1="440" y2="440" opacity="0.7529"/>
            <line clip-path="url(#clipPath1)" fill="none" x1="281" x2="281" y1="440" y2="265" opacity="0.7529"/>
            <line clip-path="url(#clipPath1)" fill="none" x1="281" x2="359" y1="265" y2="265" opacity="0.7529"/>
            <line clip-path="url(#clipPath1)" fill="none" x1="359" x2="359" y1="265" y2="265" opacity="0.7529"/>
            <line clip-path="url(#clipPath1)" fill="none" x1="359" x2="359" y1="265" y2="200" opacity="0.7529"/>
            <line clip-path="url(#clipPath1)" fill="none" x1="359" x2="436" y1="200" y2="200" opacity="0.7529"/>
            <line clip-path="url(#clipPath1)" fill="none" x1="436" x2="436" y1="200" y2="200" opacity="0.7529"/>
            <line clip-path="url(#clipPath1)" fill="none" x1="436" x2="436" y1="200" y2="171" opacity="0.7529"/>
            <line clip-path="url(#clipPath1)" fill="none" x1="436" x2="514" y1="171" y2="171" opacity="0.7529"/>
            <line clip-path="url(#clipPath1)" fill="none" x1="514" x2="514" y1="171" y2="171" opacity="0.7529"/>
            <line clip-path="url(#clipPath1)" fill="none" x1="514" x2="514" y1="171" y2="235" opacity="0.7529"/>
            <line clip-path="url(#clipPath1)" fill="none" x1="514" x2="592" y1="235" y2="235" opacity="0.7529"/>
            <line clip-path="url(#clipPath1)" fill="none" x1="592" x2="592" y1="235" y2="235" opacity="0.7529"/>
            <line clip-path="url(#clipPath1)" fill="none" x1="592" x2="592" y1="235" y2="364" opacity="0.7529"/>
            <line clip-path="url(#clipPath1)" fill="none" x1="592" x2="670" y1="364" y2="364" opacity="0.7529"/>
            <line clip-path="url(#clipPath1)" fill="none" x1="203" x2="281" y1="452" y2="452" opacity="0.7529" stroke="rgb(255,127,14)"/>
            <line clip-path="url(#clipPath1)" fill="none" x1="281" x2="281" y1="452" y2="452" opacity="0.7529" stroke="rgb(255,127,14)"/>
            <line clip-path="url(#clipPath1)" fill="none" x1="281" x2="281" y1="452" y2="265" opacity="0.7529" stroke="rgb(255,127,14)"/>
            <line clip-path="url(#clipPath1)" fill="none" x1="281" x2="359" y1="265" y2="265" opacity="0.7529" stroke="rgb(255,127,14)"/>
            <line clip-path="url(#clipPath1)" fill="none" x1="359" x2="359" y1="265" y2="265" opacity="0.7529" stroke="rgb(255,127,14)"/>
            <line clip-path="url(#clipPath1)" fill="none" x1="359" x2="359" y1="265" y2="223" opacity="0.7529" stroke="rgb(255,127,14)"/>
            <line clip-path="url(#clipPath1)" fill="none" x1="359" x2="436" y1="223" y2="223" opacity="0.7529" stroke="rgb(255,127,14)"/>
            <line clip-path="url(#clipPath1)" fill="none" x1="436" x2="436" y1="223" y2="223" opacity="0.7529" stroke="rgb(255,127,14)"/>
            <line clip-path="url(#clipPath1)" fill="none" x1="436" x2="436" y1="223" y2="177" opacity="0.7529" stroke="rgb(255,127,14)"/>
            <line clip-path="url(#clipPath1)" fill="none" x1="436" x2="514" y1="177" y2="177" opacity="0.7529" stroke="rgb(255,127,14)"/>
            <line clip-path="url(#clipPath1)" fill="none" x1="514" x2="514" y1="177" y2="177" opacity="0.7529" stroke="rgb(255,127,14)"/>
            <line clip-path="url(#clipPath1)" fill="none" x1="514" x2="514" y1="177" y2="276" opacity="0.7529" stroke="rgb(255,127,14)"/>
            <line clip-path="url(#clipPath1)" fill="none" x1="514" x2="592" y1="276" y2="276" opacity="0.7529" stroke="rgb(255,127,14)"/>
            <line clip-path="url(#clipPath1)" fill="none" x1="592" x2="592" y1="276" y2="276" opacity="0.7529" stroke="rgb(255,127,14)"/>
            <line clip-path="url(#clipPath1)" fill="none" x1="592" x2="592" y1="276" y2="364" opacity="0.7529" stroke="rgb(255,127,14)"/>
            <line clip-path="url(#clipPath1)" fill="none" x1="592" x2="670" y1="364" y2="364" opacity="0.7529" stroke="rgb(255,127,14)"/>
            <line clip-path="url(#clipPath1)" fill="none" x1="203" x2="281" y1="452" y2="452" opacity="0.7529" stroke="rgb(44,160,44)"/>
            <line clip-path="url(#clipPath1)" fill="none" x1="281" x2="281" y1="452" y2="452" opacity="0.7529" stroke="rgb(44,160,44)"/>
            <line clip-path="url(#clipPath1)" fill="none" x1="281" x2="281" y1="452" y2="364" opacity="0.7529" stroke="rgb(44,160,44)"/>
            <line clip-path="url(#clipPath1)" fill="none" x1="281" x2="359" y1="364" y2="364" opacity="0.7529" stroke="rgb(44,160,44)"/>
            <line clip-path="url(#clipPath1)" fill="none" x1="359" x2="359" y1="364" y2="364" opacity="0.7529" stroke="rgb(44,160,44)"/>
            <line clip-path="url(#clipPath1)" fill="none" x1="359" x2="359" y1="364" y2="235" opacity="0.7529" stroke="rgb(44,160,44)"/>
            <line clip-path="url(#clipPath1)" fill="none" x1="359" x2="436" y1="235" y2="235" opacity="0.7529" stroke="rgb(44,160,44)"/>
            <line clip-path="url(#clipPath1)" fill="none" x1="436" x2="436" y1="235" y2="235" opacity="0.7529" stroke="rgb(44,160,44)"/>
            <line clip-path="url(#clipPath1)" fill="none" x1="436" x2="436" y1="235" y2="300" opacity="0.7529" stroke="rgb(44,160,44)"/>
            <line clip-path="url(#clipPath1)" fill="none" x1="436" x2="514" y1="300" y2="300" opacity="0.7529" stroke="rgb(44,160,44)"/>
            <line clip-path="url(#clipPath1)" fill="none" x1="514" x2="514" y1="300" y2="300" opacity="0.7529" stroke="rgb(44,160,44)"/>
            <line clip-path="url(#clipPath1)" fill="none" x1="514" x2="514" y1="300" y2="317" opacity="0.7529" stroke="rgb(44,160,44)"/>
            <line clip-path="url(#clipPath1)" fill="none" x1="514" x2="592" y1="317" y2="317" opacity="0.7529" stroke="rgb(44,160,44)"/>
            <line clip-path="url(#clipPath1)" fill="none" x1="592" x2="592" y1="317" y2="317" opacity="0.7529" stroke="rgb(44,160,44)"/>
            <line clip-path="url(#clipPath1)" fill="none" x1="592" x2="592" y1="317" y2="458" opacity="0.7529" stroke="rgb(44,160,44)"/>
            <line clip-path="url(#clipPath1)" fill="none" x1="592" x2="670" y1="458" y2="458" opacity="0.7529" stroke="rgb(44,160,44)"/>
            <rect x="71" y="56" clip-path="url(#clipPath2)" fill="none" width="654" height="461" stroke="black" stroke-width="1"/>
        </g>
        <g text-rendering="optimizeLegibility" font-size="16" font-family="'Arial'" stroke-linecap="butt">
            <text xml:space="preserve" x="382" y="15" clip-path="url(#clipPath2)" stroke="none">.</text>
            <rect x="564" y="61" clip-path="url(#clipPath3)" fill="white" width="156" opacity="0.7529" height="92" stroke="none"/>
            <line clip-path="url(#clipPath3)" fill="none" x1="570" x2="584" y1="78" y2="78" stroke="rgb(31,119,180)" stroke-width="2"/>
            <text x="586" font-size="20" y="85" clip-path="url(#clipPath3)" stroke="none" font-weight="bold" stroke-width="2" xml:space="preserve">Depth</text>
        </g>
        <g stroke-linecap="butt" font-size="20" fill="rgb(255,127,14)" text-rendering="optimizeLegibility" font-family="'Arial'" stroke="rgb(255,127,14)" font-weight="bold" stroke-width="2">
            <line clip-path="url(#clipPath3)" fill="none" x1="570" x2="584" y1="107" y2="107"/>
            <text x="586" y="114" clip-path="url(#clipPath3)" fill="black" stroke="none" xml:space="preserve">Upload Depth</text>
            <line clip-path="url(#clipPath3)" fill="none" x1="570" x2="584" y1="136" y2="136" stroke="rgb(44,160,44)"/>
            <text x="586" y="143" clip-path="url(#clipPath3)" fill="black" stroke="none" xml:space="preserve">Upload Finish</text>
        </g>
        <g text-rendering="optimizeLegibility" font-size="23" font-family="'Arial'" font-weight="bold" stroke-linecap="butt">
            <line clip-path="url(#clipPath2)" fill="none" x1="71" x2="725" y1="54" y2="54"/>
            <line clip-path="url(#clipPath2)" fill="none" x1="71" x2="725" y1="519" y2="519"/>
            <text xml:space="preserve" x="325" y="575" clip-path="url(#clipPath2)" stroke="none">Depth of STA</text>
            <line clip-path="url(#clipPath2)" fill="none" x1="78" x2="78" y1="52" y2="54"/>
            <line clip-path="url(#clipPath2)" fill="none" x1="78" x2="78" y1="521" y2="519"/>
            <line clip-path="url(#clipPath2)" fill="none" x1="94" x2="94" y1="52" y2="54"/>
            <line clip-path="url(#clipPath2)" fill="none" x1="94" x2="94" y1="521" y2="519"/>
            <line clip-path="url(#clipPath2)" fill="none" x1="109" x2="109" y1="52" y2="54"/>
            <line clip-path="url(#clipPath2)" fill="none" x1="109" x2="109" y1="521" y2="519"/>
            <line clip-path="url(#clipPath2)" fill="none" x1="125" x2="125" y1="50" y2="54"/>
            <line clip-path="url(#clipPath2)" fill="none" x1="125" x2="125" y1="523" y2="519"/>
            <text xml:space="preserve" x="120" y="43" clip-path="url(#clipPath2)" stroke="none">0</text>
            <text xml:space="preserve" x="120" y="545" clip-path="url(#clipPath2)" stroke="none">0</text>
            <line clip-path="url(#clipPath2)" fill="none" x1="141" x2="141" y1="52" y2="54"/>
            <line clip-path="url(#clipPath2)" fill="none" x1="141" x2="141" y1="521" y2="519"/>
            <line clip-path="url(#clipPath2)" fill="none" x1="156" x2="156" y1="52" y2="54"/>
            <line clip-path="url(#clipPath2)" fill="none" x1="156" x2="156" y1="521" y2="519"/>
            <line clip-path="url(#clipPath2)" fill="none" x1="172" x2="172" y1="52" y2="54"/>
            <line clip-path="url(#clipPath2)" fill="none" x1="172" x2="172" y1="521" y2="519"/>
            <line clip-path="url(#clipPath2)" fill="none" x1="187" x2="187" y1="52" y2="54"/>
            <line clip-path="url(#clipPath2)" fill="none" x1="187" x2="187" y1="521" y2="519"/>
            <line clip-path="url(#clipPath2)" fill="none" x1="203" x2="203" y1="50" y2="54"/>
            <line clip-path="url(#clipPath2)" fill="none" x1="203" x2="203" y1="523" y2="519"/>
            <text xml:space="preserve" x="198" y="43" clip-path="url(#clipPath2)" stroke="none">1</text>
            <text xml:space="preserve" x="198" y="545" clip-path="url(#clipPath2)" stroke="none">1</text>
            <line clip-path="url(#clipPath2)" fill="none" x1="218" x2="218" y1="52" y2="54"/>
            <line clip-path="url(#clipPath2)" fill="none" x1="218" x2="218" y1="521" y2="519"/>
            <line clip-path="url(#clipPath2)" fill="none" x1="234" x2="234" y1="52" y2="54"/>
            <line clip-path="url(#clipPath2)" fill="none" x1="234" x2="234" y1="521" y2="519"/>
            <line clip-path="url(#clipPath2)" fill="none" x1="250" x2="250" y1="52" y2="54"/>
            <line clip-path="url(#clipPath2)" fill="none" x1="250" x2="250" y1="521" y2="519"/>
            <line clip-path="url(#clipPath2)" fill="none" x1="265" x2="265" y1="52" y2="54"/>
            <line clip-path="url(#clipPath2)" fill="none" x1="265" x2="265" y1="521" y2="519"/>
            <line clip-path="url(#clipPath2)" fill="none" x1="281" x2="281" y1="50" y2="54"/>
            <line clip-path="url(#clipPath2)" fill="none" x1="281" x2="281" y1="523" y2="519"/>
            <text xml:space="preserve" x="276" y="43" clip-path="url(#clipPath2)" stroke="none">2</text>
            <text xml:space="preserve" x="276" y="545" clip-path="url(#clipPath2)" stroke="none">2</text>
            <line clip-path="url(#clipPath2)" fill="none" x1="296" x2="296" y1="52" y2="54"/>
            <line clip-path="url(#clipPath2)" fill="none" x1="296" x2="296" y1="521" y2="519"/>
            <line clip-path="url(#clipPath2)" fill="none" x1="312" x2="312" y1="52" y2="54"/>
            <line clip-path="url(#clipPath2)" fill="none" x1="312" x2="312" y1="521" y2="519"/>
            <line clip-path="url(#clipPath2)" fill="none" x1="327" x2="327" y1="52" y2="54"/>
            <line clip-path="url(#clipPath2)" fill="none" x1="327" x2="327" y1="521" y2="519"/>
            <line clip-path="url(#clipPath2)" fill="none" x1="343" x2="343" y1="52" y2="54"/>
            <line clip-path="url(#clipPath2)" fill="none" x1="343" x2="343" y1="521" y2="519"/>
            <line clip-path="url(#clipPath2)" fill="none" x1="359" x2="359" y1="50" y2="54"/>
            <line clip-path="url(#clipPath2)" fill="none" x1="359" x2="359" y1="523" y2="519"/>
            <text xml:space="preserve" x="354" y="43" clip-path="url(#clipPath2)" stroke="none">3</text>
            <text xml:space="preserve" x="354" y="545" clip-path="url(#clipPath2)" stroke="none">3</text>
            <line clip-path="url(#clipPath2)" fill="none" x1="374" x2="374" y1="52" y2="54"/>
            <line clip-path="url(#clipPath2)" fill="none" x1="374" x2="374" y1="521" y2="519"/>
            <line clip-path="url(#clipPath2)" fill="none" x1="390" x2="390" y1="52" y2="54"/>
            <line clip-path="url(#clipPath2)" fill="none" x1="390" x2="390" y1="521" y2="519"/>
            <line clip-path="url(#clipPath2)" fill="none" x1="405" x2="405" y1="52" y2="54"/>
            <line clip-path="url(#clipPath2)" fill="none" x1="405" x2="405" y1="521" y2="519"/>
            <line clip-path="url(#clipPath2)" fill="none" x1="421" x2="421" y1="52" y2="54"/>
            <line clip-path="url(#clipPath2)" fill="none" x1="421" x2="421" y1="521" y2="519"/>
            <line clip-path="url(#clipPath2)" fill="none" x1="436" x2="436" y1="50" y2="54"/>
            <line clip-path="url(#clipPath2)" fill="none" x1="436" x2="436" y1="523" y2="519"/>
            <text xml:space="preserve" x="431" y="43" clip-path="url(#clipPath2)" stroke="none">4</text>
            <text xml:space="preserve" x="431" y="545" clip-path="url(#clipPath2)" stroke="none">4</text>
            <line clip-path="url(#clipPath2)" fill="none" x1="452" x2="452" y1="52" y2="54"/>
            <line clip-path="url(#clipPath2)" fill="none" x1="452" x2="452" y1="521" y2="519"/>
            <line clip-path="url(#clipPath2)" fill="none" x1="468" x2="468" y1="52" y2="54"/>
            <line clip-path="url(#clipPath2)" fill="none" x1="468" x2="468" y1="521" y2="519"/>
            <line clip-path="url(#clipPath2)" fill="none" x1="483" x2="483" y1="52" y2="54"/>
            <line clip-path="url(#clipPath2)" fill="none" x1="483" x2="483" y1="521" y2="519"/>
            <line clip-path="url(#clipPath2)" fill="none" x1="499" x2="499" y1="52" y2="54"/>
            <line clip-path="url(#clipPath2)" fill="none" x1="499" x2="499" y1="521" y2="519"/>
            <line clip-path="url(#clipPath2)" fill="none" x1="514" x2="514" y1="50" y2="54"/>
            <line clip-path="url(#clipPath2)" fill="none" x1="514" x2="514" y1="523" y2="519"/>
            <text xml:space="preserve" x="509" y="43" clip-path="url(#clipPath2)" stroke="none">5</text>
            <text xml:space="preserve" x="509" y="545" clip-path="url(#clipPath2)" stroke="none">5</text>
            <line clip-path="url(#clipPath2)" fill="none" x1="530" x2="530" y1="52" y2="54"/>
            <line clip-path="url(#clipPath2)" fill="none" x1="530" x2="530" y1="521" y2="519"/>
            <line clip-path="url(#clipPath2)" fill="none" x1="545" x2="545" y1="52" y2="54"/>
            <line clip-path="url(#clipPath2)" fill="none" x1="545" x2="545" y1="521" y2="519"/>
            <line clip-path="url(#clipPath2)" fill="none" x1="561" x2="561" y1="52" y2="54"/>
            <line clip-path="url(#clipPath2)" fill="none" x1="561" x2="561" y1="521" y2="519"/>
            <line clip-path="url(#clipPath2)" fill="none" x1="577" x2="577" y1="52" y2="54"/>
            <line clip-path="url(#clipPath2)" fill="none" x1="577" x2="577" y1="521" y2="519"/>
            <line clip-path="url(#clipPath2)" fill="none" x1="592" x2="592" y1="50" y2="54"/>
            <line clip-path="url(#clipPath2)" fill="none" x1="592" x2="592" y1="523" y2="519"/>
            <text xml:space="preserve" x="587" y="43" clip-path="url(#clipPath2)" stroke="none">6</text>
            <text xml:space="preserve" x="587" y="545" clip-path="url(#clipPath2)" stroke="none">6</text>
            <line clip-path="url(#clipPath2)" fill="none" x1="608" x2="608" y1="52" y2="54"/>
            <line clip-path="url(#clipPath2)" fill="none" x1="608" x2="608" y1="521" y2="519"/>
            <line clip-path="url(#clipPath2)" fill="none" x1="623" x2="623" y1="52" y2="54"/>
            <line clip-path="url(#clipPath2)" fill="none" x1="623" x2="623" y1="521" y2="519"/>
            <line clip-path="url(#clipPath2)" fill="none" x1="639" x2="639" y1="52" y2="54"/>
            <line clip-path="url(#clipPath2)" fill="none" x1="639" x2="639" y1="521" y2="519"/>
            <line clip-path="url(#clipPath2)" fill="none" x1="654" x2="654" y1="52" y2="54"/>
            <line clip-path="url(#clipPath2)" fill="none" x1="654" x2="654" y1="521" y2="519"/>
            <line clip-path="url(#clipPath2)" fill="none" x1="670" x2="670" y1="50" y2="54"/>
            <line clip-path="url(#clipPath2)" fill="none" x1="670" x2="670" y1="523" y2="519"/>
            <text xml:space="preserve" x="665" y="43" clip-path="url(#clipPath2)" stroke="none">7</text>
            <text xml:space="preserve" x="665" y="545" clip-path="url(#clipPath2)" stroke="none">7</text>
            <line clip-path="url(#clipPath2)" fill="none" x1="686" x2="686" y1="52" y2="54"/>
            <line clip-path="url(#clipPath2)" fill="none" x1="686" x2="686" y1="521" y2="519"/>
            <line clip-path="url(#clipPath2)" fill="none" x1="701" x2="701" y1="52" y2="54"/>
            <line clip-path="url(#clipPath2)" fill="none" x1="701" x2="701" y1="521" y2="519"/>
            <line clip-path="url(#clipPath2)" fill="none" x1="717" x2="717" y1="52" y2="54"/>
            <line clip-path="url(#clipPath2)" fill="none" x1="717" x2="717" y1="521" y2="519"/>
            <line clip-path="url(#clipPath2)" fill="none" x1="69" x2="69" y1="56" y2="517"/>
            <line clip-path="url(#clipPath2)" fill="none" x1="727" x2="727" y1="56" y2="517"/>
            <line clip-path="url(#clipPath2)" fill="none" x1="65" x2="69" y1="517" y2="517"/>
            <line clip-path="url(#clipPath2)" fill="none" x1="731" x2="727" y1="517" y2="517"/>
            <text xml:space="preserve" x="51" y="525" clip-path="url(#clipPath2)" stroke="none">0</text>
            <text xml:space="preserve" x="734" y="525" clip-path="url(#clipPath2)" stroke="none">0</text>
            <line clip-path="url(#clipPath2)" fill="none" x1="67" x2="69" y1="505" y2="505"/>
            <line clip-path="url(#clipPath2)" fill="none" x1="729" x2="727" y1="505" y2="505"/>
            <line clip-path="url(#clipPath2)" fill="none" x1="67" x2="69" y1="493" y2="493"/>
            <line clip-path="url(#clipPath2)" fill="none" x1="729" x2="727" y1="493" y2="493"/>
            <line clip-path="url(#clipPath2)" fill="none" x1="67" x2="69" y1="481" y2="481"/>
            <line clip-path="url(#clipPath2)" fill="none" x1="729" x2="727" y1="481" y2="481"/>
            <line clip-path="url(#clipPath2)" fill="none" x1="67" x2="69" y1="470" y2="470"/>
            <line clip-path="url(#clipPath2)" fill="none" x1="729" x2="727" y1="470" y2="470"/>
            <line clip-path="url(#clipPath2)" fill="none" x1="65" x2="69" y1="458" y2="458"/>
            <line clip-path="url(#clipPath2)" fill="none" x1="731" x2="727" y1="458" y2="458"/>
            <text xml:space="preserve" x="38" y="466" clip-path="url(#clipPath2)" stroke="none">10</text>
            <text xml:space="preserve" x="734" y="466" clip-path="url(#clipPath2)" stroke="none">10</text>
            <line clip-path="url(#clipPath2)" fill="none" x1="67" x2="69" y1="446" y2="446"/>
            <line clip-path="url(#clipPath2)" fill="none" x1="729" x2="727" y1="446" y2="446"/>
            <line clip-path="url(#clipPath2)" fill="none" x1="67" x2="69" y1="434" y2="434"/>
            <line clip-path="url(#clipPath2)" fill="none" x1="729" x2="727" y1="434" y2="434"/>
            <line clip-path="url(#clipPath2)" fill="none" x1="67" x2="69" y1="423" y2="423"/>
            <line clip-path="url(#clipPath2)" fill="none" x1="729" x2="727" y1="423" y2="423"/>
            <line clip-path="url(#clipPath2)" fill="none" x1="67" x2="69" y1="411" y2="411"/>
            <line clip-path="url(#clipPath2)" fill="none" x1="729" x2="727" y1="411" y2="411"/>
            <line clip-path="url(#clipPath2)" fill="none" x1="65" x2="69" y1="399" y2="399"/>
            <line clip-path="url(#clipPath2)" fill="none" x1="731" x2="727" y1="399" y2="399"/>
            <text xml:space="preserve" x="38" y="407" clip-path="url(#clipPath2)" stroke="none">20</text>
            <text xml:space="preserve" x="734" y="407" clip-path="url(#clipPath2)" stroke="none">20</text>
            <line clip-path="url(#clipPath2)" fill="none" x1="67" x2="69" y1="388" y2="388"/>
            <line clip-path="url(#clipPath2)" fill="none" x1="729" x2="727" y1="388" y2="388"/>
            <line clip-path="url(#clipPath2)" fill="none" x1="67" x2="69" y1="376" y2="376"/>
            <line clip-path="url(#clipPath2)" fill="none" x1="729" x2="727" y1="376" y2="376"/>
            <line clip-path="url(#clipPath2)" fill="none" x1="67" x2="69" y1="364" y2="364"/>
            <line clip-path="url(#clipPath2)" fill="none" x1="729" x2="727" y1="364" y2="364"/>
            <line clip-path="url(#clipPath2)" fill="none" x1="67" x2="69" y1="352" y2="352"/>
            <line clip-path="url(#clipPath2)" fill="none" x1="729" x2="727" y1="352" y2="352"/>
            <line clip-path="url(#clipPath2)" fill="none" x1="65" x2="69" y1="341" y2="341"/>
            <line clip-path="url(#clipPath2)" fill="none" x1="731" x2="727" y1="341" y2="341"/>
            <text xml:space="preserve" x="38" y="349" clip-path="url(#clipPath2)" stroke="none">30</text>
            <text xml:space="preserve" x="734" y="349" clip-path="url(#clipPath2)" stroke="none">30</text>
            <line clip-path="url(#clipPath2)" fill="none" x1="67" x2="69" y1="329" y2="329"/>
            <line clip-path="url(#clipPath2)" fill="none" x1="729" x2="727" y1="329" y2="329"/>
            <line clip-path="url(#clipPath2)" fill="none" x1="67" x2="69" y1="317" y2="317"/>
            <line clip-path="url(#clipPath2)" fill="none" x1="729" x2="727" y1="317" y2="317"/>
            <line clip-path="url(#clipPath2)" fill="none" x1="67" x2="69" y1="306" y2="306"/>
            <line clip-path="url(#clipPath2)" fill="none" x1="729" x2="727" y1="306" y2="306"/>
            <line clip-path="url(#clipPath2)" fill="none" x1="67" x2="69" y1="294" y2="294"/>
            <line clip-path="url(#clipPath2)" fill="none" x1="729" x2="727" y1="294" y2="294"/>
            <line clip-path="url(#clipPath2)" fill="none" x1="65" x2="69" y1="282" y2="282"/>
            <line clip-path="url(#clipPath2)" fill="none" x1="731" x2="727" y1="282" y2="282"/>
            <text xml:space="preserve" x="38" y="290" clip-path="url(#clipPath2)" stroke="none">40</text>
            <text xml:space="preserve" x="734" y="290" clip-path="url(#clipPath2)" stroke="none">40</text>
            <line clip-path="url(#clipPath2)" fill="none" x1="67" x2="69" y1="270" y2="270"/>
            <line clip-path="url(#clipPath2)" fill="none" x1="729" x2="727" y1="270" y2="270"/>
            <line clip-path="url(#clipPath2)" fill="none" x1="67" x2="69" y1="259" y2="259"/>
            <line clip-path="url(#clipPath2)" fill="none" x1="729" x2="727" y1="259" y2="259"/>
            <line clip-path="url(#clipPath2)" fill="none" x1="67" x2="69" y1="247" y2="247"/>
            <line clip-path="url(#clipPath2)" fill="none" x1="729" x2="727" y1="247" y2="247"/>
            <line clip-path="url(#clipPath2)" fill="none" x1="67" x2="69" y1="235" y2="235"/>
            <line clip-path="url(#clipPath2)" fill="none" x1="729" x2="727" y1="235" y2="235"/>
            <line clip-path="url(#clipPath2)" fill="none" x1="65" x2="69" y1="223" y2="223"/>
            <line clip-path="url(#clipPath2)" fill="none" x1="731" x2="727" y1="223" y2="223"/>
            <text xml:space="preserve" x="38" y="231" clip-path="url(#clipPath2)" stroke="none">50</text>
            <text xml:space="preserve" x="734" y="231" clip-path="url(#clipPath2)" stroke="none">50</text>
            <line clip-path="url(#clipPath2)" fill="none" x1="67" x2="69" y1="212" y2="212"/>
            <line clip-path="url(#clipPath2)" fill="none" x1="729" x2="727" y1="212" y2="212"/>
            <line clip-path="url(#clipPath2)" fill="none" x1="67" x2="69" y1="200" y2="200"/>
            <line clip-path="url(#clipPath2)" fill="none" x1="729" x2="727" y1="200" y2="200"/>
            <line clip-path="url(#clipPath2)" fill="none" x1="67" x2="69" y1="188" y2="188"/>
            <line clip-path="url(#clipPath2)" fill="none" x1="729" x2="727" y1="188" y2="188"/>
            <line clip-path="url(#clipPath2)" fill="none" x1="67" x2="69" y1="177" y2="177"/>
            <line clip-path="url(#clipPath2)" fill="none" x1="729" x2="727" y1="177" y2="177"/>
            <line clip-path="url(#clipPath2)" fill="none" x1="65" x2="69" y1="165" y2="165"/>
            <line clip-path="url(#clipPath2)" fill="none" x1="731" x2="727" y1="165" y2="165"/>
            <text xml:space="preserve" x="38" y="173" clip-path="url(#clipPath2)" stroke="none">60</text>
            <text xml:space="preserve" x="734" y="173" clip-path="url(#clipPath2)" stroke="none">60</text>
            <line clip-path="url(#clipPath2)" fill="none" x1="67" x2="69" y1="153" y2="153"/>
            <line clip-path="url(#clipPath2)" fill="none" x1="729" x2="727" y1="153" y2="153"/>
            <line clip-path="url(#clipPath2)" fill="none" x1="67" x2="69" y1="141" y2="141"/>
            <line clip-path="url(#clipPath2)" fill="none" x1="729" x2="727" y1="141" y2="141"/>
            <line clip-path="url(#clipPath2)" fill="none" x1="67" x2="69" y1="130" y2="130"/>
            <line clip-path="url(#clipPath2)" fill="none" x1="729" x2="727" y1="130" y2="130"/>
            <line clip-path="url(#clipPath2)" fill="none" x1="67" x2="69" y1="118" y2="118"/>
            <line clip-path="url(#clipPath2)" fill="none" x1="729" x2="727" y1="118" y2="118"/>
            <line clip-path="url(#clipPath2)" fill="none" x1="65" x2="69" y1="106" y2="106"/>
            <line clip-path="url(#clipPath2)" fill="none" x1="731" x2="727" y1="106" y2="106"/>
            <text xml:space="preserve" x="38" y="114" clip-path="url(#clipPath2)" stroke="none">70</text>
            <text xml:space="preserve" x="734" y="114" clip-path="url(#clipPath2)" stroke="none">70</text>
            <line clip-path="url(#clipPath2)" fill="none" x1="67" x2="69" y1="95" y2="95"/>
            <line clip-path="url(#clipPath2)" fill="none" x1="729" x2="727" y1="95" y2="95"/>
            <line clip-path="url(#clipPath2)" fill="none" x1="67" x2="69" y1="83" y2="83"/>
            <line clip-path="url(#clipPath2)" fill="none" x1="729" x2="727" y1="83" y2="83"/>
            <line clip-path="url(#clipPath2)" fill="none" x1="67" x2="69" y1="71" y2="71"/>
            <line clip-path="url(#clipPath2)" fill="none" x1="729" x2="727" y1="71" y2="71"/>
            <line clip-path="url(#clipPath2)" fill="none" x1="67" x2="69" y1="59" y2="59"/>
            <line clip-path="url(#clipPath2)" fill="none" x1="729" x2="727" y1="59" y2="59"/>
        </g>
    </g>
</svg>
