<?xml version="1.0" encoding="UTF-8"?><svg xmlns="http://www.w3.org/2000/svg" xmlns:xlink="http://www.w3.org/1999/xlink" stroke-dasharray="none" shape-rendering="auto" font-family="'Dialog'" width="877" text-rendering="auto" fill-opacity="1" contentScriptType="text/ecmascript" color-interpolation="auto" color-rendering="auto" preserveAspectRatio="xMidYMid meet" font-size="12" fill="black" stroke="black" image-rendering="auto" stroke-miterlimit="10" zoomAndPan="magnify" version="1.0" stroke-linecap="square" stroke-linejoin="miter" contentStyleType="text/css" font-style="normal" height="581" stroke-width="1" stroke-dashoffset="0" font-weight="normal" stroke-opacity="1">
    <!--Generated by the Batik Graphics2D SVG Generator-->
    <defs id="genericDefs"/>
    <g>
        <defs id="defs1">
            <clipPath clipPathUnits="userSpaceOnUse" id="clipPath1">
                <path d="M75 55 L829 55 L829 518 L75 518 L75 55 Z"/>
            </clipPath>
            <clipPath clipPathUnits="userSpaceOnUse" id="clipPath2">
                <path d="M-1 -1 L878 -1 L878 582 L-1 582 L-1 -1 Z"/>
            </clipPath>
            <clipPath clipPathUnits="userSpaceOnUse" id="clipPath3">
                <path d="M666 60 L825 60 L825 126 L666 126 L666 60 Z"/>
            </clipPath>
        </defs>
        <g font-size="15" fill="white" text-rendering="optimizeLegibility" font-family="'Microsoft YaHei UI'" stroke-linejoin="round" stroke="white" stroke-width="0" stroke-miterlimit="0">
            <rect x="76" y="56" clip-path="url(#clipPath1)" width="752" height="461" stroke="none"/>
        </g>
        <g stroke-linecap="butt" font-size="15" fill="rgb(204,204,204)" text-rendering="optimizeLegibility" font-family="'Microsoft YaHei UI'" stroke-dasharray="3,3" stroke="rgb(204,204,204)">
            <line clip-path="url(#clipPath1)" fill="none" x1="76" x2="828" y1="517" y2="517"/>
            <line clip-path="url(#clipPath1)" fill="none" x1="76" x2="828" y1="462" y2="462"/>
            <line clip-path="url(#clipPath1)" fill="none" x1="76" x2="828" y1="407" y2="407"/>
            <line clip-path="url(#clipPath1)" fill="none" x1="76" x2="828" y1="352" y2="352"/>
            <line clip-path="url(#clipPath1)" fill="none" x1="76" x2="828" y1="297" y2="297"/>
            <line clip-path="url(#clipPath1)" fill="none" x1="76" x2="828" y1="242" y2="242"/>
            <line clip-path="url(#clipPath1)" fill="none" x1="76" x2="828" y1="187" y2="187"/>
            <line clip-path="url(#clipPath1)" fill="none" x1="76" x2="828" y1="132" y2="132"/>
            <line clip-path="url(#clipPath1)" fill="none" x1="76" x2="828" y1="77" y2="77"/>
        </g>
        <g stroke-linecap="butt" font-size="15" fill="rgb(31,119,180)" text-rendering="optimizeLegibility" font-family="'Microsoft YaHei UI'" stroke="rgb(31,119,180)" stroke-width="2">
            <line clip-path="url(#clipPath1)" fill="none" x1="138" x2="228" y1="517" y2="517" opacity="0.7529"/>
            <line clip-path="url(#clipPath1)" fill="none" x1="228" x2="228" y1="517" y2="517" opacity="0.7529"/>
            <line clip-path="url(#clipPath1)" fill="none" x1="228" x2="228" y1="517" y2="335" opacity="0.7529"/>
            <line clip-path="url(#clipPath1)" fill="none" x1="228" x2="317" y1="335" y2="335" opacity="0.7529"/>
            <line clip-path="url(#clipPath1)" fill="none" x1="317" x2="317" y1="335" y2="335" opacity="0.7529"/>
            <line clip-path="url(#clipPath1)" fill="none" x1="317" x2="317" y1="335" y2="187" opacity="0.7529"/>
            <line clip-path="url(#clipPath1)" fill="none" x1="317" x2="407" y1="187" y2="187" opacity="0.7529"/>
            <line clip-path="url(#clipPath1)" fill="none" x1="407" x2="407" y1="187" y2="187" opacity="0.7529"/>
            <line clip-path="url(#clipPath1)" fill="none" x1="407" x2="407" y1="187" y2="171" opacity="0.7529"/>
            <line clip-path="url(#clipPath1)" fill="none" x1="407" x2="496" y1="171" y2="171" opacity="0.7529"/>
            <line clip-path="url(#clipPath1)" fill="none" x1="496" x2="496" y1="171" y2="171" opacity="0.7529"/>
            <line clip-path="url(#clipPath1)" fill="none" x1="496" x2="496" y1="171" y2="286" opacity="0.7529"/>
            <line clip-path="url(#clipPath1)" fill="none" x1="496" x2="586" y1="286" y2="286" opacity="0.7529"/>
            <line clip-path="url(#clipPath1)" fill="none" x1="586" x2="586" y1="286" y2="286" opacity="0.7529"/>
            <line clip-path="url(#clipPath1)" fill="none" x1="586" x2="586" y1="286" y2="357" opacity="0.7529"/>
            <line clip-path="url(#clipPath1)" fill="none" x1="586" x2="675" y1="357" y2="357" opacity="0.7529"/>
            <line clip-path="url(#clipPath1)" fill="none" x1="675" x2="675" y1="357" y2="357" opacity="0.7529"/>
            <line clip-path="url(#clipPath1)" fill="none" x1="675" x2="675" y1="357" y2="407" opacity="0.7529"/>
            <line clip-path="url(#clipPath1)" fill="none" x1="675" x2="765" y1="407" y2="407" opacity="0.7529"/>
            <line clip-path="url(#clipPath1)" fill="none" x1="228" x2="317" y1="352" y2="352" opacity="0.7529" stroke="rgb(255,127,14)"/>
            <line clip-path="url(#clipPath1)" fill="none" x1="317" x2="317" y1="352" y2="352" opacity="0.7529" stroke="rgb(255,127,14)"/>
            <line clip-path="url(#clipPath1)" fill="none" x1="317" x2="317" y1="352" y2="198" opacity="0.7529" stroke="rgb(255,127,14)"/>
            <line clip-path="url(#clipPath1)" fill="none" x1="317" x2="407" y1="198" y2="198" opacity="0.7529" stroke="rgb(255,127,14)"/>
            <line clip-path="url(#clipPath1)" fill="none" x1="407" x2="407" y1="198" y2="198" opacity="0.7529" stroke="rgb(255,127,14)"/>
            <line clip-path="url(#clipPath1)" fill="none" x1="407" x2="407" y1="198" y2="198" opacity="0.7529" stroke="rgb(255,127,14)"/>
            <line clip-path="url(#clipPath1)" fill="none" x1="407" x2="496" y1="198" y2="198" opacity="0.7529" stroke="rgb(255,127,14)"/>
            <line clip-path="url(#clipPath1)" fill="none" x1="496" x2="496" y1="198" y2="198" opacity="0.7529" stroke="rgb(255,127,14)"/>
            <line clip-path="url(#clipPath1)" fill="none" x1="496" x2="496" y1="198" y2="313" opacity="0.7529" stroke="rgb(255,127,14)"/>
            <line clip-path="url(#clipPath1)" fill="none" x1="496" x2="586" y1="313" y2="313" opacity="0.7529" stroke="rgb(255,127,14)"/>
            <line clip-path="url(#clipPath1)" fill="none" x1="586" x2="586" y1="313" y2="313" opacity="0.7529" stroke="rgb(255,127,14)"/>
            <line clip-path="url(#clipPath1)" fill="none" x1="586" x2="586" y1="313" y2="357" opacity="0.7529" stroke="rgb(255,127,14)"/>
            <line clip-path="url(#clipPath1)" fill="none" x1="586" x2="675" y1="357" y2="357" opacity="0.7529" stroke="rgb(255,127,14)"/>
            <line clip-path="url(#clipPath1)" fill="none" x1="675" x2="675" y1="357" y2="357" opacity="0.7529" stroke="rgb(255,127,14)"/>
            <line clip-path="url(#clipPath1)" fill="none" x1="675" x2="675" y1="357" y2="407" opacity="0.7529" stroke="rgb(255,127,14)"/>
            <line clip-path="url(#clipPath1)" fill="none" x1="675" x2="765" y1="407" y2="407" opacity="0.7529" stroke="rgb(255,127,14)"/>
            <rect x="76" y="56" clip-path="url(#clipPath2)" fill="none" width="752" height="461" stroke="black" stroke-width="1"/>
        </g>
        <g text-rendering="optimizeLegibility" font-size="16" font-family="'Arial'" stroke-linecap="butt">
            <text xml:space="preserve" x="436" y="15" clip-path="url(#clipPath2)" stroke="none">.</text>
            <rect x="667" y="61" clip-path="url(#clipPath3)" fill="white" width="156" opacity="0.7529" height="63" stroke="none"/>
            <line clip-path="url(#clipPath3)" fill="none" x1="673" x2="687" y1="78" y2="78" stroke="rgb(31,119,180)" stroke-width="2"/>
            <text x="689" font-size="20" y="85" clip-path="url(#clipPath3)" stroke="none" font-weight="bold" stroke-width="2" xml:space="preserve">Depth</text>
        </g>
        <g stroke-linecap="butt" font-size="20" fill="rgb(255,127,14)" text-rendering="optimizeLegibility" font-family="'Arial'" stroke="rgb(255,127,14)" font-weight="bold" stroke-width="2">
            <line clip-path="url(#clipPath3)" fill="none" x1="673" x2="687" y1="107" y2="107"/>
            <text x="689" y="114" clip-path="url(#clipPath3)" fill="black" stroke="none" xml:space="preserve">Upload Finish</text>
        </g>
        <g text-rendering="optimizeLegibility" font-size="23" font-family="'Arial'" font-weight="bold" stroke-linecap="butt">
            <line clip-path="url(#clipPath2)" fill="none" x1="76" x2="828" y1="54" y2="54"/>
            <line clip-path="url(#clipPath2)" fill="none" x1="76" x2="828" y1="519" y2="519"/>
            <text xml:space="preserve" x="379" y="575" clip-path="url(#clipPath2)" stroke="none">Depth of STA</text>
            <line clip-path="url(#clipPath2)" fill="none" x1="84" x2="84" y1="52" y2="54"/>
            <line clip-path="url(#clipPath2)" fill="none" x1="84" x2="84" y1="521" y2="519"/>
            <line clip-path="url(#clipPath2)" fill="none" x1="102" x2="102" y1="52" y2="54"/>
            <line clip-path="url(#clipPath2)" fill="none" x1="102" x2="102" y1="521" y2="519"/>
            <line clip-path="url(#clipPath2)" fill="none" x1="120" x2="120" y1="52" y2="54"/>
            <line clip-path="url(#clipPath2)" fill="none" x1="120" x2="120" y1="521" y2="519"/>
            <line clip-path="url(#clipPath2)" fill="none" x1="138" x2="138" y1="50" y2="54"/>
            <line clip-path="url(#clipPath2)" fill="none" x1="138" x2="138" y1="523" y2="519"/>
            <text xml:space="preserve" x="133" y="43" clip-path="url(#clipPath2)" stroke="none">0</text>
            <text xml:space="preserve" x="133" y="545" clip-path="url(#clipPath2)" stroke="none">0</text>
            <line clip-path="url(#clipPath2)" fill="none" x1="156" x2="156" y1="52" y2="54"/>
            <line clip-path="url(#clipPath2)" fill="none" x1="156" x2="156" y1="521" y2="519"/>
            <line clip-path="url(#clipPath2)" fill="none" x1="174" x2="174" y1="52" y2="54"/>
            <line clip-path="url(#clipPath2)" fill="none" x1="174" x2="174" y1="521" y2="519"/>
            <line clip-path="url(#clipPath2)" fill="none" x1="192" x2="192" y1="52" y2="54"/>
            <line clip-path="url(#clipPath2)" fill="none" x1="192" x2="192" y1="521" y2="519"/>
            <line clip-path="url(#clipPath2)" fill="none" x1="210" x2="210" y1="52" y2="54"/>
            <line clip-path="url(#clipPath2)" fill="none" x1="210" x2="210" y1="521" y2="519"/>
            <line clip-path="url(#clipPath2)" fill="none" x1="228" x2="228" y1="50" y2="54"/>
            <line clip-path="url(#clipPath2)" fill="none" x1="228" x2="228" y1="523" y2="519"/>
            <text xml:space="preserve" x="223" y="43" clip-path="url(#clipPath2)" stroke="none">1</text>
            <text xml:space="preserve" x="223" y="545" clip-path="url(#clipPath2)" stroke="none">1</text>
            <line clip-path="url(#clipPath2)" fill="none" x1="246" x2="246" y1="52" y2="54"/>
            <line clip-path="url(#clipPath2)" fill="none" x1="246" x2="246" y1="521" y2="519"/>
            <line clip-path="url(#clipPath2)" fill="none" x1="263" x2="263" y1="52" y2="54"/>
            <line clip-path="url(#clipPath2)" fill="none" x1="263" x2="263" y1="521" y2="519"/>
            <line clip-path="url(#clipPath2)" fill="none" x1="281" x2="281" y1="52" y2="54"/>
            <line clip-path="url(#clipPath2)" fill="none" x1="281" x2="281" y1="521" y2="519"/>
            <line clip-path="url(#clipPath2)" fill="none" x1="299" x2="299" y1="52" y2="54"/>
            <line clip-path="url(#clipPath2)" fill="none" x1="299" x2="299" y1="521" y2="519"/>
            <line clip-path="url(#clipPath2)" fill="none" x1="317" x2="317" y1="50" y2="54"/>
            <line clip-path="url(#clipPath2)" fill="none" x1="317" x2="317" y1="523" y2="519"/>
            <text xml:space="preserve" x="312" y="43" clip-path="url(#clipPath2)" stroke="none">2</text>
            <text xml:space="preserve" x="312" y="545" clip-path="url(#clipPath2)" stroke="none">2</text>
            <line clip-path="url(#clipPath2)" fill="none" x1="335" x2="335" y1="52" y2="54"/>
            <line clip-path="url(#clipPath2)" fill="none" x1="335" x2="335" y1="521" y2="519"/>
            <line clip-path="url(#clipPath2)" fill="none" x1="353" x2="353" y1="52" y2="54"/>
            <line clip-path="url(#clipPath2)" fill="none" x1="353" x2="353" y1="521" y2="519"/>
            <line clip-path="url(#clipPath2)" fill="none" x1="371" x2="371" y1="52" y2="54"/>
            <line clip-path="url(#clipPath2)" fill="none" x1="371" x2="371" y1="521" y2="519"/>
            <line clip-path="url(#clipPath2)" fill="none" x1="389" x2="389" y1="52" y2="54"/>
            <line clip-path="url(#clipPath2)" fill="none" x1="389" x2="389" y1="521" y2="519"/>
            <line clip-path="url(#clipPath2)" fill="none" x1="407" x2="407" y1="50" y2="54"/>
            <line clip-path="url(#clipPath2)" fill="none" x1="407" x2="407" y1="523" y2="519"/>
            <text xml:space="preserve" x="402" y="43" clip-path="url(#clipPath2)" stroke="none">3</text>
            <text xml:space="preserve" x="402" y="545" clip-path="url(#clipPath2)" stroke="none">3</text>
            <line clip-path="url(#clipPath2)" fill="none" x1="425" x2="425" y1="52" y2="54"/>
            <line clip-path="url(#clipPath2)" fill="none" x1="425" x2="425" y1="521" y2="519"/>
            <line clip-path="url(#clipPath2)" fill="none" x1="443" x2="443" y1="52" y2="54"/>
            <line clip-path="url(#clipPath2)" fill="none" x1="443" x2="443" y1="521" y2="519"/>
            <line clip-path="url(#clipPath2)" fill="none" x1="460" x2="460" y1="52" y2="54"/>
            <line clip-path="url(#clipPath2)" fill="none" x1="460" x2="460" y1="521" y2="519"/>
            <line clip-path="url(#clipPath2)" fill="none" x1="478" x2="478" y1="52" y2="54"/>
            <line clip-path="url(#clipPath2)" fill="none" x1="478" x2="478" y1="521" y2="519"/>
            <line clip-path="url(#clipPath2)" fill="none" x1="496" x2="496" y1="50" y2="54"/>
            <line clip-path="url(#clipPath2)" fill="none" x1="496" x2="496" y1="523" y2="519"/>
            <text xml:space="preserve" x="491" y="43" clip-path="url(#clipPath2)" stroke="none">4</text>
            <text xml:space="preserve" x="491" y="545" clip-path="url(#clipPath2)" stroke="none">4</text>
            <line clip-path="url(#clipPath2)" fill="none" x1="514" x2="514" y1="52" y2="54"/>
            <line clip-path="url(#clipPath2)" fill="none" x1="514" x2="514" y1="521" y2="519"/>
            <line clip-path="url(#clipPath2)" fill="none" x1="532" x2="532" y1="52" y2="54"/>
            <line clip-path="url(#clipPath2)" fill="none" x1="532" x2="532" y1="521" y2="519"/>
            <line clip-path="url(#clipPath2)" fill="none" x1="550" x2="550" y1="52" y2="54"/>
            <line clip-path="url(#clipPath2)" fill="none" x1="550" x2="550" y1="521" y2="519"/>
            <line clip-path="url(#clipPath2)" fill="none" x1="568" x2="568" y1="52" y2="54"/>
            <line clip-path="url(#clipPath2)" fill="none" x1="568" x2="568" y1="521" y2="519"/>
            <line clip-path="url(#clipPath2)" fill="none" x1="586" x2="586" y1="50" y2="54"/>
            <line clip-path="url(#clipPath2)" fill="none" x1="586" x2="586" y1="523" y2="519"/>
            <text xml:space="preserve" x="581" y="43" clip-path="url(#clipPath2)" stroke="none">5</text>
            <text xml:space="preserve" x="581" y="545" clip-path="url(#clipPath2)" stroke="none">5</text>
            <line clip-path="url(#clipPath2)" fill="none" x1="604" x2="604" y1="52" y2="54"/>
            <line clip-path="url(#clipPath2)" fill="none" x1="604" x2="604" y1="521" y2="519"/>
            <line clip-path="url(#clipPath2)" fill="none" x1="622" x2="622" y1="52" y2="54"/>
            <line clip-path="url(#clipPath2)" fill="none" x1="622" x2="622" y1="521" y2="519"/>
            <line clip-path="url(#clipPath2)" fill="none" x1="640" x2="640" y1="52" y2="54"/>
            <line clip-path="url(#clipPath2)" fill="none" x1="640" x2="640" y1="521" y2="519"/>
            <line clip-path="url(#clipPath2)" fill="none" x1="657" x2="657" y1="52" y2="54"/>
            <line clip-path="url(#clipPath2)" fill="none" x1="657" x2="657" y1="521" y2="519"/>
            <line clip-path="url(#clipPath2)" fill="none" x1="675" x2="675" y1="50" y2="54"/>
            <line clip-path="url(#clipPath2)" fill="none" x1="675" x2="675" y1="523" y2="519"/>
            <text xml:space="preserve" x="670" y="43" clip-path="url(#clipPath2)" stroke="none">6</text>
            <text xml:space="preserve" x="670" y="545" clip-path="url(#clipPath2)" stroke="none">6</text>
            <line clip-path="url(#clipPath2)" fill="none" x1="693" x2="693" y1="52" y2="54"/>
            <line clip-path="url(#clipPath2)" fill="none" x1="693" x2="693" y1="521" y2="519"/>
            <line clip-path="url(#clipPath2)" fill="none" x1="711" x2="711" y1="52" y2="54"/>
            <line clip-path="url(#clipPath2)" fill="none" x1="711" x2="711" y1="521" y2="519"/>
            <line clip-path="url(#clipPath2)" fill="none" x1="729" x2="729" y1="52" y2="54"/>
            <line clip-path="url(#clipPath2)" fill="none" x1="729" x2="729" y1="521" y2="519"/>
            <line clip-path="url(#clipPath2)" fill="none" x1="747" x2="747" y1="52" y2="54"/>
            <line clip-path="url(#clipPath2)" fill="none" x1="747" x2="747" y1="521" y2="519"/>
            <line clip-path="url(#clipPath2)" fill="none" x1="765" x2="765" y1="50" y2="54"/>
            <line clip-path="url(#clipPath2)" fill="none" x1="765" x2="765" y1="523" y2="519"/>
            <text xml:space="preserve" x="760" y="43" clip-path="url(#clipPath2)" stroke="none">7</text>
            <text xml:space="preserve" x="760" y="545" clip-path="url(#clipPath2)" stroke="none">7</text>
            <line clip-path="url(#clipPath2)" fill="none" x1="783" x2="783" y1="52" y2="54"/>
            <line clip-path="url(#clipPath2)" fill="none" x1="783" x2="783" y1="521" y2="519"/>
            <line clip-path="url(#clipPath2)" fill="none" x1="801" x2="801" y1="52" y2="54"/>
            <line clip-path="url(#clipPath2)" fill="none" x1="801" x2="801" y1="521" y2="519"/>
            <line clip-path="url(#clipPath2)" fill="none" x1="819" x2="819" y1="52" y2="54"/>
            <line clip-path="url(#clipPath2)" fill="none" x1="819" x2="819" y1="521" y2="519"/>
            <line clip-path="url(#clipPath2)" fill="none" x1="74" x2="74" y1="56" y2="517"/>
            <line clip-path="url(#clipPath2)" fill="none" x1="830" x2="830" y1="56" y2="517"/>
            <line clip-path="url(#clipPath2)" fill="none" x1="70" x2="74" y1="517" y2="517"/>
            <line clip-path="url(#clipPath2)" fill="none" x1="834" x2="830" y1="517" y2="517"/>
            <text xml:space="preserve" x="56" y="525" clip-path="url(#clipPath2)" stroke="none">0</text>
            <text xml:space="preserve" x="837" y="525" clip-path="url(#clipPath2)" stroke="none">0</text>
            <line clip-path="url(#clipPath2)" fill="none" x1="72" x2="74" y1="506" y2="506"/>
            <line clip-path="url(#clipPath2)" fill="none" x1="832" x2="830" y1="506" y2="506"/>
            <line clip-path="url(#clipPath2)" fill="none" x1="72" x2="74" y1="495" y2="495"/>
            <line clip-path="url(#clipPath2)" fill="none" x1="832" x2="830" y1="495" y2="495"/>
            <line clip-path="url(#clipPath2)" fill="none" x1="72" x2="74" y1="484" y2="484"/>
            <line clip-path="url(#clipPath2)" fill="none" x1="832" x2="830" y1="484" y2="484"/>
            <line clip-path="url(#clipPath2)" fill="none" x1="72" x2="74" y1="473" y2="473"/>
            <line clip-path="url(#clipPath2)" fill="none" x1="832" x2="830" y1="473" y2="473"/>
            <line clip-path="url(#clipPath2)" fill="none" x1="70" x2="74" y1="462" y2="462"/>
            <line clip-path="url(#clipPath2)" fill="none" x1="834" x2="830" y1="462" y2="462"/>
            <text xml:space="preserve" x="43" y="470" clip-path="url(#clipPath2)" stroke="none">10</text>
            <text xml:space="preserve" x="837" y="470" clip-path="url(#clipPath2)" stroke="none">10</text>
            <line clip-path="url(#clipPath2)" fill="none" x1="72" x2="74" y1="451" y2="451"/>
            <line clip-path="url(#clipPath2)" fill="none" x1="832" x2="830" y1="451" y2="451"/>
            <line clip-path="url(#clipPath2)" fill="none" x1="72" x2="74" y1="440" y2="440"/>
            <line clip-path="url(#clipPath2)" fill="none" x1="832" x2="830" y1="440" y2="440"/>
            <line clip-path="url(#clipPath2)" fill="none" x1="72" x2="74" y1="429" y2="429"/>
            <line clip-path="url(#clipPath2)" fill="none" x1="832" x2="830" y1="429" y2="429"/>
            <line clip-path="url(#clipPath2)" fill="none" x1="72" x2="74" y1="418" y2="418"/>
            <line clip-path="url(#clipPath2)" fill="none" x1="832" x2="830" y1="418" y2="418"/>
            <line clip-path="url(#clipPath2)" fill="none" x1="70" x2="74" y1="407" y2="407"/>
            <line clip-path="url(#clipPath2)" fill="none" x1="834" x2="830" y1="407" y2="407"/>
            <text xml:space="preserve" x="43" y="415" clip-path="url(#clipPath2)" stroke="none">20</text>
            <text xml:space="preserve" x="837" y="415" clip-path="url(#clipPath2)" stroke="none">20</text>
            <line clip-path="url(#clipPath2)" fill="none" x1="72" x2="74" y1="396" y2="396"/>
            <line clip-path="url(#clipPath2)" fill="none" x1="832" x2="830" y1="396" y2="396"/>
            <line clip-path="url(#clipPath2)" fill="none" x1="72" x2="74" y1="385" y2="385"/>
            <line clip-path="url(#clipPath2)" fill="none" x1="832" x2="830" y1="385" y2="385"/>
            <line clip-path="url(#clipPath2)" fill="none" x1="72" x2="74" y1="374" y2="374"/>
            <line clip-path="url(#clipPath2)" fill="none" x1="832" x2="830" y1="374" y2="374"/>
            <line clip-path="url(#clipPath2)" fill="none" x1="72" x2="74" y1="363" y2="363"/>
            <line clip-path="url(#clipPath2)" fill="none" x1="832" x2="830" y1="363" y2="363"/>
            <line clip-path="url(#clipPath2)" fill="none" x1="70" x2="74" y1="352" y2="352"/>
            <line clip-path="url(#clipPath2)" fill="none" x1="834" x2="830" y1="352" y2="352"/>
            <text xml:space="preserve" x="43" y="360" clip-path="url(#clipPath2)" stroke="none">30</text>
            <text xml:space="preserve" x="837" y="360" clip-path="url(#clipPath2)" stroke="none">30</text>
            <line clip-path="url(#clipPath2)" fill="none" x1="72" x2="74" y1="341" y2="341"/>
            <line clip-path="url(#clipPath2)" fill="none" x1="832" x2="830" y1="341" y2="341"/>
            <line clip-path="url(#clipPath2)" fill="none" x1="72" x2="74" y1="330" y2="330"/>
            <line clip-path="url(#clipPath2)" fill="none" x1="832" x2="830" y1="330" y2="330"/>
            <line clip-path="url(#clipPath2)" fill="none" x1="72" x2="74" y1="319" y2="319"/>
            <line clip-path="url(#clipPath2)" fill="none" x1="832" x2="830" y1="319" y2="319"/>
            <line clip-path="url(#clipPath2)" fill="none" x1="72" x2="74" y1="308" y2="308"/>
            <line clip-path="url(#clipPath2)" fill="none" x1="832" x2="830" y1="308" y2="308"/>
            <line clip-path="url(#clipPath2)" fill="none" x1="70" x2="74" y1="297" y2="297"/>
            <line clip-path="url(#clipPath2)" fill="none" x1="834" x2="830" y1="297" y2="297"/>
            <text xml:space="preserve" x="43" y="305" clip-path="url(#clipPath2)" stroke="none">40</text>
            <text xml:space="preserve" x="837" y="305" clip-path="url(#clipPath2)" stroke="none">40</text>
            <line clip-path="url(#clipPath2)" fill="none" x1="72" x2="74" y1="286" y2="286"/>
            <line clip-path="url(#clipPath2)" fill="none" x1="832" x2="830" y1="286" y2="286"/>
            <line clip-path="url(#clipPath2)" fill="none" x1="72" x2="74" y1="275" y2="275"/>
            <line clip-path="url(#clipPath2)" fill="none" x1="832" x2="830" y1="275" y2="275"/>
            <line clip-path="url(#clipPath2)" fill="none" x1="72" x2="74" y1="264" y2="264"/>
            <line clip-path="url(#clipPath2)" fill="none" x1="832" x2="830" y1="264" y2="264"/>
            <line clip-path="url(#clipPath2)" fill="none" x1="72" x2="74" y1="253" y2="253"/>
            <line clip-path="url(#clipPath2)" fill="none" x1="832" x2="830" y1="253" y2="253"/>
            <line clip-path="url(#clipPath2)" fill="none" x1="70" x2="74" y1="242" y2="242"/>
            <line clip-path="url(#clipPath2)" fill="none" x1="834" x2="830" y1="242" y2="242"/>
            <text xml:space="preserve" x="43" y="250" clip-path="url(#clipPath2)" stroke="none">50</text>
            <text xml:space="preserve" x="837" y="250" clip-path="url(#clipPath2)" stroke="none">50</text>
            <line clip-path="url(#clipPath2)" fill="none" x1="72" x2="74" y1="231" y2="231"/>
            <line clip-path="url(#clipPath2)" fill="none" x1="832" x2="830" y1="231" y2="231"/>
            <line clip-path="url(#clipPath2)" fill="none" x1="72" x2="74" y1="220" y2="220"/>
            <line clip-path="url(#clipPath2)" fill="none" x1="832" x2="830" y1="220" y2="220"/>
            <line clip-path="url(#clipPath2)" fill="none" x1="72" x2="74" y1="209" y2="209"/>
            <line clip-path="url(#clipPath2)" fill="none" x1="832" x2="830" y1="209" y2="209"/>
            <line clip-path="url(#clipPath2)" fill="none" x1="72" x2="74" y1="198" y2="198"/>
            <line clip-path="url(#clipPath2)" fill="none" x1="832" x2="830" y1="198" y2="198"/>
            <line clip-path="url(#clipPath2)" fill="none" x1="70" x2="74" y1="187" y2="187"/>
            <line clip-path="url(#clipPath2)" fill="none" x1="834" x2="830" y1="187" y2="187"/>
            <text xml:space="preserve" x="43" y="195" clip-path="url(#clipPath2)" stroke="none">60</text>
            <text xml:space="preserve" x="837" y="195" clip-path="url(#clipPath2)" stroke="none">60</text>
            <line clip-path="url(#clipPath2)" fill="none" x1="72" x2="74" y1="176" y2="176"/>
            <line clip-path="url(#clipPath2)" fill="none" x1="832" x2="830" y1="176" y2="176"/>
            <line clip-path="url(#clipPath2)" fill="none" x1="72" x2="74" y1="165" y2="165"/>
            <line clip-path="url(#clipPath2)" fill="none" x1="832" x2="830" y1="165" y2="165"/>
            <line clip-path="url(#clipPath2)" fill="none" x1="72" x2="74" y1="154" y2="154"/>
            <line clip-path="url(#clipPath2)" fill="none" x1="832" x2="830" y1="154" y2="154"/>
            <line clip-path="url(#clipPath2)" fill="none" x1="72" x2="74" y1="143" y2="143"/>
            <line clip-path="url(#clipPath2)" fill="none" x1="832" x2="830" y1="143" y2="143"/>
            <line clip-path="url(#clipPath2)" fill="none" x1="70" x2="74" y1="132" y2="132"/>
            <line clip-path="url(#clipPath2)" fill="none" x1="834" x2="830" y1="132" y2="132"/>
            <text xml:space="preserve" x="43" y="140" clip-path="url(#clipPath2)" stroke="none">70</text>
            <text xml:space="preserve" x="837" y="140" clip-path="url(#clipPath2)" stroke="none">70</text>
            <line clip-path="url(#clipPath2)" fill="none" x1="72" x2="74" y1="121" y2="121"/>
            <line clip-path="url(#clipPath2)" fill="none" x1="832" x2="830" y1="121" y2="121"/>
            <line clip-path="url(#clipPath2)" fill="none" x1="72" x2="74" y1="110" y2="110"/>
            <line clip-path="url(#clipPath2)" fill="none" x1="832" x2="830" y1="110" y2="110"/>
            <line clip-path="url(#clipPath2)" fill="none" x1="72" x2="74" y1="99" y2="99"/>
            <line clip-path="url(#clipPath2)" fill="none" x1="832" x2="830" y1="99" y2="99"/>
            <line clip-path="url(#clipPath2)" fill="none" x1="72" x2="74" y1="88" y2="88"/>
            <line clip-path="url(#clipPath2)" fill="none" x1="832" x2="830" y1="88" y2="88"/>
            <line clip-path="url(#clipPath2)" fill="none" x1="70" x2="74" y1="77" y2="77"/>
            <line clip-path="url(#clipPath2)" fill="none" x1="834" x2="830" y1="77" y2="77"/>
            <text xml:space="preserve" x="43" y="85" clip-path="url(#clipPath2)" stroke="none">80</text>
            <text xml:space="preserve" x="837" y="85" clip-path="url(#clipPath2)" stroke="none">80</text>
            <line clip-path="url(#clipPath2)" fill="none" x1="72" x2="74" y1="66" y2="66"/>
            <line clip-path="url(#clipPath2)" fill="none" x1="832" x2="830" y1="66" y2="66"/>
            <line clip-path="url(#clipPath2)" fill="none" x1="72" x2="74" y1="56" y2="56"/>
            <line clip-path="url(#clipPath2)" fill="none" x1="832" x2="830" y1="56" y2="56"/>
        </g>
    </g>
</svg>
