<?xml version="1.0" encoding="UTF-8"?><svg xmlns="http://www.w3.org/2000/svg" xmlns:xlink="http://www.w3.org/1999/xlink" stroke-dasharray="none" shape-rendering="auto" font-family="'Dialog'" width="753" text-rendering="auto" fill-opacity="1" contentScriptType="text/ecmascript" color-interpolation="auto" color-rendering="auto" preserveAspectRatio="xMidYMid meet" font-size="12" fill="black" stroke="black" image-rendering="auto" stroke-miterlimit="10" zoomAndPan="magnify" version="1.0" stroke-linecap="square" stroke-linejoin="miter" contentStyleType="text/css" font-style="normal" height="581" stroke-width="1" stroke-dashoffset="0" font-weight="normal" stroke-opacity="1">
    <!--Generated by the Batik Graphics2D SVG Generator-->
    <defs id="genericDefs"/>
    <g>
        <defs id="defs1">
            <clipPath clipPathUnits="userSpaceOnUse" id="clipPath1">
                <path d="M70 55 L710 55 L710 518 L70 518 L70 55 Z"/>
            </clipPath>
            <clipPath clipPathUnits="userSpaceOnUse" id="clipPath2">
                <path d="M-1 -1 L754 -1 L754 582 L-1 582 L-1 -1 Z"/>
            </clipPath>
            <clipPath clipPathUnits="userSpaceOnUse" id="clipPath3">
                <path d="M547 60 L706 60 L706 126 L547 126 L547 60 Z"/>
            </clipPath>
        </defs>
        <g font-size="15" fill="white" text-rendering="optimizeLegibility" font-family="'Microsoft YaHei UI'" stroke-linejoin="round" stroke="white" stroke-width="0" stroke-miterlimit="0">
            <rect x="71" y="56" clip-path="url(#clipPath1)" width="638" height="461" stroke="none"/>
        </g>
        <g stroke-linecap="butt" font-size="15" fill="rgb(204,204,204)" text-rendering="optimizeLegibility" font-family="'Microsoft YaHei UI'" stroke-dasharray="3,3" stroke="rgb(204,204,204)">
            <line clip-path="url(#clipPath1)" fill="none" x1="71" x2="709" y1="517" y2="517"/>
            <line clip-path="url(#clipPath1)" fill="none" x1="71" x2="709" y1="461" y2="461"/>
            <line clip-path="url(#clipPath1)" fill="none" x1="71" x2="709" y1="405" y2="405"/>
            <line clip-path="url(#clipPath1)" fill="none" x1="71" x2="709" y1="349" y2="349"/>
            <line clip-path="url(#clipPath1)" fill="none" x1="71" x2="709" y1="293" y2="293"/>
            <line clip-path="url(#clipPath1)" fill="none" x1="71" x2="709" y1="238" y2="238"/>
            <line clip-path="url(#clipPath1)" fill="none" x1="71" x2="709" y1="182" y2="182"/>
            <line clip-path="url(#clipPath1)" fill="none" x1="71" x2="709" y1="126" y2="126"/>
            <line clip-path="url(#clipPath1)" fill="none" x1="71" x2="709" y1="70" y2="70"/>
        </g>
        <g stroke-linecap="butt" font-size="15" fill="rgb(31,119,180)" text-rendering="optimizeLegibility" font-family="'Microsoft YaHei UI'" stroke="rgb(31,119,180)" stroke-width="2">
            <line clip-path="url(#clipPath1)" fill="none" x1="124" x2="200" y1="517" y2="517" opacity="0.7529"/>
            <line clip-path="url(#clipPath1)" fill="none" x1="200" x2="200" y1="517" y2="517" opacity="0.7529"/>
            <line clip-path="url(#clipPath1)" fill="none" x1="200" x2="200" y1="517" y2="388" opacity="0.7529"/>
            <line clip-path="url(#clipPath1)" fill="none" x1="200" x2="276" y1="388" y2="388" opacity="0.7529"/>
            <line clip-path="url(#clipPath1)" fill="none" x1="276" x2="276" y1="388" y2="388" opacity="0.7529"/>
            <line clip-path="url(#clipPath1)" fill="none" x1="276" x2="276" y1="388" y2="171" opacity="0.7529"/>
            <line clip-path="url(#clipPath1)" fill="none" x1="276" x2="352" y1="171" y2="171" opacity="0.7529"/>
            <line clip-path="url(#clipPath1)" fill="none" x1="352" x2="352" y1="171" y2="171" opacity="0.7529"/>
            <line clip-path="url(#clipPath1)" fill="none" x1="352" x2="352" y1="171" y2="221" opacity="0.7529"/>
            <line clip-path="url(#clipPath1)" fill="none" x1="352" x2="427" y1="221" y2="221" opacity="0.7529"/>
            <line clip-path="url(#clipPath1)" fill="none" x1="427" x2="427" y1="221" y2="221" opacity="0.7529"/>
            <line clip-path="url(#clipPath1)" fill="none" x1="427" x2="427" y1="221" y2="249" opacity="0.7529"/>
            <line clip-path="url(#clipPath1)" fill="none" x1="427" x2="503" y1="249" y2="249" opacity="0.7529"/>
            <line clip-path="url(#clipPath1)" fill="none" x1="503" x2="503" y1="249" y2="249" opacity="0.7529"/>
            <line clip-path="url(#clipPath1)" fill="none" x1="503" x2="503" y1="249" y2="305" opacity="0.7529"/>
            <line clip-path="url(#clipPath1)" fill="none" x1="503" x2="579" y1="305" y2="305" opacity="0.7529"/>
            <line clip-path="url(#clipPath1)" fill="none" x1="579" x2="579" y1="305" y2="305" opacity="0.7529"/>
            <line clip-path="url(#clipPath1)" fill="none" x1="579" x2="579" y1="305" y2="399" opacity="0.7529"/>
            <line clip-path="url(#clipPath1)" fill="none" x1="579" x2="655" y1="399" y2="399" opacity="0.7529"/>
            <line clip-path="url(#clipPath1)" fill="none" x1="200" x2="276" y1="416" y2="416" opacity="0.7529" stroke="rgb(255,127,14)"/>
            <line clip-path="url(#clipPath1)" fill="none" x1="276" x2="276" y1="416" y2="416" opacity="0.7529" stroke="rgb(255,127,14)"/>
            <line clip-path="url(#clipPath1)" fill="none" x1="276" x2="276" y1="416" y2="204" opacity="0.7529" stroke="rgb(255,127,14)"/>
            <line clip-path="url(#clipPath1)" fill="none" x1="276" x2="352" y1="204" y2="204" opacity="0.7529" stroke="rgb(255,127,14)"/>
            <line clip-path="url(#clipPath1)" fill="none" x1="352" x2="352" y1="204" y2="204" opacity="0.7529" stroke="rgb(255,127,14)"/>
            <line clip-path="url(#clipPath1)" fill="none" x1="352" x2="352" y1="204" y2="266" opacity="0.7529" stroke="rgb(255,127,14)"/>
            <line clip-path="url(#clipPath1)" fill="none" x1="352" x2="427" y1="266" y2="266" opacity="0.7529" stroke="rgb(255,127,14)"/>
            <line clip-path="url(#clipPath1)" fill="none" x1="427" x2="427" y1="266" y2="266" opacity="0.7529" stroke="rgb(255,127,14)"/>
            <line clip-path="url(#clipPath1)" fill="none" x1="427" x2="427" y1="266" y2="266" opacity="0.7529" stroke="rgb(255,127,14)"/>
            <line clip-path="url(#clipPath1)" fill="none" x1="427" x2="503" y1="266" y2="266" opacity="0.7529" stroke="rgb(255,127,14)"/>
            <line clip-path="url(#clipPath1)" fill="none" x1="503" x2="503" y1="266" y2="266" opacity="0.7529" stroke="rgb(255,127,14)"/>
            <line clip-path="url(#clipPath1)" fill="none" x1="503" x2="503" y1="266" y2="327" opacity="0.7529" stroke="rgb(255,127,14)"/>
            <line clip-path="url(#clipPath1)" fill="none" x1="503" x2="579" y1="327" y2="327" opacity="0.7529" stroke="rgb(255,127,14)"/>
            <line clip-path="url(#clipPath1)" fill="none" x1="579" x2="579" y1="327" y2="327" opacity="0.7529" stroke="rgb(255,127,14)"/>
            <line clip-path="url(#clipPath1)" fill="none" x1="579" x2="579" y1="327" y2="399" opacity="0.7529" stroke="rgb(255,127,14)"/>
            <line clip-path="url(#clipPath1)" fill="none" x1="579" x2="655" y1="399" y2="399" opacity="0.7529" stroke="rgb(255,127,14)"/>
            <rect x="71" y="56" clip-path="url(#clipPath2)" fill="none" width="638" height="461" stroke="black" stroke-width="1"/>
        </g>
        <g text-rendering="optimizeLegibility" font-size="16" font-family="'Arial'" stroke-linecap="butt">
            <text xml:space="preserve" x="374" y="15" clip-path="url(#clipPath2)" stroke="none">.</text>
            <rect x="548" y="61" clip-path="url(#clipPath3)" fill="white" width="156" opacity="0.7529" height="63" stroke="none"/>
            <line clip-path="url(#clipPath3)" fill="none" x1="554" x2="568" y1="78" y2="78" stroke="rgb(31,119,180)" stroke-width="2"/>
            <text x="570" font-size="20" y="85" clip-path="url(#clipPath3)" stroke="none" font-weight="bold" stroke-width="2" xml:space="preserve">Depth</text>
        </g>
        <g stroke-linecap="butt" font-size="20" fill="rgb(255,127,14)" text-rendering="optimizeLegibility" font-family="'Arial'" stroke="rgb(255,127,14)" font-weight="bold" stroke-width="2">
            <line clip-path="url(#clipPath3)" fill="none" x1="554" x2="568" y1="107" y2="107"/>
            <text x="570" y="114" clip-path="url(#clipPath3)" fill="black" stroke="none" xml:space="preserve">Upload Finish</text>
        </g>
        <g text-rendering="optimizeLegibility" font-size="23" font-family="'Arial'" font-weight="bold" stroke-linecap="butt">
            <line clip-path="url(#clipPath2)" fill="none" x1="71" x2="709" y1="54" y2="54"/>
            <line clip-path="url(#clipPath2)" fill="none" x1="71" x2="709" y1="519" y2="519"/>
            <text xml:space="preserve" x="317" y="575" clip-path="url(#clipPath2)" stroke="none">Depth of STA</text>
            <line clip-path="url(#clipPath2)" fill="none" x1="78" x2="78" y1="52" y2="54"/>
            <line clip-path="url(#clipPath2)" fill="none" x1="78" x2="78" y1="521" y2="519"/>
            <line clip-path="url(#clipPath2)" fill="none" x1="93" x2="93" y1="52" y2="54"/>
            <line clip-path="url(#clipPath2)" fill="none" x1="93" x2="93" y1="521" y2="519"/>
            <line clip-path="url(#clipPath2)" fill="none" x1="108" x2="108" y1="52" y2="54"/>
            <line clip-path="url(#clipPath2)" fill="none" x1="108" x2="108" y1="521" y2="519"/>
            <line clip-path="url(#clipPath2)" fill="none" x1="124" x2="124" y1="50" y2="54"/>
            <line clip-path="url(#clipPath2)" fill="none" x1="124" x2="124" y1="523" y2="519"/>
            <text xml:space="preserve" x="119" y="43" clip-path="url(#clipPath2)" stroke="none">0</text>
            <text xml:space="preserve" x="119" y="545" clip-path="url(#clipPath2)" stroke="none">0</text>
            <line clip-path="url(#clipPath2)" fill="none" x1="139" x2="139" y1="52" y2="54"/>
            <line clip-path="url(#clipPath2)" fill="none" x1="139" x2="139" y1="521" y2="519"/>
            <line clip-path="url(#clipPath2)" fill="none" x1="154" x2="154" y1="52" y2="54"/>
            <line clip-path="url(#clipPath2)" fill="none" x1="154" x2="154" y1="521" y2="519"/>
            <line clip-path="url(#clipPath2)" fill="none" x1="169" x2="169" y1="52" y2="54"/>
            <line clip-path="url(#clipPath2)" fill="none" x1="169" x2="169" y1="521" y2="519"/>
            <line clip-path="url(#clipPath2)" fill="none" x1="184" x2="184" y1="52" y2="54"/>
            <line clip-path="url(#clipPath2)" fill="none" x1="184" x2="184" y1="521" y2="519"/>
            <line clip-path="url(#clipPath2)" fill="none" x1="200" x2="200" y1="50" y2="54"/>
            <line clip-path="url(#clipPath2)" fill="none" x1="200" x2="200" y1="523" y2="519"/>
            <text xml:space="preserve" x="195" y="43" clip-path="url(#clipPath2)" stroke="none">1</text>
            <text xml:space="preserve" x="195" y="545" clip-path="url(#clipPath2)" stroke="none">1</text>
            <line clip-path="url(#clipPath2)" fill="none" x1="215" x2="215" y1="52" y2="54"/>
            <line clip-path="url(#clipPath2)" fill="none" x1="215" x2="215" y1="521" y2="519"/>
            <line clip-path="url(#clipPath2)" fill="none" x1="230" x2="230" y1="52" y2="54"/>
            <line clip-path="url(#clipPath2)" fill="none" x1="230" x2="230" y1="521" y2="519"/>
            <line clip-path="url(#clipPath2)" fill="none" x1="245" x2="245" y1="52" y2="54"/>
            <line clip-path="url(#clipPath2)" fill="none" x1="245" x2="245" y1="521" y2="519"/>
            <line clip-path="url(#clipPath2)" fill="none" x1="260" x2="260" y1="52" y2="54"/>
            <line clip-path="url(#clipPath2)" fill="none" x1="260" x2="260" y1="521" y2="519"/>
            <line clip-path="url(#clipPath2)" fill="none" x1="276" x2="276" y1="50" y2="54"/>
            <line clip-path="url(#clipPath2)" fill="none" x1="276" x2="276" y1="523" y2="519"/>
            <text xml:space="preserve" x="271" y="43" clip-path="url(#clipPath2)" stroke="none">2</text>
            <text xml:space="preserve" x="271" y="545" clip-path="url(#clipPath2)" stroke="none">2</text>
            <line clip-path="url(#clipPath2)" fill="none" x1="291" x2="291" y1="52" y2="54"/>
            <line clip-path="url(#clipPath2)" fill="none" x1="291" x2="291" y1="521" y2="519"/>
            <line clip-path="url(#clipPath2)" fill="none" x1="306" x2="306" y1="52" y2="54"/>
            <line clip-path="url(#clipPath2)" fill="none" x1="306" x2="306" y1="521" y2="519"/>
            <line clip-path="url(#clipPath2)" fill="none" x1="321" x2="321" y1="52" y2="54"/>
            <line clip-path="url(#clipPath2)" fill="none" x1="321" x2="321" y1="521" y2="519"/>
            <line clip-path="url(#clipPath2)" fill="none" x1="336" x2="336" y1="52" y2="54"/>
            <line clip-path="url(#clipPath2)" fill="none" x1="336" x2="336" y1="521" y2="519"/>
            <line clip-path="url(#clipPath2)" fill="none" x1="352" x2="352" y1="50" y2="54"/>
            <line clip-path="url(#clipPath2)" fill="none" x1="352" x2="352" y1="523" y2="519"/>
            <text xml:space="preserve" x="347" y="43" clip-path="url(#clipPath2)" stroke="none">3</text>
            <text xml:space="preserve" x="347" y="545" clip-path="url(#clipPath2)" stroke="none">3</text>
            <line clip-path="url(#clipPath2)" fill="none" x1="367" x2="367" y1="52" y2="54"/>
            <line clip-path="url(#clipPath2)" fill="none" x1="367" x2="367" y1="521" y2="519"/>
            <line clip-path="url(#clipPath2)" fill="none" x1="382" x2="382" y1="52" y2="54"/>
            <line clip-path="url(#clipPath2)" fill="none" x1="382" x2="382" y1="521" y2="519"/>
            <line clip-path="url(#clipPath2)" fill="none" x1="397" x2="397" y1="52" y2="54"/>
            <line clip-path="url(#clipPath2)" fill="none" x1="397" x2="397" y1="521" y2="519"/>
            <line clip-path="url(#clipPath2)" fill="none" x1="412" x2="412" y1="52" y2="54"/>
            <line clip-path="url(#clipPath2)" fill="none" x1="412" x2="412" y1="521" y2="519"/>
            <line clip-path="url(#clipPath2)" fill="none" x1="427" x2="427" y1="50" y2="54"/>
            <line clip-path="url(#clipPath2)" fill="none" x1="427" x2="427" y1="523" y2="519"/>
            <text xml:space="preserve" x="422" y="43" clip-path="url(#clipPath2)" stroke="none">4</text>
            <text xml:space="preserve" x="422" y="545" clip-path="url(#clipPath2)" stroke="none">4</text>
            <line clip-path="url(#clipPath2)" fill="none" x1="443" x2="443" y1="52" y2="54"/>
            <line clip-path="url(#clipPath2)" fill="none" x1="443" x2="443" y1="521" y2="519"/>
            <line clip-path="url(#clipPath2)" fill="none" x1="458" x2="458" y1="52" y2="54"/>
            <line clip-path="url(#clipPath2)" fill="none" x1="458" x2="458" y1="521" y2="519"/>
            <line clip-path="url(#clipPath2)" fill="none" x1="473" x2="473" y1="52" y2="54"/>
            <line clip-path="url(#clipPath2)" fill="none" x1="473" x2="473" y1="521" y2="519"/>
            <line clip-path="url(#clipPath2)" fill="none" x1="488" x2="488" y1="52" y2="54"/>
            <line clip-path="url(#clipPath2)" fill="none" x1="488" x2="488" y1="521" y2="519"/>
            <line clip-path="url(#clipPath2)" fill="none" x1="503" x2="503" y1="50" y2="54"/>
            <line clip-path="url(#clipPath2)" fill="none" x1="503" x2="503" y1="523" y2="519"/>
            <text xml:space="preserve" x="498" y="43" clip-path="url(#clipPath2)" stroke="none">5</text>
            <text xml:space="preserve" x="498" y="545" clip-path="url(#clipPath2)" stroke="none">5</text>
            <line clip-path="url(#clipPath2)" fill="none" x1="519" x2="519" y1="52" y2="54"/>
            <line clip-path="url(#clipPath2)" fill="none" x1="519" x2="519" y1="521" y2="519"/>
            <line clip-path="url(#clipPath2)" fill="none" x1="534" x2="534" y1="52" y2="54"/>
            <line clip-path="url(#clipPath2)" fill="none" x1="534" x2="534" y1="521" y2="519"/>
            <line clip-path="url(#clipPath2)" fill="none" x1="549" x2="549" y1="52" y2="54"/>
            <line clip-path="url(#clipPath2)" fill="none" x1="549" x2="549" y1="521" y2="519"/>
            <line clip-path="url(#clipPath2)" fill="none" x1="564" x2="564" y1="52" y2="54"/>
            <line clip-path="url(#clipPath2)" fill="none" x1="564" x2="564" y1="521" y2="519"/>
            <line clip-path="url(#clipPath2)" fill="none" x1="579" x2="579" y1="50" y2="54"/>
            <line clip-path="url(#clipPath2)" fill="none" x1="579" x2="579" y1="523" y2="519"/>
            <text xml:space="preserve" x="574" y="43" clip-path="url(#clipPath2)" stroke="none">6</text>
            <text xml:space="preserve" x="574" y="545" clip-path="url(#clipPath2)" stroke="none">6</text>
            <line clip-path="url(#clipPath2)" fill="none" x1="595" x2="595" y1="52" y2="54"/>
            <line clip-path="url(#clipPath2)" fill="none" x1="595" x2="595" y1="521" y2="519"/>
            <line clip-path="url(#clipPath2)" fill="none" x1="610" x2="610" y1="52" y2="54"/>
            <line clip-path="url(#clipPath2)" fill="none" x1="610" x2="610" y1="521" y2="519"/>
            <line clip-path="url(#clipPath2)" fill="none" x1="625" x2="625" y1="52" y2="54"/>
            <line clip-path="url(#clipPath2)" fill="none" x1="625" x2="625" y1="521" y2="519"/>
            <line clip-path="url(#clipPath2)" fill="none" x1="640" x2="640" y1="52" y2="54"/>
            <line clip-path="url(#clipPath2)" fill="none" x1="640" x2="640" y1="521" y2="519"/>
            <line clip-path="url(#clipPath2)" fill="none" x1="655" x2="655" y1="50" y2="54"/>
            <line clip-path="url(#clipPath2)" fill="none" x1="655" x2="655" y1="523" y2="519"/>
            <text xml:space="preserve" x="650" y="43" clip-path="url(#clipPath2)" stroke="none">7</text>
            <text xml:space="preserve" x="650" y="545" clip-path="url(#clipPath2)" stroke="none">7</text>
            <line clip-path="url(#clipPath2)" fill="none" x1="671" x2="671" y1="52" y2="54"/>
            <line clip-path="url(#clipPath2)" fill="none" x1="671" x2="671" y1="521" y2="519"/>
            <line clip-path="url(#clipPath2)" fill="none" x1="686" x2="686" y1="52" y2="54"/>
            <line clip-path="url(#clipPath2)" fill="none" x1="686" x2="686" y1="521" y2="519"/>
            <line clip-path="url(#clipPath2)" fill="none" x1="701" x2="701" y1="52" y2="54"/>
            <line clip-path="url(#clipPath2)" fill="none" x1="701" x2="701" y1="521" y2="519"/>
            <line clip-path="url(#clipPath2)" fill="none" x1="69" x2="69" y1="56" y2="517"/>
            <line clip-path="url(#clipPath2)" fill="none" x1="711" x2="711" y1="56" y2="517"/>
            <line clip-path="url(#clipPath2)" fill="none" x1="65" x2="69" y1="517" y2="517"/>
            <line clip-path="url(#clipPath2)" fill="none" x1="715" x2="711" y1="517" y2="517"/>
            <text xml:space="preserve" x="51" y="525" clip-path="url(#clipPath2)" stroke="none">0</text>
            <text xml:space="preserve" x="718" y="525" clip-path="url(#clipPath2)" stroke="none">0</text>
            <line clip-path="url(#clipPath2)" fill="none" x1="67" x2="69" y1="505" y2="505"/>
            <line clip-path="url(#clipPath2)" fill="none" x1="713" x2="711" y1="505" y2="505"/>
            <line clip-path="url(#clipPath2)" fill="none" x1="67" x2="69" y1="494" y2="494"/>
            <line clip-path="url(#clipPath2)" fill="none" x1="713" x2="711" y1="494" y2="494"/>
            <line clip-path="url(#clipPath2)" fill="none" x1="67" x2="69" y1="483" y2="483"/>
            <line clip-path="url(#clipPath2)" fill="none" x1="713" x2="711" y1="483" y2="483"/>
            <line clip-path="url(#clipPath2)" fill="none" x1="67" x2="69" y1="472" y2="472"/>
            <line clip-path="url(#clipPath2)" fill="none" x1="713" x2="711" y1="472" y2="472"/>
            <line clip-path="url(#clipPath2)" fill="none" x1="65" x2="69" y1="461" y2="461"/>
            <line clip-path="url(#clipPath2)" fill="none" x1="715" x2="711" y1="461" y2="461"/>
            <text xml:space="preserve" x="38" y="469" clip-path="url(#clipPath2)" stroke="none">10</text>
            <text xml:space="preserve" x="718" y="469" clip-path="url(#clipPath2)" stroke="none">10</text>
            <line clip-path="url(#clipPath2)" fill="none" x1="67" x2="69" y1="450" y2="450"/>
            <line clip-path="url(#clipPath2)" fill="none" x1="713" x2="711" y1="450" y2="450"/>
            <line clip-path="url(#clipPath2)" fill="none" x1="67" x2="69" y1="438" y2="438"/>
            <line clip-path="url(#clipPath2)" fill="none" x1="713" x2="711" y1="438" y2="438"/>
            <line clip-path="url(#clipPath2)" fill="none" x1="67" x2="69" y1="427" y2="427"/>
            <line clip-path="url(#clipPath2)" fill="none" x1="713" x2="711" y1="427" y2="427"/>
            <line clip-path="url(#clipPath2)" fill="none" x1="67" x2="69" y1="416" y2="416"/>
            <line clip-path="url(#clipPath2)" fill="none" x1="713" x2="711" y1="416" y2="416"/>
            <line clip-path="url(#clipPath2)" fill="none" x1="65" x2="69" y1="405" y2="405"/>
            <line clip-path="url(#clipPath2)" fill="none" x1="715" x2="711" y1="405" y2="405"/>
            <text xml:space="preserve" x="38" y="413" clip-path="url(#clipPath2)" stroke="none">20</text>
            <text xml:space="preserve" x="718" y="413" clip-path="url(#clipPath2)" stroke="none">20</text>
            <line clip-path="url(#clipPath2)" fill="none" x1="67" x2="69" y1="394" y2="394"/>
            <line clip-path="url(#clipPath2)" fill="none" x1="713" x2="711" y1="394" y2="394"/>
            <line clip-path="url(#clipPath2)" fill="none" x1="67" x2="69" y1="383" y2="383"/>
            <line clip-path="url(#clipPath2)" fill="none" x1="713" x2="711" y1="383" y2="383"/>
            <line clip-path="url(#clipPath2)" fill="none" x1="67" x2="69" y1="372" y2="372"/>
            <line clip-path="url(#clipPath2)" fill="none" x1="713" x2="711" y1="372" y2="372"/>
            <line clip-path="url(#clipPath2)" fill="none" x1="67" x2="69" y1="360" y2="360"/>
            <line clip-path="url(#clipPath2)" fill="none" x1="713" x2="711" y1="360" y2="360"/>
            <line clip-path="url(#clipPath2)" fill="none" x1="65" x2="69" y1="349" y2="349"/>
            <line clip-path="url(#clipPath2)" fill="none" x1="715" x2="711" y1="349" y2="349"/>
            <text xml:space="preserve" x="38" y="357" clip-path="url(#clipPath2)" stroke="none">30</text>
            <text xml:space="preserve" x="718" y="357" clip-path="url(#clipPath2)" stroke="none">30</text>
            <line clip-path="url(#clipPath2)" fill="none" x1="67" x2="69" y1="338" y2="338"/>
            <line clip-path="url(#clipPath2)" fill="none" x1="713" x2="711" y1="338" y2="338"/>
            <line clip-path="url(#clipPath2)" fill="none" x1="67" x2="69" y1="327" y2="327"/>
            <line clip-path="url(#clipPath2)" fill="none" x1="713" x2="711" y1="327" y2="327"/>
            <line clip-path="url(#clipPath2)" fill="none" x1="67" x2="69" y1="316" y2="316"/>
            <line clip-path="url(#clipPath2)" fill="none" x1="713" x2="711" y1="316" y2="316"/>
            <line clip-path="url(#clipPath2)" fill="none" x1="67" x2="69" y1="305" y2="305"/>
            <line clip-path="url(#clipPath2)" fill="none" x1="713" x2="711" y1="305" y2="305"/>
            <line clip-path="url(#clipPath2)" fill="none" x1="65" x2="69" y1="293" y2="293"/>
            <line clip-path="url(#clipPath2)" fill="none" x1="715" x2="711" y1="293" y2="293"/>
            <text xml:space="preserve" x="38" y="301" clip-path="url(#clipPath2)" stroke="none">40</text>
            <text xml:space="preserve" x="718" y="301" clip-path="url(#clipPath2)" stroke="none">40</text>
            <line clip-path="url(#clipPath2)" fill="none" x1="67" x2="69" y1="282" y2="282"/>
            <line clip-path="url(#clipPath2)" fill="none" x1="713" x2="711" y1="282" y2="282"/>
            <line clip-path="url(#clipPath2)" fill="none" x1="67" x2="69" y1="271" y2="271"/>
            <line clip-path="url(#clipPath2)" fill="none" x1="713" x2="711" y1="271" y2="271"/>
            <line clip-path="url(#clipPath2)" fill="none" x1="67" x2="69" y1="260" y2="260"/>
            <line clip-path="url(#clipPath2)" fill="none" x1="713" x2="711" y1="260" y2="260"/>
            <line clip-path="url(#clipPath2)" fill="none" x1="67" x2="69" y1="249" y2="249"/>
            <line clip-path="url(#clipPath2)" fill="none" x1="713" x2="711" y1="249" y2="249"/>
            <line clip-path="url(#clipPath2)" fill="none" x1="65" x2="69" y1="238" y2="238"/>
            <line clip-path="url(#clipPath2)" fill="none" x1="715" x2="711" y1="238" y2="238"/>
            <text xml:space="preserve" x="38" y="246" clip-path="url(#clipPath2)" stroke="none">50</text>
            <text xml:space="preserve" x="718" y="246" clip-path="url(#clipPath2)" stroke="none">50</text>
            <line clip-path="url(#clipPath2)" fill="none" x1="67" x2="69" y1="227" y2="227"/>
            <line clip-path="url(#clipPath2)" fill="none" x1="713" x2="711" y1="227" y2="227"/>
            <line clip-path="url(#clipPath2)" fill="none" x1="67" x2="69" y1="215" y2="215"/>
            <line clip-path="url(#clipPath2)" fill="none" x1="713" x2="711" y1="215" y2="215"/>
            <line clip-path="url(#clipPath2)" fill="none" x1="67" x2="69" y1="204" y2="204"/>
            <line clip-path="url(#clipPath2)" fill="none" x1="713" x2="711" y1="204" y2="204"/>
            <line clip-path="url(#clipPath2)" fill="none" x1="67" x2="69" y1="193" y2="193"/>
            <line clip-path="url(#clipPath2)" fill="none" x1="713" x2="711" y1="193" y2="193"/>
            <line clip-path="url(#clipPath2)" fill="none" x1="65" x2="69" y1="182" y2="182"/>
            <line clip-path="url(#clipPath2)" fill="none" x1="715" x2="711" y1="182" y2="182"/>
            <text xml:space="preserve" x="38" y="190" clip-path="url(#clipPath2)" stroke="none">60</text>
            <text xml:space="preserve" x="718" y="190" clip-path="url(#clipPath2)" stroke="none">60</text>
            <line clip-path="url(#clipPath2)" fill="none" x1="67" x2="69" y1="171" y2="171"/>
            <line clip-path="url(#clipPath2)" fill="none" x1="713" x2="711" y1="171" y2="171"/>
            <line clip-path="url(#clipPath2)" fill="none" x1="67" x2="69" y1="160" y2="160"/>
            <line clip-path="url(#clipPath2)" fill="none" x1="713" x2="711" y1="160" y2="160"/>
            <line clip-path="url(#clipPath2)" fill="none" x1="67" x2="69" y1="148" y2="148"/>
            <line clip-path="url(#clipPath2)" fill="none" x1="713" x2="711" y1="148" y2="148"/>
            <line clip-path="url(#clipPath2)" fill="none" x1="67" x2="69" y1="137" y2="137"/>
            <line clip-path="url(#clipPath2)" fill="none" x1="713" x2="711" y1="137" y2="137"/>
            <line clip-path="url(#clipPath2)" fill="none" x1="65" x2="69" y1="126" y2="126"/>
            <line clip-path="url(#clipPath2)" fill="none" x1="715" x2="711" y1="126" y2="126"/>
            <text xml:space="preserve" x="38" y="134" clip-path="url(#clipPath2)" stroke="none">70</text>
            <text xml:space="preserve" x="718" y="134" clip-path="url(#clipPath2)" stroke="none">70</text>
            <line clip-path="url(#clipPath2)" fill="none" x1="67" x2="69" y1="115" y2="115"/>
            <line clip-path="url(#clipPath2)" fill="none" x1="713" x2="711" y1="115" y2="115"/>
            <line clip-path="url(#clipPath2)" fill="none" x1="67" x2="69" y1="104" y2="104"/>
            <line clip-path="url(#clipPath2)" fill="none" x1="713" x2="711" y1="104" y2="104"/>
            <line clip-path="url(#clipPath2)" fill="none" x1="67" x2="69" y1="93" y2="93"/>
            <line clip-path="url(#clipPath2)" fill="none" x1="713" x2="711" y1="93" y2="93"/>
            <line clip-path="url(#clipPath2)" fill="none" x1="67" x2="69" y1="82" y2="82"/>
            <line clip-path="url(#clipPath2)" fill="none" x1="713" x2="711" y1="82" y2="82"/>
            <line clip-path="url(#clipPath2)" fill="none" x1="65" x2="69" y1="70" y2="70"/>
            <line clip-path="url(#clipPath2)" fill="none" x1="715" x2="711" y1="70" y2="70"/>
            <text xml:space="preserve" x="38" y="78" clip-path="url(#clipPath2)" stroke="none">80</text>
            <text xml:space="preserve" x="718" y="78" clip-path="url(#clipPath2)" stroke="none">80</text>
            <line clip-path="url(#clipPath2)" fill="none" x1="67" x2="69" y1="59" y2="59"/>
            <line clip-path="url(#clipPath2)" fill="none" x1="713" x2="711" y1="59" y2="59"/>
        </g>
    </g>
</svg>
