<?xml version="1.0" encoding="UTF-8"?><svg xmlns="http://www.w3.org/2000/svg" xmlns:xlink="http://www.w3.org/1999/xlink" stroke-dasharray="none" shape-rendering="auto" font-family="'Dialog'" width="769" text-rendering="auto" fill-opacity="1" contentScriptType="text/ecmascript" color-interpolation="auto" color-rendering="auto" preserveAspectRatio="xMidYMid meet" font-size="12" fill="black" stroke="black" image-rendering="auto" stroke-miterlimit="10" zoomAndPan="magnify" version="1.0" stroke-linecap="square" stroke-linejoin="miter" contentStyleType="text/css" font-style="normal" height="581" stroke-width="1" stroke-dashoffset="0" font-weight="normal" stroke-opacity="1">
    <!--Generated by the Batik Graphics2D SVG Generator-->
    <defs id="genericDefs"/>
    <g>
        <defs id="defs1">
            <clipPath clipPathUnits="userSpaceOnUse" id="clipPath1">
                <path d="M75 55 L721 55 L721 518 L75 518 L75 55 Z"/>
            </clipPath>
            <clipPath clipPathUnits="userSpaceOnUse" id="clipPath2">
                <path d="M-1 -1 L770 -1 L770 582 L-1 582 L-1 -1 Z"/>
            </clipPath>
            <clipPath clipPathUnits="userSpaceOnUse" id="clipPath3">
                <path d="M558 60 L717 60 L717 155 L558 155 L558 60 Z"/>
            </clipPath>
        </defs>
        <g font-size="15" fill="white" text-rendering="optimizeLegibility" font-family="'Microsoft YaHei UI'" stroke-linejoin="round" stroke="white" stroke-width="0" stroke-miterlimit="0">
            <rect x="76" y="56" clip-path="url(#clipPath1)" width="644" height="461" stroke="none"/>
        </g>
        <g stroke-linecap="butt" font-size="15" fill="rgb(204,204,204)" text-rendering="optimizeLegibility" font-family="'Microsoft YaHei UI'" stroke-dasharray="3,3" stroke="rgb(204,204,204)">
            <line clip-path="url(#clipPath1)" fill="none" x1="76" x2="720" y1="517" y2="517"/>
            <line clip-path="url(#clipPath1)" fill="none" x1="76" x2="720" y1="462" y2="462"/>
            <line clip-path="url(#clipPath1)" fill="none" x1="76" x2="720" y1="407" y2="407"/>
            <line clip-path="url(#clipPath1)" fill="none" x1="76" x2="720" y1="352" y2="352"/>
            <line clip-path="url(#clipPath1)" fill="none" x1="76" x2="720" y1="297" y2="297"/>
            <line clip-path="url(#clipPath1)" fill="none" x1="76" x2="720" y1="242" y2="242"/>
            <line clip-path="url(#clipPath1)" fill="none" x1="76" x2="720" y1="187" y2="187"/>
            <line clip-path="url(#clipPath1)" fill="none" x1="76" x2="720" y1="132" y2="132"/>
            <line clip-path="url(#clipPath1)" fill="none" x1="76" x2="720" y1="77" y2="77"/>
        </g>
        <g stroke-linecap="butt" font-size="15" fill="rgb(31,119,180)" text-rendering="optimizeLegibility" font-family="'Microsoft YaHei UI'" stroke="rgb(31,119,180)" stroke-width="2">
            <line clip-path="url(#clipPath1)" fill="none" x1="129" x2="206" y1="517" y2="517" opacity="0.7529"/>
            <line clip-path="url(#clipPath1)" fill="none" x1="206" x2="206" y1="517" y2="517" opacity="0.7529"/>
            <line clip-path="url(#clipPath1)" fill="none" x1="206" x2="206" y1="517" y2="346" opacity="0.7529"/>
            <line clip-path="url(#clipPath1)" fill="none" x1="206" x2="283" y1="346" y2="346" opacity="0.7529"/>
            <line clip-path="url(#clipPath1)" fill="none" x1="283" x2="283" y1="346" y2="346" opacity="0.7529"/>
            <line clip-path="url(#clipPath1)" fill="none" x1="283" x2="283" y1="346" y2="176" opacity="0.7529"/>
            <line clip-path="url(#clipPath1)" fill="none" x1="283" x2="359" y1="176" y2="176" opacity="0.7529"/>
            <line clip-path="url(#clipPath1)" fill="none" x1="359" x2="359" y1="176" y2="176" opacity="0.7529"/>
            <line clip-path="url(#clipPath1)" fill="none" x1="359" x2="359" y1="176" y2="171" opacity="0.7529"/>
            <line clip-path="url(#clipPath1)" fill="none" x1="359" x2="436" y1="171" y2="171" opacity="0.7529"/>
            <line clip-path="url(#clipPath1)" fill="none" x1="436" x2="436" y1="171" y2="171" opacity="0.7529"/>
            <line clip-path="url(#clipPath1)" fill="none" x1="436" x2="436" y1="171" y2="286" opacity="0.7529"/>
            <line clip-path="url(#clipPath1)" fill="none" x1="436" x2="513" y1="286" y2="286" opacity="0.7529"/>
            <line clip-path="url(#clipPath1)" fill="none" x1="513" x2="513" y1="286" y2="286" opacity="0.7529"/>
            <line clip-path="url(#clipPath1)" fill="none" x1="513" x2="513" y1="286" y2="357" opacity="0.7529"/>
            <line clip-path="url(#clipPath1)" fill="none" x1="513" x2="589" y1="357" y2="357" opacity="0.7529"/>
            <line clip-path="url(#clipPath1)" fill="none" x1="589" x2="589" y1="357" y2="357" opacity="0.7529"/>
            <line clip-path="url(#clipPath1)" fill="none" x1="589" x2="589" y1="357" y2="407" opacity="0.7529"/>
            <line clip-path="url(#clipPath1)" fill="none" x1="589" x2="666" y1="407" y2="407" opacity="0.7529"/>
            <line clip-path="url(#clipPath1)" fill="none" x1="206" x2="283" y1="346" y2="346" opacity="0.7529" stroke="rgb(255,127,14)"/>
            <line clip-path="url(#clipPath1)" fill="none" x1="283" x2="283" y1="346" y2="346" opacity="0.7529" stroke="rgb(255,127,14)"/>
            <line clip-path="url(#clipPath1)" fill="none" x1="283" x2="283" y1="346" y2="193" opacity="0.7529" stroke="rgb(255,127,14)"/>
            <line clip-path="url(#clipPath1)" fill="none" x1="283" x2="359" y1="193" y2="193" opacity="0.7529" stroke="rgb(255,127,14)"/>
            <line clip-path="url(#clipPath1)" fill="none" x1="359" x2="359" y1="193" y2="193" opacity="0.7529" stroke="rgb(255,127,14)"/>
            <line clip-path="url(#clipPath1)" fill="none" x1="359" x2="359" y1="193" y2="187" opacity="0.7529" stroke="rgb(255,127,14)"/>
            <line clip-path="url(#clipPath1)" fill="none" x1="359" x2="436" y1="187" y2="187" opacity="0.7529" stroke="rgb(255,127,14)"/>
            <line clip-path="url(#clipPath1)" fill="none" x1="436" x2="436" y1="187" y2="187" opacity="0.7529" stroke="rgb(255,127,14)"/>
            <line clip-path="url(#clipPath1)" fill="none" x1="436" x2="436" y1="187" y2="286" opacity="0.7529" stroke="rgb(255,127,14)"/>
            <line clip-path="url(#clipPath1)" fill="none" x1="436" x2="513" y1="286" y2="286" opacity="0.7529" stroke="rgb(255,127,14)"/>
            <line clip-path="url(#clipPath1)" fill="none" x1="513" x2="513" y1="286" y2="286" opacity="0.7529" stroke="rgb(255,127,14)"/>
            <line clip-path="url(#clipPath1)" fill="none" x1="513" x2="513" y1="286" y2="374" opacity="0.7529" stroke="rgb(255,127,14)"/>
            <line clip-path="url(#clipPath1)" fill="none" x1="513" x2="589" y1="374" y2="374" opacity="0.7529" stroke="rgb(255,127,14)"/>
            <line clip-path="url(#clipPath1)" fill="none" x1="589" x2="589" y1="374" y2="374" opacity="0.7529" stroke="rgb(255,127,14)"/>
            <line clip-path="url(#clipPath1)" fill="none" x1="589" x2="589" y1="374" y2="407" opacity="0.7529" stroke="rgb(255,127,14)"/>
            <line clip-path="url(#clipPath1)" fill="none" x1="589" x2="666" y1="407" y2="407" opacity="0.7529" stroke="rgb(255,127,14)"/>
            <line clip-path="url(#clipPath1)" fill="none" x1="206" x2="283" y1="346" y2="346" opacity="0.7529" stroke="rgb(44,160,44)"/>
            <line clip-path="url(#clipPath1)" fill="none" x1="283" x2="283" y1="346" y2="346" opacity="0.7529" stroke="rgb(44,160,44)"/>
            <line clip-path="url(#clipPath1)" fill="none" x1="283" x2="283" y1="346" y2="215" opacity="0.7529" stroke="rgb(44,160,44)"/>
            <line clip-path="url(#clipPath1)" fill="none" x1="283" x2="359" y1="215" y2="215" opacity="0.7529" stroke="rgb(44,160,44)"/>
            <line clip-path="url(#clipPath1)" fill="none" x1="359" x2="359" y1="215" y2="215" opacity="0.7529" stroke="rgb(44,160,44)"/>
            <line clip-path="url(#clipPath1)" fill="none" x1="359" x2="359" y1="215" y2="209" opacity="0.7529" stroke="rgb(44,160,44)"/>
            <line clip-path="url(#clipPath1)" fill="none" x1="359" x2="436" y1="209" y2="209" opacity="0.7529" stroke="rgb(44,160,44)"/>
            <line clip-path="url(#clipPath1)" fill="none" x1="436" x2="436" y1="209" y2="209" opacity="0.7529" stroke="rgb(44,160,44)"/>
            <line clip-path="url(#clipPath1)" fill="none" x1="436" x2="436" y1="209" y2="291" opacity="0.7529" stroke="rgb(44,160,44)"/>
            <line clip-path="url(#clipPath1)" fill="none" x1="436" x2="513" y1="291" y2="291" opacity="0.7529" stroke="rgb(44,160,44)"/>
            <line clip-path="url(#clipPath1)" fill="none" x1="513" x2="513" y1="291" y2="291" opacity="0.7529" stroke="rgb(44,160,44)"/>
            <line clip-path="url(#clipPath1)" fill="none" x1="513" x2="513" y1="291" y2="374" opacity="0.7529" stroke="rgb(44,160,44)"/>
            <line clip-path="url(#clipPath1)" fill="none" x1="513" x2="589" y1="374" y2="374" opacity="0.7529" stroke="rgb(44,160,44)"/>
            <line clip-path="url(#clipPath1)" fill="none" x1="589" x2="589" y1="374" y2="374" opacity="0.7529" stroke="rgb(44,160,44)"/>
            <line clip-path="url(#clipPath1)" fill="none" x1="589" x2="589" y1="374" y2="434" opacity="0.7529" stroke="rgb(44,160,44)"/>
            <line clip-path="url(#clipPath1)" fill="none" x1="589" x2="666" y1="434" y2="434" opacity="0.7529" stroke="rgb(44,160,44)"/>
            <rect x="76" y="56" clip-path="url(#clipPath2)" fill="none" width="644" height="461" stroke="black" stroke-width="1"/>
        </g>
        <g text-rendering="optimizeLegibility" font-size="16" font-family="'Arial'" stroke-linecap="butt">
            <text xml:space="preserve" x="382" y="15" clip-path="url(#clipPath2)" stroke="none">.</text>
            <rect x="559" y="61" clip-path="url(#clipPath3)" fill="white" width="156" opacity="0.7529" height="92" stroke="none"/>
            <line clip-path="url(#clipPath3)" fill="none" x1="565" x2="579" y1="78" y2="78" stroke="rgb(31,119,180)" stroke-width="2"/>
            <text x="581" font-size="20" y="85" clip-path="url(#clipPath3)" stroke="none" font-weight="bold" stroke-width="2" xml:space="preserve">Depth</text>
        </g>
        <g stroke-linecap="butt" font-size="20" fill="rgb(255,127,14)" text-rendering="optimizeLegibility" font-family="'Arial'" stroke="rgb(255,127,14)" font-weight="bold" stroke-width="2">
            <line clip-path="url(#clipPath3)" fill="none" x1="565" x2="579" y1="107" y2="107"/>
            <text x="581" y="114" clip-path="url(#clipPath3)" fill="black" stroke="none" xml:space="preserve">Upload Depth</text>
            <line clip-path="url(#clipPath3)" fill="none" x1="565" x2="579" y1="136" y2="136" stroke="rgb(44,160,44)"/>
            <text x="581" y="143" clip-path="url(#clipPath3)" fill="black" stroke="none" xml:space="preserve">Upload Finish</text>
        </g>
        <g text-rendering="optimizeLegibility" font-size="23" font-family="'Arial'" font-weight="bold" stroke-linecap="butt">
            <line clip-path="url(#clipPath2)" fill="none" x1="76" x2="720" y1="54" y2="54"/>
            <line clip-path="url(#clipPath2)" fill="none" x1="76" x2="720" y1="519" y2="519"/>
            <text xml:space="preserve" x="325" y="575" clip-path="url(#clipPath2)" stroke="none">Depth of STA</text>
            <line clip-path="url(#clipPath2)" fill="none" x1="83" x2="83" y1="52" y2="54"/>
            <line clip-path="url(#clipPath2)" fill="none" x1="83" x2="83" y1="521" y2="519"/>
            <line clip-path="url(#clipPath2)" fill="none" x1="99" x2="99" y1="52" y2="54"/>
            <line clip-path="url(#clipPath2)" fill="none" x1="99" x2="99" y1="521" y2="519"/>
            <line clip-path="url(#clipPath2)" fill="none" x1="114" x2="114" y1="52" y2="54"/>
            <line clip-path="url(#clipPath2)" fill="none" x1="114" x2="114" y1="521" y2="519"/>
            <line clip-path="url(#clipPath2)" fill="none" x1="129" x2="129" y1="50" y2="54"/>
            <line clip-path="url(#clipPath2)" fill="none" x1="129" x2="129" y1="523" y2="519"/>
            <text xml:space="preserve" x="124" y="43" clip-path="url(#clipPath2)" stroke="none">0</text>
            <text xml:space="preserve" x="124" y="545" clip-path="url(#clipPath2)" stroke="none">0</text>
            <line clip-path="url(#clipPath2)" fill="none" x1="145" x2="145" y1="52" y2="54"/>
            <line clip-path="url(#clipPath2)" fill="none" x1="145" x2="145" y1="521" y2="519"/>
            <line clip-path="url(#clipPath2)" fill="none" x1="160" x2="160" y1="52" y2="54"/>
            <line clip-path="url(#clipPath2)" fill="none" x1="160" x2="160" y1="521" y2="519"/>
            <line clip-path="url(#clipPath2)" fill="none" x1="175" x2="175" y1="52" y2="54"/>
            <line clip-path="url(#clipPath2)" fill="none" x1="175" x2="175" y1="521" y2="519"/>
            <line clip-path="url(#clipPath2)" fill="none" x1="191" x2="191" y1="52" y2="54"/>
            <line clip-path="url(#clipPath2)" fill="none" x1="191" x2="191" y1="521" y2="519"/>
            <line clip-path="url(#clipPath2)" fill="none" x1="206" x2="206" y1="50" y2="54"/>
            <line clip-path="url(#clipPath2)" fill="none" x1="206" x2="206" y1="523" y2="519"/>
            <text xml:space="preserve" x="201" y="43" clip-path="url(#clipPath2)" stroke="none">1</text>
            <text xml:space="preserve" x="201" y="545" clip-path="url(#clipPath2)" stroke="none">1</text>
            <line clip-path="url(#clipPath2)" fill="none" x1="221" x2="221" y1="52" y2="54"/>
            <line clip-path="url(#clipPath2)" fill="none" x1="221" x2="221" y1="521" y2="519"/>
            <line clip-path="url(#clipPath2)" fill="none" x1="236" x2="236" y1="52" y2="54"/>
            <line clip-path="url(#clipPath2)" fill="none" x1="236" x2="236" y1="521" y2="519"/>
            <line clip-path="url(#clipPath2)" fill="none" x1="252" x2="252" y1="52" y2="54"/>
            <line clip-path="url(#clipPath2)" fill="none" x1="252" x2="252" y1="521" y2="519"/>
            <line clip-path="url(#clipPath2)" fill="none" x1="267" x2="267" y1="52" y2="54"/>
            <line clip-path="url(#clipPath2)" fill="none" x1="267" x2="267" y1="521" y2="519"/>
            <line clip-path="url(#clipPath2)" fill="none" x1="283" x2="283" y1="50" y2="54"/>
            <line clip-path="url(#clipPath2)" fill="none" x1="283" x2="283" y1="523" y2="519"/>
            <text xml:space="preserve" x="278" y="43" clip-path="url(#clipPath2)" stroke="none">2</text>
            <text xml:space="preserve" x="278" y="545" clip-path="url(#clipPath2)" stroke="none">2</text>
            <line clip-path="url(#clipPath2)" fill="none" x1="298" x2="298" y1="52" y2="54"/>
            <line clip-path="url(#clipPath2)" fill="none" x1="298" x2="298" y1="521" y2="519"/>
            <line clip-path="url(#clipPath2)" fill="none" x1="313" x2="313" y1="52" y2="54"/>
            <line clip-path="url(#clipPath2)" fill="none" x1="313" x2="313" y1="521" y2="519"/>
            <line clip-path="url(#clipPath2)" fill="none" x1="328" x2="328" y1="52" y2="54"/>
            <line clip-path="url(#clipPath2)" fill="none" x1="328" x2="328" y1="521" y2="519"/>
            <line clip-path="url(#clipPath2)" fill="none" x1="344" x2="344" y1="52" y2="54"/>
            <line clip-path="url(#clipPath2)" fill="none" x1="344" x2="344" y1="521" y2="519"/>
            <line clip-path="url(#clipPath2)" fill="none" x1="359" x2="359" y1="50" y2="54"/>
            <line clip-path="url(#clipPath2)" fill="none" x1="359" x2="359" y1="523" y2="519"/>
            <text xml:space="preserve" x="354" y="43" clip-path="url(#clipPath2)" stroke="none">3</text>
            <text xml:space="preserve" x="354" y="545" clip-path="url(#clipPath2)" stroke="none">3</text>
            <line clip-path="url(#clipPath2)" fill="none" x1="375" x2="375" y1="52" y2="54"/>
            <line clip-path="url(#clipPath2)" fill="none" x1="375" x2="375" y1="521" y2="519"/>
            <line clip-path="url(#clipPath2)" fill="none" x1="390" x2="390" y1="52" y2="54"/>
            <line clip-path="url(#clipPath2)" fill="none" x1="390" x2="390" y1="521" y2="519"/>
            <line clip-path="url(#clipPath2)" fill="none" x1="405" x2="405" y1="52" y2="54"/>
            <line clip-path="url(#clipPath2)" fill="none" x1="405" x2="405" y1="521" y2="519"/>
            <line clip-path="url(#clipPath2)" fill="none" x1="420" x2="420" y1="52" y2="54"/>
            <line clip-path="url(#clipPath2)" fill="none" x1="420" x2="420" y1="521" y2="519"/>
            <line clip-path="url(#clipPath2)" fill="none" x1="436" x2="436" y1="50" y2="54"/>
            <line clip-path="url(#clipPath2)" fill="none" x1="436" x2="436" y1="523" y2="519"/>
            <text xml:space="preserve" x="431" y="43" clip-path="url(#clipPath2)" stroke="none">4</text>
            <text xml:space="preserve" x="431" y="545" clip-path="url(#clipPath2)" stroke="none">4</text>
            <line clip-path="url(#clipPath2)" fill="none" x1="451" x2="451" y1="52" y2="54"/>
            <line clip-path="url(#clipPath2)" fill="none" x1="451" x2="451" y1="521" y2="519"/>
            <line clip-path="url(#clipPath2)" fill="none" x1="467" x2="467" y1="52" y2="54"/>
            <line clip-path="url(#clipPath2)" fill="none" x1="467" x2="467" y1="521" y2="519"/>
            <line clip-path="url(#clipPath2)" fill="none" x1="482" x2="482" y1="52" y2="54"/>
            <line clip-path="url(#clipPath2)" fill="none" x1="482" x2="482" y1="521" y2="519"/>
            <line clip-path="url(#clipPath2)" fill="none" x1="497" x2="497" y1="52" y2="54"/>
            <line clip-path="url(#clipPath2)" fill="none" x1="497" x2="497" y1="521" y2="519"/>
            <line clip-path="url(#clipPath2)" fill="none" x1="513" x2="513" y1="50" y2="54"/>
            <line clip-path="url(#clipPath2)" fill="none" x1="513" x2="513" y1="523" y2="519"/>
            <text xml:space="preserve" x="508" y="43" clip-path="url(#clipPath2)" stroke="none">5</text>
            <text xml:space="preserve" x="508" y="545" clip-path="url(#clipPath2)" stroke="none">5</text>
            <line clip-path="url(#clipPath2)" fill="none" x1="528" x2="528" y1="52" y2="54"/>
            <line clip-path="url(#clipPath2)" fill="none" x1="528" x2="528" y1="521" y2="519"/>
            <line clip-path="url(#clipPath2)" fill="none" x1="543" x2="543" y1="52" y2="54"/>
            <line clip-path="url(#clipPath2)" fill="none" x1="543" x2="543" y1="521" y2="519"/>
            <line clip-path="url(#clipPath2)" fill="none" x1="559" x2="559" y1="52" y2="54"/>
            <line clip-path="url(#clipPath2)" fill="none" x1="559" x2="559" y1="521" y2="519"/>
            <line clip-path="url(#clipPath2)" fill="none" x1="574" x2="574" y1="52" y2="54"/>
            <line clip-path="url(#clipPath2)" fill="none" x1="574" x2="574" y1="521" y2="519"/>
            <line clip-path="url(#clipPath2)" fill="none" x1="589" x2="589" y1="50" y2="54"/>
            <line clip-path="url(#clipPath2)" fill="none" x1="589" x2="589" y1="523" y2="519"/>
            <text xml:space="preserve" x="584" y="43" clip-path="url(#clipPath2)" stroke="none">6</text>
            <text xml:space="preserve" x="584" y="545" clip-path="url(#clipPath2)" stroke="none">6</text>
            <line clip-path="url(#clipPath2)" fill="none" x1="605" x2="605" y1="52" y2="54"/>
            <line clip-path="url(#clipPath2)" fill="none" x1="605" x2="605" y1="521" y2="519"/>
            <line clip-path="url(#clipPath2)" fill="none" x1="620" x2="620" y1="52" y2="54"/>
            <line clip-path="url(#clipPath2)" fill="none" x1="620" x2="620" y1="521" y2="519"/>
            <line clip-path="url(#clipPath2)" fill="none" x1="635" x2="635" y1="52" y2="54"/>
            <line clip-path="url(#clipPath2)" fill="none" x1="635" x2="635" y1="521" y2="519"/>
            <line clip-path="url(#clipPath2)" fill="none" x1="650" x2="650" y1="52" y2="54"/>
            <line clip-path="url(#clipPath2)" fill="none" x1="650" x2="650" y1="521" y2="519"/>
            <line clip-path="url(#clipPath2)" fill="none" x1="666" x2="666" y1="50" y2="54"/>
            <line clip-path="url(#clipPath2)" fill="none" x1="666" x2="666" y1="523" y2="519"/>
            <text xml:space="preserve" x="661" y="43" clip-path="url(#clipPath2)" stroke="none">7</text>
            <text xml:space="preserve" x="661" y="545" clip-path="url(#clipPath2)" stroke="none">7</text>
            <line clip-path="url(#clipPath2)" fill="none" x1="681" x2="681" y1="52" y2="54"/>
            <line clip-path="url(#clipPath2)" fill="none" x1="681" x2="681" y1="521" y2="519"/>
            <line clip-path="url(#clipPath2)" fill="none" x1="696" x2="696" y1="52" y2="54"/>
            <line clip-path="url(#clipPath2)" fill="none" x1="696" x2="696" y1="521" y2="519"/>
            <line clip-path="url(#clipPath2)" fill="none" x1="712" x2="712" y1="52" y2="54"/>
            <line clip-path="url(#clipPath2)" fill="none" x1="712" x2="712" y1="521" y2="519"/>
            <line clip-path="url(#clipPath2)" fill="none" x1="74" x2="74" y1="56" y2="517"/>
            <line clip-path="url(#clipPath2)" fill="none" x1="722" x2="722" y1="56" y2="517"/>
            <line clip-path="url(#clipPath2)" fill="none" x1="70" x2="74" y1="517" y2="517"/>
            <line clip-path="url(#clipPath2)" fill="none" x1="726" x2="722" y1="517" y2="517"/>
            <text xml:space="preserve" x="56" y="525" clip-path="url(#clipPath2)" stroke="none">0</text>
            <text xml:space="preserve" x="729" y="525" clip-path="url(#clipPath2)" stroke="none">0</text>
            <line clip-path="url(#clipPath2)" fill="none" x1="72" x2="74" y1="506" y2="506"/>
            <line clip-path="url(#clipPath2)" fill="none" x1="724" x2="722" y1="506" y2="506"/>
            <line clip-path="url(#clipPath2)" fill="none" x1="72" x2="74" y1="495" y2="495"/>
            <line clip-path="url(#clipPath2)" fill="none" x1="724" x2="722" y1="495" y2="495"/>
            <line clip-path="url(#clipPath2)" fill="none" x1="72" x2="74" y1="484" y2="484"/>
            <line clip-path="url(#clipPath2)" fill="none" x1="724" x2="722" y1="484" y2="484"/>
            <line clip-path="url(#clipPath2)" fill="none" x1="72" x2="74" y1="473" y2="473"/>
            <line clip-path="url(#clipPath2)" fill="none" x1="724" x2="722" y1="473" y2="473"/>
            <line clip-path="url(#clipPath2)" fill="none" x1="70" x2="74" y1="462" y2="462"/>
            <line clip-path="url(#clipPath2)" fill="none" x1="726" x2="722" y1="462" y2="462"/>
            <text xml:space="preserve" x="43" y="470" clip-path="url(#clipPath2)" stroke="none">10</text>
            <text xml:space="preserve" x="729" y="470" clip-path="url(#clipPath2)" stroke="none">10</text>
            <line clip-path="url(#clipPath2)" fill="none" x1="72" x2="74" y1="451" y2="451"/>
            <line clip-path="url(#clipPath2)" fill="none" x1="724" x2="722" y1="451" y2="451"/>
            <line clip-path="url(#clipPath2)" fill="none" x1="72" x2="74" y1="440" y2="440"/>
            <line clip-path="url(#clipPath2)" fill="none" x1="724" x2="722" y1="440" y2="440"/>
            <line clip-path="url(#clipPath2)" fill="none" x1="72" x2="74" y1="429" y2="429"/>
            <line clip-path="url(#clipPath2)" fill="none" x1="724" x2="722" y1="429" y2="429"/>
            <line clip-path="url(#clipPath2)" fill="none" x1="72" x2="74" y1="418" y2="418"/>
            <line clip-path="url(#clipPath2)" fill="none" x1="724" x2="722" y1="418" y2="418"/>
            <line clip-path="url(#clipPath2)" fill="none" x1="70" x2="74" y1="407" y2="407"/>
            <line clip-path="url(#clipPath2)" fill="none" x1="726" x2="722" y1="407" y2="407"/>
            <text xml:space="preserve" x="43" y="415" clip-path="url(#clipPath2)" stroke="none">20</text>
            <text xml:space="preserve" x="729" y="415" clip-path="url(#clipPath2)" stroke="none">20</text>
            <line clip-path="url(#clipPath2)" fill="none" x1="72" x2="74" y1="396" y2="396"/>
            <line clip-path="url(#clipPath2)" fill="none" x1="724" x2="722" y1="396" y2="396"/>
            <line clip-path="url(#clipPath2)" fill="none" x1="72" x2="74" y1="385" y2="385"/>
            <line clip-path="url(#clipPath2)" fill="none" x1="724" x2="722" y1="385" y2="385"/>
            <line clip-path="url(#clipPath2)" fill="none" x1="72" x2="74" y1="374" y2="374"/>
            <line clip-path="url(#clipPath2)" fill="none" x1="724" x2="722" y1="374" y2="374"/>
            <line clip-path="url(#clipPath2)" fill="none" x1="72" x2="74" y1="363" y2="363"/>
            <line clip-path="url(#clipPath2)" fill="none" x1="724" x2="722" y1="363" y2="363"/>
            <line clip-path="url(#clipPath2)" fill="none" x1="70" x2="74" y1="352" y2="352"/>
            <line clip-path="url(#clipPath2)" fill="none" x1="726" x2="722" y1="352" y2="352"/>
            <text xml:space="preserve" x="43" y="360" clip-path="url(#clipPath2)" stroke="none">30</text>
            <text xml:space="preserve" x="729" y="360" clip-path="url(#clipPath2)" stroke="none">30</text>
            <line clip-path="url(#clipPath2)" fill="none" x1="72" x2="74" y1="341" y2="341"/>
            <line clip-path="url(#clipPath2)" fill="none" x1="724" x2="722" y1="341" y2="341"/>
            <line clip-path="url(#clipPath2)" fill="none" x1="72" x2="74" y1="330" y2="330"/>
            <line clip-path="url(#clipPath2)" fill="none" x1="724" x2="722" y1="330" y2="330"/>
            <line clip-path="url(#clipPath2)" fill="none" x1="72" x2="74" y1="319" y2="319"/>
            <line clip-path="url(#clipPath2)" fill="none" x1="724" x2="722" y1="319" y2="319"/>
            <line clip-path="url(#clipPath2)" fill="none" x1="72" x2="74" y1="308" y2="308"/>
            <line clip-path="url(#clipPath2)" fill="none" x1="724" x2="722" y1="308" y2="308"/>
            <line clip-path="url(#clipPath2)" fill="none" x1="70" x2="74" y1="297" y2="297"/>
            <line clip-path="url(#clipPath2)" fill="none" x1="726" x2="722" y1="297" y2="297"/>
            <text xml:space="preserve" x="43" y="305" clip-path="url(#clipPath2)" stroke="none">40</text>
            <text xml:space="preserve" x="729" y="305" clip-path="url(#clipPath2)" stroke="none">40</text>
            <line clip-path="url(#clipPath2)" fill="none" x1="72" x2="74" y1="286" y2="286"/>
            <line clip-path="url(#clipPath2)" fill="none" x1="724" x2="722" y1="286" y2="286"/>
            <line clip-path="url(#clipPath2)" fill="none" x1="72" x2="74" y1="275" y2="275"/>
            <line clip-path="url(#clipPath2)" fill="none" x1="724" x2="722" y1="275" y2="275"/>
            <line clip-path="url(#clipPath2)" fill="none" x1="72" x2="74" y1="264" y2="264"/>
            <line clip-path="url(#clipPath2)" fill="none" x1="724" x2="722" y1="264" y2="264"/>
            <line clip-path="url(#clipPath2)" fill="none" x1="72" x2="74" y1="253" y2="253"/>
            <line clip-path="url(#clipPath2)" fill="none" x1="724" x2="722" y1="253" y2="253"/>
            <line clip-path="url(#clipPath2)" fill="none" x1="70" x2="74" y1="242" y2="242"/>
            <line clip-path="url(#clipPath2)" fill="none" x1="726" x2="722" y1="242" y2="242"/>
            <text xml:space="preserve" x="43" y="250" clip-path="url(#clipPath2)" stroke="none">50</text>
            <text xml:space="preserve" x="729" y="250" clip-path="url(#clipPath2)" stroke="none">50</text>
            <line clip-path="url(#clipPath2)" fill="none" x1="72" x2="74" y1="231" y2="231"/>
            <line clip-path="url(#clipPath2)" fill="none" x1="724" x2="722" y1="231" y2="231"/>
            <line clip-path="url(#clipPath2)" fill="none" x1="72" x2="74" y1="220" y2="220"/>
            <line clip-path="url(#clipPath2)" fill="none" x1="724" x2="722" y1="220" y2="220"/>
            <line clip-path="url(#clipPath2)" fill="none" x1="72" x2="74" y1="209" y2="209"/>
            <line clip-path="url(#clipPath2)" fill="none" x1="724" x2="722" y1="209" y2="209"/>
            <line clip-path="url(#clipPath2)" fill="none" x1="72" x2="74" y1="198" y2="198"/>
            <line clip-path="url(#clipPath2)" fill="none" x1="724" x2="722" y1="198" y2="198"/>
            <line clip-path="url(#clipPath2)" fill="none" x1="70" x2="74" y1="187" y2="187"/>
            <line clip-path="url(#clipPath2)" fill="none" x1="726" x2="722" y1="187" y2="187"/>
            <text xml:space="preserve" x="43" y="195" clip-path="url(#clipPath2)" stroke="none">60</text>
            <text xml:space="preserve" x="729" y="195" clip-path="url(#clipPath2)" stroke="none">60</text>
            <line clip-path="url(#clipPath2)" fill="none" x1="72" x2="74" y1="176" y2="176"/>
            <line clip-path="url(#clipPath2)" fill="none" x1="724" x2="722" y1="176" y2="176"/>
            <line clip-path="url(#clipPath2)" fill="none" x1="72" x2="74" y1="165" y2="165"/>
            <line clip-path="url(#clipPath2)" fill="none" x1="724" x2="722" y1="165" y2="165"/>
            <line clip-path="url(#clipPath2)" fill="none" x1="72" x2="74" y1="154" y2="154"/>
            <line clip-path="url(#clipPath2)" fill="none" x1="724" x2="722" y1="154" y2="154"/>
            <line clip-path="url(#clipPath2)" fill="none" x1="72" x2="74" y1="143" y2="143"/>
            <line clip-path="url(#clipPath2)" fill="none" x1="724" x2="722" y1="143" y2="143"/>
            <line clip-path="url(#clipPath2)" fill="none" x1="70" x2="74" y1="132" y2="132"/>
            <line clip-path="url(#clipPath2)" fill="none" x1="726" x2="722" y1="132" y2="132"/>
            <text xml:space="preserve" x="43" y="140" clip-path="url(#clipPath2)" stroke="none">70</text>
            <text xml:space="preserve" x="729" y="140" clip-path="url(#clipPath2)" stroke="none">70</text>
            <line clip-path="url(#clipPath2)" fill="none" x1="72" x2="74" y1="121" y2="121"/>
            <line clip-path="url(#clipPath2)" fill="none" x1="724" x2="722" y1="121" y2="121"/>
            <line clip-path="url(#clipPath2)" fill="none" x1="72" x2="74" y1="110" y2="110"/>
            <line clip-path="url(#clipPath2)" fill="none" x1="724" x2="722" y1="110" y2="110"/>
            <line clip-path="url(#clipPath2)" fill="none" x1="72" x2="74" y1="99" y2="99"/>
            <line clip-path="url(#clipPath2)" fill="none" x1="724" x2="722" y1="99" y2="99"/>
            <line clip-path="url(#clipPath2)" fill="none" x1="72" x2="74" y1="88" y2="88"/>
            <line clip-path="url(#clipPath2)" fill="none" x1="724" x2="722" y1="88" y2="88"/>
            <line clip-path="url(#clipPath2)" fill="none" x1="70" x2="74" y1="77" y2="77"/>
            <line clip-path="url(#clipPath2)" fill="none" x1="726" x2="722" y1="77" y2="77"/>
            <text xml:space="preserve" x="43" y="85" clip-path="url(#clipPath2)" stroke="none">80</text>
            <text xml:space="preserve" x="729" y="85" clip-path="url(#clipPath2)" stroke="none">80</text>
            <line clip-path="url(#clipPath2)" fill="none" x1="72" x2="74" y1="66" y2="66"/>
            <line clip-path="url(#clipPath2)" fill="none" x1="724" x2="722" y1="66" y2="66"/>
            <line clip-path="url(#clipPath2)" fill="none" x1="72" x2="74" y1="56" y2="56"/>
            <line clip-path="url(#clipPath2)" fill="none" x1="724" x2="722" y1="56" y2="56"/>
        </g>
    </g>
</svg>
