<?xml version="1.0" encoding="UTF-8"?><svg xmlns="http://www.w3.org/2000/svg" xmlns:xlink="http://www.w3.org/1999/xlink" stroke-dasharray="none" shape-rendering="auto" font-family="'Dialog'" width="789" text-rendering="auto" fill-opacity="1" contentScriptType="text/ecmascript" color-interpolation="auto" color-rendering="auto" preserveAspectRatio="xMidYMid meet" font-size="12" fill="black" stroke="black" image-rendering="auto" stroke-miterlimit="10" zoomAndPan="magnify" version="1.0" stroke-linecap="square" stroke-linejoin="miter" contentStyleType="text/css" font-style="normal" height="581" stroke-width="1" stroke-dashoffset="0" font-weight="normal" stroke-opacity="1">
    <!--Generated by the Batik Graphics2D SVG Generator-->
    <defs id="genericDefs"/>
    <g>
        <defs id="defs1">
            <clipPath clipPathUnits="userSpaceOnUse" id="clipPath1">
                <path d="M75 55 L741 55 L741 518 L75 518 L75 55 Z"/>
            </clipPath>
            <clipPath clipPathUnits="userSpaceOnUse" id="clipPath2">
                <path d="M-1 -1 L790 -1 L790 582 L-1 582 L-1 -1 Z"/>
            </clipPath>
        </defs>
        <g font-size="15" fill="white" text-rendering="optimizeLegibility" font-family="'Microsoft YaHei UI'" stroke-linejoin="round" stroke="white" stroke-width="0" stroke-miterlimit="0">
            <rect x="76" y="56" clip-path="url(#clipPath1)" width="664" height="461" stroke="none"/>
        </g>
        <g stroke-linecap="butt" font-size="15" fill="rgb(204,204,204)" text-rendering="optimizeLegibility" font-family="'Microsoft YaHei UI'" stroke-dasharray="3,3" stroke="rgb(204,204,204)">
            <line clip-path="url(#clipPath1)" fill="none" x1="76" x2="740" y1="517" y2="517"/>
            <line clip-path="url(#clipPath1)" fill="none" x1="76" x2="740" y1="466" y2="466"/>
            <line clip-path="url(#clipPath1)" fill="none" x1="76" x2="740" y1="416" y2="416"/>
            <line clip-path="url(#clipPath1)" fill="none" x1="76" x2="740" y1="366" y2="366"/>
            <line clip-path="url(#clipPath1)" fill="none" x1="76" x2="740" y1="316" y2="316"/>
            <line clip-path="url(#clipPath1)" fill="none" x1="76" x2="740" y1="266" y2="266"/>
            <line clip-path="url(#clipPath1)" fill="none" x1="76" x2="740" y1="216" y2="216"/>
            <line clip-path="url(#clipPath1)" fill="none" x1="76" x2="740" y1="166" y2="166"/>
            <line clip-path="url(#clipPath1)" fill="none" x1="76" x2="740" y1="116" y2="116"/>
            <line clip-path="url(#clipPath1)" fill="none" x1="76" x2="740" y1="66" y2="66"/>
            <rect x="131" y="406" clip-path="url(#clipPath1)" fill="rgb(31,119,180)" width="92" height="111" stroke="none"/>
            <rect x="131" y="406" clip-path="url(#clipPath1)" fill="none" width="92" stroke-dasharray="none" height="111" stroke="black"/>
            <rect x="223" y="346" clip-path="url(#clipPath1)" fill="rgb(31,119,180)" width="92" stroke-dasharray="none" height="171" stroke="none"/>
            <rect x="223" y="346" clip-path="url(#clipPath1)" fill="none" width="92" stroke-dasharray="none" height="171" stroke="black"/>
            <rect x="315" y="316" clip-path="url(#clipPath1)" fill="rgb(31,119,180)" width="93" stroke-dasharray="none" height="201" stroke="none"/>
            <rect x="315" y="316" clip-path="url(#clipPath1)" fill="none" width="93" stroke-dasharray="none" height="201" stroke="black"/>
            <rect x="408" y="216" clip-path="url(#clipPath1)" fill="rgb(31,119,180)" width="92" stroke-dasharray="none" height="301" stroke="none"/>
            <rect x="408" y="216" clip-path="url(#clipPath1)" fill="none" width="92" stroke-dasharray="none" height="301" stroke="black"/>
            <rect x="500" y="171" clip-path="url(#clipPath1)" fill="rgb(31,119,180)" width="92" stroke-dasharray="none" height="346" stroke="none"/>
            <rect x="500" y="171" clip-path="url(#clipPath1)" fill="none" width="92" stroke-dasharray="none" height="346" stroke="black"/>
            <rect x="592" y="406" clip-path="url(#clipPath1)" fill="rgb(31,119,180)" width="92" stroke-dasharray="none" height="111" stroke="none"/>
            <rect x="592" y="406" clip-path="url(#clipPath1)" fill="none" width="92" stroke-dasharray="none" height="111" stroke="black"/>
            <rect x="76" y="56" clip-path="url(#clipPath2)" fill="none" width="664" stroke-dasharray="none" height="461" stroke="black"/>
        </g>
        <g text-rendering="optimizeLegibility" font-size="16" font-family="'Arial'" stroke-linecap="butt">
            <text xml:space="preserve" x="392" y="15" clip-path="url(#clipPath2)" stroke="none">.</text>
            <line clip-path="url(#clipPath2)" fill="none" x1="76" x2="740" y1="54" y2="54"/>
            <line clip-path="url(#clipPath2)" fill="none" x1="76" x2="740" y1="519" y2="519"/>
            <text x="275" font-size="23" y="575" clip-path="url(#clipPath2)" stroke="none" font-weight="bold" xml:space="preserve">Uploading Start Time (s)</text>
            <line clip-path="url(#clipPath2)" fill="none" x1="76" x2="76" y1="52" y2="54"/>
            <line clip-path="url(#clipPath2)" fill="none" x1="76" x2="76" y1="521" y2="519"/>
            <line clip-path="url(#clipPath2)" fill="none" x1="94" x2="94" y1="52" y2="54"/>
            <line clip-path="url(#clipPath2)" fill="none" x1="94" x2="94" y1="521" y2="519"/>
            <line clip-path="url(#clipPath2)" fill="none" x1="112" x2="112" y1="52" y2="54"/>
            <line clip-path="url(#clipPath2)" fill="none" x1="112" x2="112" y1="521" y2="519"/>
            <line clip-path="url(#clipPath2)" fill="none" x1="131" x2="131" y1="50" y2="54"/>
            <line clip-path="url(#clipPath2)" fill="none" x1="131" x2="131" y1="523" y2="519"/>
            <text x="113" font-size="23" y="43" clip-path="url(#clipPath2)" stroke="none" font-weight="bold" xml:space="preserve">244</text>
            <text x="113" font-size="23" y="545" clip-path="url(#clipPath2)" stroke="none" font-weight="bold" xml:space="preserve">244</text>
            <line clip-path="url(#clipPath2)" fill="none" x1="149" x2="149" y1="52" y2="54"/>
            <line clip-path="url(#clipPath2)" fill="none" x1="149" x2="149" y1="521" y2="519"/>
            <line clip-path="url(#clipPath2)" fill="none" x1="168" x2="168" y1="52" y2="54"/>
            <line clip-path="url(#clipPath2)" fill="none" x1="168" x2="168" y1="521" y2="519"/>
            <line clip-path="url(#clipPath2)" fill="none" x1="186" x2="186" y1="52" y2="54"/>
            <line clip-path="url(#clipPath2)" fill="none" x1="186" x2="186" y1="521" y2="519"/>
            <line clip-path="url(#clipPath2)" fill="none" x1="205" x2="205" y1="52" y2="54"/>
            <line clip-path="url(#clipPath2)" fill="none" x1="205" x2="205" y1="521" y2="519"/>
            <line clip-path="url(#clipPath2)" fill="none" x1="223" x2="223" y1="50" y2="54"/>
            <line clip-path="url(#clipPath2)" fill="none" x1="223" x2="223" y1="523" y2="519"/>
            <text x="205" font-size="23" y="43" clip-path="url(#clipPath2)" stroke="none" font-weight="bold" xml:space="preserve">245</text>
            <text x="205" font-size="23" y="545" clip-path="url(#clipPath2)" stroke="none" font-weight="bold" xml:space="preserve">245</text>
            <line clip-path="url(#clipPath2)" fill="none" x1="241" x2="241" y1="52" y2="54"/>
            <line clip-path="url(#clipPath2)" fill="none" x1="241" x2="241" y1="521" y2="519"/>
            <line clip-path="url(#clipPath2)" fill="none" x1="260" x2="260" y1="52" y2="54"/>
            <line clip-path="url(#clipPath2)" fill="none" x1="260" x2="260" y1="521" y2="519"/>
            <line clip-path="url(#clipPath2)" fill="none" x1="278" x2="278" y1="52" y2="54"/>
            <line clip-path="url(#clipPath2)" fill="none" x1="278" x2="278" y1="521" y2="519"/>
            <line clip-path="url(#clipPath2)" fill="none" x1="297" x2="297" y1="52" y2="54"/>
            <line clip-path="url(#clipPath2)" fill="none" x1="297" x2="297" y1="521" y2="519"/>
            <line clip-path="url(#clipPath2)" fill="none" x1="315" x2="315" y1="50" y2="54"/>
            <line clip-path="url(#clipPath2)" fill="none" x1="315" x2="315" y1="523" y2="519"/>
            <text x="297" font-size="23" y="43" clip-path="url(#clipPath2)" stroke="none" font-weight="bold" xml:space="preserve">246</text>
            <text x="297" font-size="23" y="545" clip-path="url(#clipPath2)" stroke="none" font-weight="bold" xml:space="preserve">246</text>
            <line clip-path="url(#clipPath2)" fill="none" x1="334" x2="334" y1="52" y2="54"/>
            <line clip-path="url(#clipPath2)" fill="none" x1="334" x2="334" y1="521" y2="519"/>
            <line clip-path="url(#clipPath2)" fill="none" x1="352" x2="352" y1="52" y2="54"/>
            <line clip-path="url(#clipPath2)" fill="none" x1="352" x2="352" y1="521" y2="519"/>
            <line clip-path="url(#clipPath2)" fill="none" x1="371" x2="371" y1="52" y2="54"/>
            <line clip-path="url(#clipPath2)" fill="none" x1="371" x2="371" y1="521" y2="519"/>
            <line clip-path="url(#clipPath2)" fill="none" x1="389" x2="389" y1="52" y2="54"/>
            <line clip-path="url(#clipPath2)" fill="none" x1="389" x2="389" y1="521" y2="519"/>
            <line clip-path="url(#clipPath2)" fill="none" x1="408" x2="408" y1="50" y2="54"/>
            <line clip-path="url(#clipPath2)" fill="none" x1="408" x2="408" y1="523" y2="519"/>
            <text x="390" font-size="23" y="43" clip-path="url(#clipPath2)" stroke="none" font-weight="bold" xml:space="preserve">247</text>
            <text x="390" font-size="23" y="545" clip-path="url(#clipPath2)" stroke="none" font-weight="bold" xml:space="preserve">247</text>
            <line clip-path="url(#clipPath2)" fill="none" x1="426" x2="426" y1="52" y2="54"/>
            <line clip-path="url(#clipPath2)" fill="none" x1="426" x2="426" y1="521" y2="519"/>
            <line clip-path="url(#clipPath2)" fill="none" x1="444" x2="444" y1="52" y2="54"/>
            <line clip-path="url(#clipPath2)" fill="none" x1="444" x2="444" y1="521" y2="519"/>
            <line clip-path="url(#clipPath2)" fill="none" x1="463" x2="463" y1="52" y2="54"/>
            <line clip-path="url(#clipPath2)" fill="none" x1="463" x2="463" y1="521" y2="519"/>
            <line clip-path="url(#clipPath2)" fill="none" x1="481" x2="481" y1="52" y2="54"/>
            <line clip-path="url(#clipPath2)" fill="none" x1="481" x2="481" y1="521" y2="519"/>
            <line clip-path="url(#clipPath2)" fill="none" x1="500" x2="500" y1="50" y2="54"/>
            <line clip-path="url(#clipPath2)" fill="none" x1="500" x2="500" y1="523" y2="519"/>
            <text x="482" font-size="23" y="43" clip-path="url(#clipPath2)" stroke="none" font-weight="bold" xml:space="preserve">248</text>
            <text x="482" font-size="23" y="545" clip-path="url(#clipPath2)" stroke="none" font-weight="bold" xml:space="preserve">248</text>
            <line clip-path="url(#clipPath2)" fill="none" x1="518" x2="518" y1="52" y2="54"/>
            <line clip-path="url(#clipPath2)" fill="none" x1="518" x2="518" y1="521" y2="519"/>
            <line clip-path="url(#clipPath2)" fill="none" x1="537" x2="537" y1="52" y2="54"/>
            <line clip-path="url(#clipPath2)" fill="none" x1="537" x2="537" y1="521" y2="519"/>
            <line clip-path="url(#clipPath2)" fill="none" x1="555" x2="555" y1="52" y2="54"/>
            <line clip-path="url(#clipPath2)" fill="none" x1="555" x2="555" y1="521" y2="519"/>
            <line clip-path="url(#clipPath2)" fill="none" x1="574" x2="574" y1="52" y2="54"/>
            <line clip-path="url(#clipPath2)" fill="none" x1="574" x2="574" y1="521" y2="519"/>
            <line clip-path="url(#clipPath2)" fill="none" x1="592" x2="592" y1="50" y2="54"/>
            <line clip-path="url(#clipPath2)" fill="none" x1="592" x2="592" y1="523" y2="519"/>
            <text x="574" font-size="23" y="43" clip-path="url(#clipPath2)" stroke="none" font-weight="bold" xml:space="preserve">249</text>
            <text x="574" font-size="23" y="545" clip-path="url(#clipPath2)" stroke="none" font-weight="bold" xml:space="preserve">249</text>
            <line clip-path="url(#clipPath2)" fill="none" x1="610" x2="610" y1="52" y2="54"/>
            <line clip-path="url(#clipPath2)" fill="none" x1="610" x2="610" y1="521" y2="519"/>
            <line clip-path="url(#clipPath2)" fill="none" x1="629" x2="629" y1="52" y2="54"/>
            <line clip-path="url(#clipPath2)" fill="none" x1="629" x2="629" y1="521" y2="519"/>
            <line clip-path="url(#clipPath2)" fill="none" x1="647" x2="647" y1="52" y2="54"/>
            <line clip-path="url(#clipPath2)" fill="none" x1="647" x2="647" y1="521" y2="519"/>
            <line clip-path="url(#clipPath2)" fill="none" x1="666" x2="666" y1="52" y2="54"/>
            <line clip-path="url(#clipPath2)" fill="none" x1="666" x2="666" y1="521" y2="519"/>
            <line clip-path="url(#clipPath2)" fill="none" x1="684" x2="684" y1="50" y2="54"/>
            <line clip-path="url(#clipPath2)" fill="none" x1="684" x2="684" y1="523" y2="519"/>
            <text x="666" font-size="23" y="43" clip-path="url(#clipPath2)" stroke="none" font-weight="bold" xml:space="preserve">250</text>
            <text x="666" font-size="23" y="545" clip-path="url(#clipPath2)" stroke="none" font-weight="bold" xml:space="preserve">250</text>
            <line clip-path="url(#clipPath2)" fill="none" x1="703" x2="703" y1="52" y2="54"/>
            <line clip-path="url(#clipPath2)" fill="none" x1="703" x2="703" y1="521" y2="519"/>
            <line clip-path="url(#clipPath2)" fill="none" x1="721" x2="721" y1="52" y2="54"/>
            <line clip-path="url(#clipPath2)" fill="none" x1="721" x2="721" y1="521" y2="519"/>
            <line clip-path="url(#clipPath2)" fill="none" x1="740" x2="740" y1="52" y2="54"/>
            <line clip-path="url(#clipPath2)" fill="none" x1="740" x2="740" y1="521" y2="519"/>
            <line clip-path="url(#clipPath2)" fill="none" x1="74" x2="74" y1="56" y2="517"/>
            <line clip-path="url(#clipPath2)" fill="none" x1="742" x2="742" y1="56" y2="517"/>
            <line clip-path="url(#clipPath2)" fill="none" x1="70" x2="74" y1="517" y2="517"/>
            <line clip-path="url(#clipPath2)" fill="none" x1="746" x2="742" y1="517" y2="517"/>
            <text x="56" font-size="23" y="525" clip-path="url(#clipPath2)" stroke="none" font-weight="bold" xml:space="preserve">0</text>
            <text x="749" font-size="23" y="525" clip-path="url(#clipPath2)" stroke="none" font-weight="bold" xml:space="preserve">0</text>
            <line clip-path="url(#clipPath2)" fill="none" x1="72" x2="74" y1="506" y2="506"/>
            <line clip-path="url(#clipPath2)" fill="none" x1="744" x2="742" y1="506" y2="506"/>
            <line clip-path="url(#clipPath2)" fill="none" x1="72" x2="74" y1="496" y2="496"/>
            <line clip-path="url(#clipPath2)" fill="none" x1="744" x2="742" y1="496" y2="496"/>
            <line clip-path="url(#clipPath2)" fill="none" x1="72" x2="74" y1="486" y2="486"/>
            <line clip-path="url(#clipPath2)" fill="none" x1="744" x2="742" y1="486" y2="486"/>
            <line clip-path="url(#clipPath2)" fill="none" x1="72" x2="74" y1="476" y2="476"/>
            <line clip-path="url(#clipPath2)" fill="none" x1="744" x2="742" y1="476" y2="476"/>
            <line clip-path="url(#clipPath2)" fill="none" x1="70" x2="74" y1="466" y2="466"/>
            <line clip-path="url(#clipPath2)" fill="none" x1="746" x2="742" y1="466" y2="466"/>
            <text x="43" font-size="23" y="474" clip-path="url(#clipPath2)" stroke="none" font-weight="bold" xml:space="preserve">10</text>
            <text x="749" font-size="23" y="474" clip-path="url(#clipPath2)" stroke="none" font-weight="bold" xml:space="preserve">10</text>
            <line clip-path="url(#clipPath2)" fill="none" x1="72" x2="74" y1="456" y2="456"/>
            <line clip-path="url(#clipPath2)" fill="none" x1="744" x2="742" y1="456" y2="456"/>
            <line clip-path="url(#clipPath2)" fill="none" x1="72" x2="74" y1="446" y2="446"/>
            <line clip-path="url(#clipPath2)" fill="none" x1="744" x2="742" y1="446" y2="446"/>
            <line clip-path="url(#clipPath2)" fill="none" x1="72" x2="74" y1="436" y2="436"/>
            <line clip-path="url(#clipPath2)" fill="none" x1="744" x2="742" y1="436" y2="436"/>
            <line clip-path="url(#clipPath2)" fill="none" x1="72" x2="74" y1="426" y2="426"/>
            <line clip-path="url(#clipPath2)" fill="none" x1="744" x2="742" y1="426" y2="426"/>
            <line clip-path="url(#clipPath2)" fill="none" x1="70" x2="74" y1="416" y2="416"/>
            <line clip-path="url(#clipPath2)" fill="none" x1="746" x2="742" y1="416" y2="416"/>
            <text x="43" font-size="23" y="424" clip-path="url(#clipPath2)" stroke="none" font-weight="bold" xml:space="preserve">20</text>
            <text x="749" font-size="23" y="424" clip-path="url(#clipPath2)" stroke="none" font-weight="bold" xml:space="preserve">20</text>
            <line clip-path="url(#clipPath2)" fill="none" x1="72" x2="74" y1="406" y2="406"/>
            <line clip-path="url(#clipPath2)" fill="none" x1="744" x2="742" y1="406" y2="406"/>
            <line clip-path="url(#clipPath2)" fill="none" x1="72" x2="74" y1="396" y2="396"/>
            <line clip-path="url(#clipPath2)" fill="none" x1="744" x2="742" y1="396" y2="396"/>
            <line clip-path="url(#clipPath2)" fill="none" x1="72" x2="74" y1="386" y2="386"/>
            <line clip-path="url(#clipPath2)" fill="none" x1="744" x2="742" y1="386" y2="386"/>
            <line clip-path="url(#clipPath2)" fill="none" x1="72" x2="74" y1="376" y2="376"/>
            <line clip-path="url(#clipPath2)" fill="none" x1="744" x2="742" y1="376" y2="376"/>
            <line clip-path="url(#clipPath2)" fill="none" x1="70" x2="74" y1="366" y2="366"/>
            <line clip-path="url(#clipPath2)" fill="none" x1="746" x2="742" y1="366" y2="366"/>
            <text x="43" font-size="23" y="374" clip-path="url(#clipPath2)" stroke="none" font-weight="bold" xml:space="preserve">30</text>
            <text x="749" font-size="23" y="374" clip-path="url(#clipPath2)" stroke="none" font-weight="bold" xml:space="preserve">30</text>
            <line clip-path="url(#clipPath2)" fill="none" x1="72" x2="74" y1="356" y2="356"/>
            <line clip-path="url(#clipPath2)" fill="none" x1="744" x2="742" y1="356" y2="356"/>
            <line clip-path="url(#clipPath2)" fill="none" x1="72" x2="74" y1="346" y2="346"/>
            <line clip-path="url(#clipPath2)" fill="none" x1="744" x2="742" y1="346" y2="346"/>
            <line clip-path="url(#clipPath2)" fill="none" x1="72" x2="74" y1="336" y2="336"/>
            <line clip-path="url(#clipPath2)" fill="none" x1="744" x2="742" y1="336" y2="336"/>
            <line clip-path="url(#clipPath2)" fill="none" x1="72" x2="74" y1="326" y2="326"/>
            <line clip-path="url(#clipPath2)" fill="none" x1="744" x2="742" y1="326" y2="326"/>
            <line clip-path="url(#clipPath2)" fill="none" x1="70" x2="74" y1="316" y2="316"/>
            <line clip-path="url(#clipPath2)" fill="none" x1="746" x2="742" y1="316" y2="316"/>
            <text x="43" font-size="23" y="324" clip-path="url(#clipPath2)" stroke="none" font-weight="bold" xml:space="preserve">40</text>
            <text x="749" font-size="23" y="324" clip-path="url(#clipPath2)" stroke="none" font-weight="bold" xml:space="preserve">40</text>
            <line clip-path="url(#clipPath2)" fill="none" x1="72" x2="74" y1="306" y2="306"/>
            <line clip-path="url(#clipPath2)" fill="none" x1="744" x2="742" y1="306" y2="306"/>
            <line clip-path="url(#clipPath2)" fill="none" x1="72" x2="74" y1="296" y2="296"/>
            <line clip-path="url(#clipPath2)" fill="none" x1="744" x2="742" y1="296" y2="296"/>
            <line clip-path="url(#clipPath2)" fill="none" x1="72" x2="74" y1="286" y2="286"/>
            <line clip-path="url(#clipPath2)" fill="none" x1="744" x2="742" y1="286" y2="286"/>
            <line clip-path="url(#clipPath2)" fill="none" x1="72" x2="74" y1="276" y2="276"/>
            <line clip-path="url(#clipPath2)" fill="none" x1="744" x2="742" y1="276" y2="276"/>
            <line clip-path="url(#clipPath2)" fill="none" x1="70" x2="74" y1="266" y2="266"/>
            <line clip-path="url(#clipPath2)" fill="none" x1="746" x2="742" y1="266" y2="266"/>
            <text x="43" font-size="23" y="274" clip-path="url(#clipPath2)" stroke="none" font-weight="bold" xml:space="preserve">50</text>
            <text x="749" font-size="23" y="274" clip-path="url(#clipPath2)" stroke="none" font-weight="bold" xml:space="preserve">50</text>
            <line clip-path="url(#clipPath2)" fill="none" x1="72" x2="74" y1="256" y2="256"/>
            <line clip-path="url(#clipPath2)" fill="none" x1="744" x2="742" y1="256" y2="256"/>
            <line clip-path="url(#clipPath2)" fill="none" x1="72" x2="74" y1="246" y2="246"/>
            <line clip-path="url(#clipPath2)" fill="none" x1="744" x2="742" y1="246" y2="246"/>
            <line clip-path="url(#clipPath2)" fill="none" x1="72" x2="74" y1="236" y2="236"/>
            <line clip-path="url(#clipPath2)" fill="none" x1="744" x2="742" y1="236" y2="236"/>
            <line clip-path="url(#clipPath2)" fill="none" x1="72" x2="74" y1="226" y2="226"/>
            <line clip-path="url(#clipPath2)" fill="none" x1="744" x2="742" y1="226" y2="226"/>
            <line clip-path="url(#clipPath2)" fill="none" x1="70" x2="74" y1="216" y2="216"/>
            <line clip-path="url(#clipPath2)" fill="none" x1="746" x2="742" y1="216" y2="216"/>
            <text x="43" font-size="23" y="224" clip-path="url(#clipPath2)" stroke="none" font-weight="bold" xml:space="preserve">60</text>
            <text x="749" font-size="23" y="224" clip-path="url(#clipPath2)" stroke="none" font-weight="bold" xml:space="preserve">60</text>
            <line clip-path="url(#clipPath2)" fill="none" x1="72" x2="74" y1="206" y2="206"/>
            <line clip-path="url(#clipPath2)" fill="none" x1="744" x2="742" y1="206" y2="206"/>
            <line clip-path="url(#clipPath2)" fill="none" x1="72" x2="74" y1="196" y2="196"/>
            <line clip-path="url(#clipPath2)" fill="none" x1="744" x2="742" y1="196" y2="196"/>
            <line clip-path="url(#clipPath2)" fill="none" x1="72" x2="74" y1="186" y2="186"/>
            <line clip-path="url(#clipPath2)" fill="none" x1="744" x2="742" y1="186" y2="186"/>
            <line clip-path="url(#clipPath2)" fill="none" x1="72" x2="74" y1="176" y2="176"/>
            <line clip-path="url(#clipPath2)" fill="none" x1="744" x2="742" y1="176" y2="176"/>
            <line clip-path="url(#clipPath2)" fill="none" x1="70" x2="74" y1="166" y2="166"/>
            <line clip-path="url(#clipPath2)" fill="none" x1="746" x2="742" y1="166" y2="166"/>
            <text x="43" font-size="23" y="174" clip-path="url(#clipPath2)" stroke="none" font-weight="bold" xml:space="preserve">70</text>
            <text x="749" font-size="23" y="174" clip-path="url(#clipPath2)" stroke="none" font-weight="bold" xml:space="preserve">70</text>
            <line clip-path="url(#clipPath2)" fill="none" x1="72" x2="74" y1="156" y2="156"/>
            <line clip-path="url(#clipPath2)" fill="none" x1="744" x2="742" y1="156" y2="156"/>
            <line clip-path="url(#clipPath2)" fill="none" x1="72" x2="74" y1="146" y2="146"/>
            <line clip-path="url(#clipPath2)" fill="none" x1="744" x2="742" y1="146" y2="146"/>
            <line clip-path="url(#clipPath2)" fill="none" x1="72" x2="74" y1="136" y2="136"/>
            <line clip-path="url(#clipPath2)" fill="none" x1="744" x2="742" y1="136" y2="136"/>
            <line clip-path="url(#clipPath2)" fill="none" x1="72" x2="74" y1="126" y2="126"/>
            <line clip-path="url(#clipPath2)" fill="none" x1="744" x2="742" y1="126" y2="126"/>
            <line clip-path="url(#clipPath2)" fill="none" x1="70" x2="74" y1="116" y2="116"/>
            <line clip-path="url(#clipPath2)" fill="none" x1="746" x2="742" y1="116" y2="116"/>
            <text x="43" font-size="23" y="124" clip-path="url(#clipPath2)" stroke="none" font-weight="bold" xml:space="preserve">80</text>
            <text x="749" font-size="23" y="124" clip-path="url(#clipPath2)" stroke="none" font-weight="bold" xml:space="preserve">80</text>
            <line clip-path="url(#clipPath2)" fill="none" x1="72" x2="74" y1="106" y2="106"/>
            <line clip-path="url(#clipPath2)" fill="none" x1="744" x2="742" y1="106" y2="106"/>
            <line clip-path="url(#clipPath2)" fill="none" x1="72" x2="74" y1="96" y2="96"/>
            <line clip-path="url(#clipPath2)" fill="none" x1="744" x2="742" y1="96" y2="96"/>
            <line clip-path="url(#clipPath2)" fill="none" x1="72" x2="74" y1="86" y2="86"/>
            <line clip-path="url(#clipPath2)" fill="none" x1="744" x2="742" y1="86" y2="86"/>
            <line clip-path="url(#clipPath2)" fill="none" x1="72" x2="74" y1="76" y2="76"/>
            <line clip-path="url(#clipPath2)" fill="none" x1="744" x2="742" y1="76" y2="76"/>
            <line clip-path="url(#clipPath2)" fill="none" x1="70" x2="74" y1="66" y2="66"/>
            <line clip-path="url(#clipPath2)" fill="none" x1="746" x2="742" y1="66" y2="66"/>
            <text x="43" font-size="23" y="74" clip-path="url(#clipPath2)" stroke="none" font-weight="bold" xml:space="preserve">90</text>
            <text x="749" font-size="23" y="74" clip-path="url(#clipPath2)" stroke="none" font-weight="bold" xml:space="preserve">90</text>
            <line clip-path="url(#clipPath2)" fill="none" x1="72" x2="74" y1="56" y2="56"/>
            <line clip-path="url(#clipPath2)" fill="none" x1="744" x2="742" y1="56" y2="56"/>
        </g>
    </g>
</svg>
